<svg width="25" height="24" viewBox="0 0 25 24" fill="none" xmlns="http://www.w3.org/2000/svg">
<path d="M16.6909 12.375V4.875C16.6909 4.37772 16.4934 3.90081 16.1417 3.54917C15.7901 3.19754 15.3132 3 14.8159 3C14.3186 3 13.8417 3.19754 13.4901 3.54917C13.1385 3.90081 12.9409 4.37772 12.9409 4.875V9.75V3.375C12.9409 2.87772 12.7434 2.40081 12.3917 2.04917C12.0401 1.69754 11.5632 1.5 11.0659 1.5C10.5686 1.5 10.0917 1.69754 9.74009 2.04917C9.38846 2.40081 9.19092 2.87772 9.19092 3.375V10.5V6.375C9.19092 5.87772 8.99337 5.40081 8.64174 5.04917C8.29011 4.69754 7.8132 4.5 7.31592 4.5C6.81864 4.5 6.34172 4.69754 5.99009 5.04917C5.63846 5.40081 5.44092 5.87772 5.44092 6.375V14.25C5.44092 16.2391 6.23109 18.1468 7.63762 19.5533C9.04414 20.9598 10.9518 21.75 12.9409 21.75C14.93 21.75 16.8377 20.9598 18.2442 19.5533C19.6507 18.1468 20.4409 16.2391 20.4409 14.25V10.5C20.4409 10.0027 20.2434 9.52581 19.8917 9.17417C19.5401 8.82254 19.0632 8.625 18.5659 8.625C18.0686 8.625 17.5917 8.82254 17.2401 9.17417C16.8885 9.52581 16.6909 10.0027 16.6909 10.5V12.375ZM16.6909 12.375C15.6964 12.375 14.7425 12.7701 14.0393 13.4733C13.336 14.1766 12.9409 15.1304 12.9409 16.125" stroke="#3D3D3D" stroke-width="1.5" stroke-linecap="round" stroke-linejoin="round"/>
</svg>
