<svg width="25" height="24" viewBox="0 0 25 24" fill="none" xmlns="http://www.w3.org/2000/svg">
<path d="M12.8718 6.75C14.3216 6.75 15.4968 5.57475 15.4968 4.125C15.4968 2.67525 14.3216 1.5 12.8718 1.5C11.4221 1.5 10.2468 2.67525 10.2468 4.125C10.2468 5.57475 11.4221 6.75 12.8718 6.75Z" stroke="#3D3D3D" stroke-width="1.5" stroke-linecap="round" stroke-linejoin="round"/>
<path d="M15.3114 12.6295L18.5689 15.1631C18.7799 15.3741 19.0661 15.4926 19.3644 15.4926C19.6628 15.4926 19.9489 15.3741 20.1599 15.1631C20.3709 14.9522 20.4894 14.666 20.4894 14.3676C20.4894 14.0693 20.3709 13.7831 20.1599 13.5721L16.4476 8.79918C16.2737 8.62481 16.067 8.48653 15.8395 8.39228C15.612 8.29803 15.3681 8.24968 15.1218 8.25H10.6218C10.3755 8.24968 10.1316 8.29803 9.90407 8.39228C9.67655 8.48652 9.46988 8.62481 9.29597 8.79918L5.58366 13.5721C5.47919 13.6766 5.39632 13.8006 5.33979 13.9371C5.28325 14.0736 5.25415 14.2199 5.25415 14.3676C5.25415 14.5154 5.28325 14.6617 5.33979 14.7982C5.39632 14.9347 5.47919 15.0587 5.58366 15.1631C5.68812 15.2676 5.81214 15.3505 5.94863 15.407C6.08512 15.4635 6.23141 15.4926 6.37915 15.4926C6.52689 15.4926 6.67318 15.4635 6.80967 15.407C6.94616 15.3505 7.07018 15.2676 7.17465 15.1631L10.4321 12.6295L7.83211 20.8415C7.70602 21.1119 7.69251 21.4213 7.79455 21.7017C7.8966 21.9821 8.10585 22.2104 8.37626 22.3365C8.64668 22.4626 8.95611 22.4761 9.23648 22.3741C9.51686 22.272 9.74521 22.0628 9.87131 21.7924L12.8718 17.0701L15.8723 21.7924C15.9988 22.0621 16.2271 22.2707 16.5072 22.3724C16.7873 22.474 17.0963 22.4603 17.3663 22.3344C17.6364 22.2085 17.8455 21.9806 17.9477 21.7007C18.0499 21.4208 18.0368 21.1118 17.9115 20.8415L15.3114 12.6295Z" stroke="#3D3D3D" stroke-width="1.5" stroke-linecap="round" stroke-linejoin="round"/>
</svg>
