<svg width="24" height="24" viewBox="0 0 24 24" fill="none" xmlns="http://www.w3.org/2000/svg">
<path d="M12.0002 21C16.9708 21 21.0002 16.9706 21.0002 12C21.0002 7.02944 16.9708 3 12.0002 3C7.02968 3 3.00024 7.02944 3.00024 12C3.00024 16.9706 7.02968 21 12.0002 21Z" stroke="#3D3D3D" stroke-width="1.5" stroke-linecap="round" stroke-linejoin="round"/>
<path d="M8.62438 11.0625C9.14167 11.0625 9.56102 10.6428 9.56102 10.125C9.56102 9.60723 9.14167 9.1875 8.62438 9.1875C8.10709 9.1875 7.68774 9.60723 7.68774 10.125C7.68774 10.6428 8.10709 11.0625 8.62438 11.0625Z" fill="#3D3D3D"/>
<path d="M14.2502 10.125H16.4982" stroke="#3D3D3D" stroke-width="1.5" stroke-linecap="round" stroke-linejoin="round"/>
<path d="M15.8983 14.2498C15.5031 14.9339 14.9349 15.5021 14.2507 15.8971C13.5664 16.2921 12.7903 16.5 12.0002 16.5C11.2101 16.5 10.4339 16.2921 9.74968 15.8971C9.06543 15.5021 8.49719 14.934 8.10205 14.2498" stroke="#3D3D3D" stroke-width="1.5" stroke-linecap="round" stroke-linejoin="round"/>
</svg>
