<svg width="25" height="24" viewBox="0 0 25 24" fill="none" xmlns="http://www.w3.org/2000/svg">
<path d="M11.9667 15.2129C14.1781 15.2129 15.9708 13.4203 15.9708 11.2089C15.9708 8.99751 14.1781 7.20483 11.9667 7.20483C9.75537 7.20483 7.9627 8.99751 7.9627 11.2089C7.9627 13.4203 9.75537 15.2129 11.9667 15.2129ZM11.9667 15.2129C10.6362 15.2129 9.33152 15.5811 8.19727 16.2768C7.06301 16.9724 6.14337 17.9683 5.54015 19.1543M11.9667 15.2129C13.2973 15.2129 14.6019 15.5811 15.7362 16.2767C16.8705 16.9724 17.7901 17.9683 18.3933 19.1543M16.7716 4.80241H21.5765M19.174 2.39998V7.20483M21.4576 10.4939C21.7757 12.4965 21.4515 14.5484 20.5316 16.3554C19.6116 18.1624 18.1432 19.6317 16.3367 20.5526C14.5302 21.4736 12.4785 21.7989 10.4758 21.4819C8.473 21.165 6.62203 20.222 5.18824 18.7882C3.75445 17.3544 2.81147 15.5034 2.4945 13.5007C2.17752 11.4979 2.50284 9.4462 3.4238 7.63973C4.34476 5.83325 5.81406 4.36477 7.62106 3.44484C9.42805 2.5249 11.4799 2.20074 13.4825 2.51884" stroke="#3D3D3D" stroke-width="1.5" stroke-linecap="round" stroke-linejoin="round"/>
</svg>
