<svg width="25" height="24" viewBox="0 0 25 24" fill="none" xmlns="http://www.w3.org/2000/svg">
<path d="M12.9409 16.875C15.012 16.875 16.6909 15.1961 16.6909 13.125C16.6909 11.054 15.012 9.37502 12.9409 9.37502C10.8699 9.37502 9.19094 11.054 9.19094 13.125C9.19094 15.1961 10.8699 16.875 12.9409 16.875ZM12.9409 16.875C11.8154 16.875 10.7126 17.1915 9.75835 17.7882C8.80409 18.385 8.03683 19.238 7.54416 20.2499M12.9409 16.875C14.0664 16.875 15.1692 17.1914 16.1235 17.7882C17.0778 18.385 17.845 19.238 18.3377 20.2499M23.816 13.1246C23.2925 12.4256 22.6132 11.8583 21.832 11.4678C21.0508 11.0772 20.1893 10.8743 19.3159 10.875C19.8852 10.875 20.4428 10.713 20.9234 10.4079C21.4041 10.1028 21.788 9.66731 22.0304 9.1522C22.2728 8.63709 22.3636 8.06365 22.2923 7.49885C22.221 6.93404 21.9904 6.40119 21.6276 5.96251C21.2647 5.52384 20.7846 5.19745 20.2432 5.02147C19.7018 4.84548 19.1214 4.82716 18.57 4.96865C18.0186 5.11014 17.5188 5.40559 17.129 5.82051C16.7392 6.23543 16.4755 6.75268 16.3687 7.31186M2.06567 13.1248C2.58921 12.4257 3.26858 11.8584 4.04979 11.4678C4.83101 11.0773 5.69254 10.8743 6.56594 10.875C5.99673 10.8749 5.43929 10.7129 4.95872 10.4078C4.47815 10.1028 4.09429 9.66727 3.85196 9.15222C3.60962 8.63717 3.51882 8.0638 3.59015 7.49907C3.66148 6.93435 3.892 6.40157 4.25479 5.96295C4.61759 5.52433 5.09768 5.19797 5.639 5.02199C6.18033 4.84601 6.76055 4.82767 7.31192 4.9691C7.86328 5.11053 8.36303 5.40591 8.7528 5.82074C9.14258 6.23556 9.4063 6.75271 9.51316 7.31181" stroke="#3D3D3D" stroke-width="1.5" stroke-linecap="round" stroke-linejoin="round"/>
</svg>
