<svg width="24" height="24" viewBox="0 0 24 24" fill="none" xmlns="http://www.w3.org/2000/svg">
<path d="M7.50027 18.75C9.15712 18.75 10.5003 17.4069 10.5003 15.75C10.5003 14.0931 9.15712 12.75 7.50027 12.75C5.84341 12.75 4.50027 14.0931 4.50027 15.75C4.50027 17.4069 5.84341 18.75 7.50027 18.75ZM7.50027 18.75C6.62702 18.75 5.76563 18.9533 4.98456 19.3438C4.20348 19.7343 3.52403 20.3013 3 20.9998M7.50027 18.75C8.37351 18.75 9.23465 18.9532 10.0157 19.3437C10.7968 19.7342 11.4763 20.3011 12.0004 20.9996C12.5244 20.3011 13.2035 19.7343 13.9846 19.3438C14.7656 18.9533 15.627 18.75 16.5003 18.75M7.50027 9C9.15712 9 10.5003 7.65685 10.5003 6C10.5003 4.34315 9.15712 3 7.50027 3C5.84341 3 4.50027 4.34315 4.50027 6C4.50027 7.65685 5.84341 9 7.50027 9ZM7.50027 9C6.62702 9.00002 5.76563 9.20332 4.98456 9.59382C4.20348 9.98431 3.52403 10.5513 3 11.2498M7.50027 9C8.37351 8.99998 9.23465 9.20324 10.0157 9.5937C10.7968 9.98415 11.4763 10.5511 12.0004 11.2496C12.5244 10.5511 13.2035 9.98431 13.9846 9.59382C14.7656 9.20332 15.627 9.00002 16.5003 9M16.5003 18.75C18.1571 18.75 19.5003 17.4069 19.5003 15.75C19.5003 14.0931 18.1571 12.75 16.5003 12.75C14.8434 12.75 13.5003 14.0931 13.5003 15.75C13.5003 17.4069 14.8434 18.75 16.5003 18.75ZM16.5003 18.75C17.3735 18.75 18.2346 18.9532 19.0157 19.3437C19.7968 19.7342 20.4763 20.3011 21.0004 20.9996M16.5003 9C18.1571 9 19.5003 7.65685 19.5003 6C19.5003 4.34315 18.1571 3 16.5003 3C14.8434 3 13.5003 4.34315 13.5003 6C13.5003 7.65685 14.8434 9 16.5003 9ZM16.5003 9C17.3735 8.99998 18.2346 9.20324 19.0157 9.5937C19.7968 9.98415 20.4763 10.5511 21.0004 11.2496" stroke="#3D3D3D" stroke-width="1.5" stroke-linecap="round" stroke-linejoin="round"/>
</svg>
