<svg width="25" height="24" viewBox="0 0 25 24" fill="none" xmlns="http://www.w3.org/2000/svg">
<path d="M9.04829 5.625V12.375H17.2983L20.2983 18.375L22.5483 17.625M15.7868 15.375C15.7137 16.5435 15.3003 17.665 14.5976 18.6014C13.8949 19.5378 12.9336 20.2482 11.8322 20.645C10.7308 21.0418 9.53733 21.1078 8.39889 20.8347C7.26046 20.5616 6.22678 19.9614 5.42522 19.1081C4.62366 18.2548 4.08924 17.1857 3.88782 16.0324C3.68639 14.8792 3.82675 13.6921 4.29161 12.6177C4.75647 11.5432 5.52551 10.6282 6.50398 9.98535C7.48245 9.34254 8.6276 9.00002 9.79833 9H15.0483M10.9199 3.75C10.9199 4.78553 10.0812 5.625 9.04661 5.625C8.01203 5.625 7.17334 4.78553 7.17334 3.75C7.17334 2.71447 8.01203 1.875 9.04661 1.875C10.0812 1.875 10.9199 2.71447 10.9199 3.75Z" stroke="#3D3D3D" stroke-width="1.5" stroke-linecap="round" stroke-linejoin="round"/>
</svg>
