<svg width="24" height="24" viewBox="0 0 24 24" fill="none" xmlns="http://www.w3.org/2000/svg">
<path d="M15.9325 11.3767C16.2096 11.0688 16.1846 10.5946 15.8767 10.3175C15.5688 10.0404 15.0946 10.0654 14.8175 10.3733L15.9325 11.3767ZM12 14.625L11.4425 15.1267C11.5848 15.2848 11.7874 15.375 12 15.375C12.2126 15.375 12.4152 15.2848 12.5575 15.1267L12 14.625ZM9.18247 10.3733C8.90538 10.0654 8.43116 10.0404 8.12328 10.3175C7.81539 10.5946 7.79044 11.0688 8.06753 11.3767L9.18247 10.3733ZM20.25 12C20.25 16.5563 16.5563 20.25 12 20.25V21.75C17.3848 21.75 21.75 17.3848 21.75 12H20.25ZM12 20.25C7.44365 20.25 3.75 16.5563 3.75 12H2.25C2.25 17.3848 6.61522 21.75 12 21.75V20.25ZM3.75 12C3.75 7.44365 7.44365 3.75 12 3.75V2.25C6.61522 2.25 2.25 6.61522 2.25 12H3.75ZM12 3.75C16.5563 3.75 20.25 7.44365 20.25 12H21.75C21.75 6.61522 17.3848 2.25 12 2.25V3.75ZM14.8175 10.3733L11.4425 14.1233L12.5575 15.1267L15.9325 11.3767L14.8175 10.3733ZM12.5575 14.1233L9.18247 10.3733L8.06753 11.3767L11.4425 15.1267L12.5575 14.1233Z" fill="#3D3D3D"/>
</svg>
