<svg width="24" height="24" viewBox="0 0 24 24" fill="none" xmlns="http://www.w3.org/2000/svg">
<path d="M14.8175 14.0017C15.0946 14.3096 15.5688 14.3346 15.8767 14.0575C16.1846 13.7804 16.2096 13.3062 15.9325 12.9983L14.8175 14.0017ZM12 9.75L12.5575 9.24828C12.4152 9.09024 12.2126 9 12 9C11.7874 9 11.5848 9.09024 11.4425 9.24828L12 9.75ZM8.06753 12.9983C7.79044 13.3062 7.81539 13.7804 8.12328 14.0575C8.43116 14.3346 8.90538 14.3096 9.18247 14.0017L8.06753 12.9983ZM20.25 12C20.25 16.5563 16.5563 20.25 12 20.25V21.75C17.3848 21.75 21.75 17.3848 21.75 12H20.25ZM12 20.25C7.44365 20.25 3.75 16.5563 3.75 12H2.25C2.25 17.3848 6.61522 21.75 12 21.75V20.25ZM3.75 12C3.75 7.44365 7.44365 3.75 12 3.75V2.25C6.61522 2.25 2.25 6.61522 2.25 12H3.75ZM12 3.75C16.5563 3.75 20.25 7.44365 20.25 12H21.75C21.75 6.61522 17.3848 2.25 12 2.25V3.75ZM15.9325 12.9983L12.5575 9.24828L11.4425 10.2517L14.8175 14.0017L15.9325 12.9983ZM11.4425 9.24828L8.06753 12.9983L9.18247 14.0017L12.5575 10.2517L11.4425 9.24828Z" fill="#3D3D3D"/>
</svg>
