<svg width="24" height="24" viewBox="0 0 24 24" fill="none" xmlns="http://www.w3.org/2000/svg">
<path d="M13 19H11C10.4477 19 10 19.4477 10 20V21C10 21.5523 10.4477 22 11 22H13C13.5523 22 14 21.5523 14 21V20C14 19.4477 13.5523 19 13 19Z" stroke="#3D3D3D" stroke-width="1.5" stroke-linecap="round" stroke-linejoin="round"/>
<path d="M12 16C15.314 16 18 11.314 18 8C18 6.4087 17.3679 4.88258 16.2426 3.75736C15.1174 2.63214 13.5913 2 12 2C10.4087 2 8.88258 2.63214 7.75736 3.75736C6.63214 4.88258 6 6.4087 6 8C6 11.314 8.686 16 12 16Z" stroke="#3D3D3D" stroke-width="1.5" stroke-linecap="round" stroke-linejoin="round"/>
<path d="M12 16C13.1046 16 14 12.866 14 9C14 5.13401 13.1046 2 12 2C10.8954 2 10 5.13401 10 9C10 12.866 10.8954 16 12 16Z" stroke="#3D3D3D" stroke-width="1.5" stroke-linecap="round" stroke-linejoin="round"/>
</svg>
