<svg width="24" height="24" viewBox="0 0 24 24" fill="none" xmlns="http://www.w3.org/2000/svg">
<path d="M19 6.8731C19.3062 7.0499 19.5601 7.30473 19.7358 7.61163C19.9115 7.91852 20.0026 8.2665 20 8.6201V15.1561C19.9999 15.5127 19.9045 15.8629 19.7235 16.1702C19.5426 16.4776 19.2828 16.731 18.971 16.9041L12.971 20.7371C12.674 20.9021 12.3398 20.9886 12 20.9886C11.6602 20.9886 11.326 20.9021 11.029 20.7371L5.029 16.9041C4.71736 16.731 4.45763 16.4778 4.27671 16.1707C4.0958 15.8635 4.00026 15.5136 4 15.1571V8.6201C4.00008 8.26346 4.09553 7.91332 4.27646 7.60598C4.45739 7.29863 4.71721 7.04526 5.029 6.8721L11.029 3.3001C11.3348 3.12987 11.679 3.04053 12.029 3.04053C12.379 3.04053 12.7232 3.12987 13.029 3.3001L19.029 6.8731H19V6.8731Z" stroke="#3D3D3D" stroke-width="1.5" stroke-linecap="round" stroke-linejoin="round"/>
<path d="M15.5 9.42199C15.812 9.60199 16.003 9.93699 16 10.298V13.575C16 13.939 15.803 14.275 15.485 14.452L12.485 16.374C12.3367 16.4566 12.1697 16.4999 12 16.4999C11.8303 16.4999 11.6633 16.4566 11.515 16.374L8.515 14.452C8.35892 14.3651 8.22889 14.238 8.13835 14.084C8.04781 13.93 8.00005 13.7546 8 13.576V10.298C8 9.93399 8.197 9.59799 8.514 9.42099L11.514 7.63099C11.825 7.45699 12.204 7.45699 12.514 7.63099L15.514 9.42099H15.5V9.42199Z" stroke="#3D3D3D" stroke-width="1.5" stroke-linecap="round" stroke-linejoin="round"/>
</svg>
