<svg width="24" height="24" viewBox="0 0 24 24" fill="none" xmlns="http://www.w3.org/2000/svg">
<path d="M16.72 12.7039C17.6268 11.5492 18.0787 10.1021 17.9903 8.63662C17.9019 7.1711 17.2791 5.78888 16.2401 4.75164C15.201 3.7144 13.8176 3.09415 12.352 3.00832C10.8863 2.92248 9.44001 3.37703 8.28696 4.28589M6.53196 6.52589C6.02856 7.63683 5.87569 8.87479 6.09371 10.0748C6.31174 11.2748 6.8903 12.3799 7.7523 13.2428C8.6143 14.1057 9.71879 14.6853 10.9186 14.9046C12.1184 15.1238 13.3565 14.9722 14.468 14.4699" stroke="#3D3D3D" stroke-width="1.5" stroke-linecap="round" stroke-linejoin="round"/>
<path d="M12.002 15.0029L15.402 20.8929L17 17.6599L17.707 17.7059M18.815 14.8039L17.198 12.0039" stroke="#3D3D3D" stroke-width="1.5" stroke-linecap="round" stroke-linejoin="round"/>
<path d="M6.8021 12.0029L3.4021 17.8929L7.0001 17.6599L8.5981 20.8919L11.9981 15.0029" stroke="#3D3D3D" stroke-width="1.5" stroke-linecap="round" stroke-linejoin="round"/>
<path d="M3 3L21 21" stroke="#3D3D3D" stroke-width="1.5" stroke-linecap="round" stroke-linejoin="round"/>
</svg>
