<svg width="24" height="24" viewBox="0 0 24 24" fill="none" xmlns="http://www.w3.org/2000/svg">
<path d="M20.041 16.0461C20.8935 14.3552 21.1908 12.4385 20.8908 10.5688C20.5908 8.69905 19.7087 6.97159 18.37 5.63226C17.0314 4.29292 15.3043 3.40995 13.4348 3.10902C11.5652 2.80808 9.64834 3.10451 7.957 3.95612M5.634 5.63912C3.9459 7.32669 2.99732 9.61574 2.99695 12.0027C2.99657 14.3897 3.94443 16.679 5.632 18.3671C7.31958 20.0552 9.60863 21.0038 11.9956 21.0042C14.3826 21.0045 16.6719 20.0567 18.36 18.3691" stroke="#3D3D3D" stroke-width="1.5" stroke-linecap="round" stroke-linejoin="round"/>
<path d="M12 7L16.755 10.455L16.189 12.198L15.209 15.212L15 16H9L7.245 10.455L9.10499 9.104L11.418 7.423L12 7Z" stroke="#3D3D3D" stroke-width="1.5" stroke-linecap="round" stroke-linejoin="round"/>
<path d="M12 7V3" stroke="#3D3D3D" stroke-width="1.5" stroke-linecap="round" stroke-linejoin="round"/>
<path d="M15 16L17.5 19" stroke="#3D3D3D" stroke-width="1.5" stroke-linecap="round" stroke-linejoin="round"/>
<path d="M16.755 10.455L20.5 9" stroke="#3D3D3D" stroke-width="1.5" stroke-linecap="round" stroke-linejoin="round"/>
<path d="M9.061 16.0449L6.5 18.9999" stroke="#3D3D3D" stroke-width="1.5" stroke-linecap="round" stroke-linejoin="round"/>
<path d="M7.245 10.455L3.5 9" stroke="#3D3D3D" stroke-width="1.5" stroke-linecap="round" stroke-linejoin="round"/>
<path d="M3 3L21 21" stroke="#3D3D3D" stroke-width="1.5" stroke-linecap="round" stroke-linejoin="round"/>
</svg>
