<svg width="24" height="24" viewBox="0 0 24 24" fill="none" xmlns="http://www.w3.org/2000/svg">
<path d="M14 6L21 13L19 15" stroke="#3D3D3D" stroke-width="1.5" stroke-linecap="round" stroke-linejoin="round"/>
<path d="M9.99994 10L5.82794 14.172C5.5653 14.4346 5.35696 14.7464 5.21481 15.0896C5.07267 15.4328 4.99951 15.8006 4.99951 16.172C4.99951 16.5434 5.07267 16.9112 5.21481 17.2544C5.35696 17.5976 5.5653 17.9094 5.82794 18.172C6.09058 18.4346 6.40239 18.643 6.74555 18.7851C7.08871 18.9273 7.4565 19.0004 7.82794 19.0004C8.19937 19.0004 8.56717 18.9273 8.91033 18.7851C9.25349 18.643 9.5653 18.4346 9.82794 18.172L13.9999 14" stroke="#3D3D3D" stroke-width="1.5" stroke-linecap="round" stroke-linejoin="round"/>
<path d="M16 12.0001L20.414 7.58607C20.5998 7.40035 20.7472 7.17983 20.8478 6.93713C20.9483 6.69442 21.0001 6.43429 21.0001 6.17157C21.0001 5.90886 20.9483 5.64872 20.8478 5.40602C20.7472 5.16331 20.5998 4.9428 20.414 4.75707L19.243 3.58607C19.0573 3.40027 18.8368 3.25288 18.5941 3.15232C18.3513 3.05176 18.0912 3 17.8285 3C17.5658 3 17.3057 3.05176 17.0629 3.15232C16.8202 3.25288 16.5997 3.40027 16.414 3.58607L12 8.00007" stroke="#3D3D3D" stroke-width="1.5" stroke-linecap="round" stroke-linejoin="round"/>
<path d="M4 19.9999L5.768 18.2319" stroke="#3D3D3D" stroke-width="1.5" stroke-linecap="round" stroke-linejoin="round"/>
<path d="M3 3L21 21" stroke="#3D3D3D" stroke-width="1.5" stroke-linecap="round" stroke-linejoin="round"/>
</svg>
