<svg width="24" height="24" viewBox="0 0 24 24" fill="none" xmlns="http://www.w3.org/2000/svg">
<path d="M12 21C16.9706 21 21 16.9706 21 12C21 7.02944 16.9706 3 12 3C7.02944 3 3 7.02944 3 12C3 16.9706 7.02944 21 12 21Z" stroke="#3D3D3D" stroke-width="1.5" stroke-linecap="round" stroke-linejoin="round"/>
<path d="M12 12C12.7834 13.3877 13.9634 14.5098 15.3888 15.2225C16.8141 15.9351 18.4198 16.2059 20 16" stroke="#3D3D3D" stroke-width="1.5" stroke-linecap="round" stroke-linejoin="round"/>
<path d="M7.5 13.5C8.31736 15.1672 9.51044 16.622 10.9854 17.7499C12.4603 18.8778 14.1769 19.648 16 20" stroke="#3D3D3D" stroke-width="1.5" stroke-linecap="round" stroke-linejoin="round"/>
<path d="M12 11.9999C10.4066 11.9845 8.84482 12.4454 7.515 13.3234C6.18517 14.2014 5.14785 15.4565 4.53601 16.9279" stroke="#3D3D3D" stroke-width="1.5" stroke-linecap="round" stroke-linejoin="round"/>
<path d="M12.951 7.35306C11.0984 7.22715 9.24178 7.53291 7.52736 8.24626C5.81295 8.95962 4.28747 10.0611 3.07098 11.4641" stroke="#3D3D3D" stroke-width="1.5" stroke-linecap="round" stroke-linejoin="round"/>
<path d="M12 12C12.81 10.6277 13.1917 9.04478 13.0962 7.45412C13.0007 5.86346 12.4324 4.33756 11.464 3.07202" stroke="#3D3D3D" stroke-width="1.5" stroke-linecap="round" stroke-linejoin="round"/>
<path d="M15.549 15.1469C16.5843 13.6055 17.2477 11.845 17.4872 10.0037C17.7267 8.16247 17.5356 6.29077 16.929 4.53589" stroke="#3D3D3D" stroke-width="1.5" stroke-linecap="round" stroke-linejoin="round"/>
</svg>
