<svg width="24" height="24" viewBox="0 0 24 24" fill="none" xmlns="http://www.w3.org/2000/svg">
<path d="M17.553 16.7501C16.1465 15.3438 14.239 14.5537 12.25 14.5537C10.261 14.5537 8.35352 15.3438 6.94702 16.7501" stroke="#3D3D3D" stroke-width="1.5" stroke-linecap="round" stroke-linejoin="round"/>
<path d="M18 3.80408C16.6219 3.00847 14.9842 2.79286 13.4472 3.20468C11.9101 3.61651 10.5996 4.62204 9.80396 6.00008L20.196 12.0001C20.9916 10.622 21.2072 8.98432 20.7954 7.44729C20.3835 5.91025 19.378 4.59975 18 3.80408V3.80408Z" stroke="#3D3D3D" stroke-width="1.5" stroke-linecap="round" stroke-linejoin="round"/>
<path d="M16.7321 10C18.3901 7.13003 18.9571 4.35603 18.0001 3.80403C17.0431 3.25203 14.9251 5.13003 13.2681 8.00003" stroke="#3D3D3D" stroke-width="1.5" stroke-linecap="round" stroke-linejoin="round"/>
<path d="M15 9L12 14.196" stroke="#3D3D3D" stroke-width="1.5" stroke-linecap="round" stroke-linejoin="round"/>
<path d="M3 19.25C3.31129 19.0953 3.65249 19.01 4 19C4.3895 18.9919 4.77512 19.0787 5.12358 19.2529C5.47203 19.4271 5.77283 19.6835 6 20C6.22717 20.3165 6.52797 20.573 6.87642 20.7472C7.22488 20.9214 7.6105 21.0082 8 21C8.3895 21.0082 8.77512 20.9214 9.12358 20.7472C9.47203 20.573 9.77283 20.3165 10 20C10.2272 19.6835 10.528 19.4271 10.8764 19.2529C11.2249 19.0787 11.6105 18.9919 12 19C12.3895 18.9919 12.7751 19.0787 13.1236 19.2529C13.472 19.4271 13.7728 19.6835 14 20C14.2272 20.3165 14.528 20.573 14.8764 20.7472C15.2249 20.9214 15.6105 21.0082 16 21C16.3895 21.0082 16.7751 20.9214 17.1236 20.7472C17.472 20.573 17.7728 20.3165 18 20C18.2272 19.6835 18.528 19.4271 18.8764 19.2529C19.2249 19.0787 19.6105 18.9919 20 19C20.3475 19.01 20.6887 19.0953 21 19.25" stroke="#3D3D3D" stroke-width="1.5" stroke-linecap="round" stroke-linejoin="round"/>
</svg>
