<svg width="24" height="24" viewBox="0 0 24 24" fill="none" xmlns="http://www.w3.org/2000/svg">
<path d="M3 19C4.36817 18.21 5.92017 17.7942 7.5 17.7942C9.07983 17.7942 10.6318 18.21 12 19C13.7831 17.9706 15.8652 17.5837 17.899 17.904" stroke="#3D3D3D" stroke-width="1.5" stroke-linecap="round" stroke-linejoin="round"/>
<path d="M3 5.99996C3.6641 5.61638 4.37453 5.3193 5.114 5.11596M8.914 4.90596C9.984 5.07596 11.03 5.43996 12 5.99996C13.3682 5.21005 14.9202 4.79419 16.5 4.79419C18.0798 4.79419 19.6318 5.21005 21 5.99996" stroke="#3D3D3D" stroke-width="1.5" stroke-linecap="round" stroke-linejoin="round"/>
<path d="M3 6V19" stroke="#3D3D3D" stroke-width="1.5" stroke-linecap="round" stroke-linejoin="round"/>
<path d="M12 6V8M12 12V19" stroke="#3D3D3D" stroke-width="1.5" stroke-linecap="round" stroke-linejoin="round"/>
<path d="M21 6V17" stroke="#3D3D3D" stroke-width="1.5" stroke-linecap="round" stroke-linejoin="round"/>
<path d="M3 3L21 21" stroke="#3D3D3D" stroke-width="1.5" stroke-linecap="round" stroke-linejoin="round"/>
</svg>
