<svg width="24" height="24" viewBox="0 0 24 24" fill="none" xmlns="http://www.w3.org/2000/svg">
<path d="M17.1 8.64788C16.997 8.74357 16.8622 8.79766 16.7216 8.79969C16.5811 8.80172 16.4447 8.75155 16.339 8.65888C15.3154 7.79489 14.0195 7.3203 12.68 7.31888C11.578 7.31888 10.475 7.68188 10.475 8.69288C10.475 9.71588 11.657 10.0569 13.021 10.5679C15.407 11.3639 17.384 12.3639 17.384 14.7049C17.384 17.2499 15.407 18.9999 12.18 19.1929L11.885 20.5569C11.8588 20.6822 11.7902 20.7947 11.6908 20.8754C11.5913 20.9561 11.4671 21.0001 11.339 20.9999H9.30503L9.20303 20.9889C9.05747 20.9563 8.93058 20.8678 8.84975 20.7424C8.76892 20.617 8.74064 20.4649 8.77103 20.3189L9.08903 18.8749C7.86419 18.5679 6.73776 17.9539 5.81603 17.0909V17.0799C5.76508 17.0292 5.72465 16.969 5.69707 16.9027C5.66948 16.8364 5.65527 16.7652 5.65527 16.6934C5.65527 16.6215 5.66948 16.5504 5.69707 16.4841C5.72465 16.4178 5.76508 16.3575 5.81603 16.3069L6.95303 15.2049C7.16703 15.0049 7.50003 15.0049 7.71403 15.2049C8.75385 16.1872 10.1357 16.7253 11.566 16.7049C13.044 16.7049 14.032 16.0799 14.032 15.0909C14.032 14.1019 13.032 13.8409 11.146 13.1369C9.14603 12.4209 7.24803 11.4089 7.24803 9.04588C7.24803 6.29588 9.53203 4.95488 12.237 4.82988L12.521 3.43188C12.5473 3.30767 12.6162 3.19653 12.7157 3.11766C12.8152 3.03879 12.9391 2.99713 13.066 2.99988H15.089L15.203 3.01188C15.2732 3.02661 15.3397 3.05506 15.3989 3.0956C15.458 3.13613 15.5085 3.18795 15.5475 3.24807C15.5866 3.3082 15.6133 3.37544 15.6263 3.44594C15.6392 3.51644 15.6381 3.58881 15.623 3.65888L15.316 5.21588C16.3475 5.55819 17.3039 6.09448 18.134 6.79588L18.157 6.81788C18.373 7.04588 18.373 7.38688 18.157 7.59088L17.1 8.64788V8.64788Z" stroke="#3D3D3D" stroke-width="1.5" stroke-linecap="round" stroke-linejoin="round"/>
</svg>
