<svg width="24" height="24" viewBox="0 0 24 24" fill="none" xmlns="http://www.w3.org/2000/svg">
<path d="M17 8C18.1046 8 19 7.10457 19 6C19 4.89543 18.1046 4 17 4C15.8954 4 15 4.89543 15 6C15 7.10457 15.8954 8 17 8Z" stroke="#3D3D3D" stroke-width="1.5" stroke-linecap="round" stroke-linejoin="round"/>
<path d="M14 20H20V14C20 13.2044 19.6839 12.4413 19.1213 11.8787C18.5587 11.3161 17.7956 11 17 11C16.2044 11 15.4413 11.3161 14.8787 11.8787C14.3161 12.4413 14 13.2044 14 14V20Z" stroke="#3D3D3D" stroke-width="1.5" stroke-linecap="round" stroke-linejoin="round"/>
<path d="M11 8V10.5C11 11.4283 10.6313 12.3185 9.97487 12.9749C9.3185 13.6313 8.42826 14 7.5 14H7C6.20435 14 5.44129 13.6839 4.87868 13.1213C4.31607 12.5587 4 11.7956 4 11C4 10.2044 4.31607 9.44129 4.87868 8.87868C5.44129 8.31607 6.20435 8 7 8H11Z" stroke="#3D3D3D" stroke-width="1.5" stroke-linecap="round" stroke-linejoin="round"/>
</svg>
