<svg width="24" height="24" viewBox="0 0 24 24" fill="none" xmlns="http://www.w3.org/2000/svg">
<path d="M11.0359 5.05811C9.59214 5.23349 8.22345 5.7991 7.07705 6.69413C5.93064 7.58916 5.04988 8.77975 4.52947 10.1379C4.00907 11.496 3.8687 12.9703 4.12346 14.4022C4.37822 15.8341 5.01848 17.1695 5.97539 18.2648C6.93229 19.3601 8.16965 20.1739 9.55442 20.6186C10.9392 21.0632 12.419 21.1221 13.8347 20.7887C15.2504 20.4553 16.5484 19.7424 17.5892 18.7265C18.6301 17.7107 19.3743 16.4303 19.7419 15.0231" stroke="#3D3D3D" stroke-width="1.5" stroke-linecap="round" stroke-linejoin="round"/>
<path d="M12 21V10L4.5 14" stroke="#3D3D3D" stroke-width="1.5" stroke-linecap="round" stroke-linejoin="round"/>
<path d="M17.5 3.00001C18.1631 3.00001 18.7989 3.2634 19.2678 3.73224C19.7366 4.20108 20 4.83696 20 5.50001C20 6.16305 19.7366 6.79893 19.2678 7.26777C18.7989 7.73661 18.1631 8.00001 17.5 8.00001L6.50002 3.00001C5.89463 2.99873 5.30934 3.21718 4.85282 3.61479C4.3963 4.0124 4.09956 4.56215 4.01771 5.16199C3.93586 5.76183 4.07445 6.37099 4.40775 6.87638C4.74105 7.38176 5.24642 7.74903 5.83002 7.91001" stroke="#3D3D3D" stroke-width="1.5" stroke-linecap="round" stroke-linejoin="round"/>
<path d="M9 12V20" stroke="#3D3D3D" stroke-width="1.5" stroke-linecap="round" stroke-linejoin="round"/>
<path d="M16 13H15.99" stroke="#3D3D3D" stroke-width="1.5" stroke-linecap="round" stroke-linejoin="round"/>
</svg>
