<svg width="24" height="24" viewBox="0 0 24 24" fill="none" xmlns="http://www.w3.org/2000/svg">
<path d="M22 12.5401C20.196 12.1951 19.299 11.4601 18.477 9.6001C17.99 10.2961 17.375 11.1681 17.557 12.0001C17.585 12.2381 17.237 13.0021 17 13.0001H3C3 18.2081 6.164 20.0001 9.196 20.0001C13.32 20.0221 17.024 18.6241 19.05 15.0001C20.196 14.8991 21.346 13.4951 22 12.5401V12.5401Z" stroke="#3D3D3D" stroke-width="1.5" stroke-linecap="round" stroke-linejoin="round"/>
<path d="M5 10H8V13H5V10Z" stroke="#3D3D3D" stroke-width="1.5" stroke-linecap="round" stroke-linejoin="round"/>
<path d="M8 10H11V13H8V10Z" stroke="#3D3D3D" stroke-width="1.5" stroke-linecap="round" stroke-linejoin="round"/>
<path d="M11 10H14V13H11V10Z" stroke="#3D3D3D" stroke-width="1.5" stroke-linecap="round" stroke-linejoin="round"/>
<path d="M8 7H11V10H8V7Z" stroke="#3D3D3D" stroke-width="1.5" stroke-linecap="round" stroke-linejoin="round"/>
<path d="M11 7H14V10H11V7Z" stroke="#3D3D3D" stroke-width="1.5" stroke-linecap="round" stroke-linejoin="round"/>
<path d="M11 4H14V7H11V4Z" stroke="#3D3D3D" stroke-width="1.5" stroke-linecap="round" stroke-linejoin="round"/>
<path d="M4.57104 18C6.07104 18 6.61804 17.926 7.52904 17.22" stroke="#3D3D3D" stroke-width="1.5" stroke-linecap="round" stroke-linejoin="round"/>
<path d="M10 16V16.01" stroke="#3D3D3D" stroke-width="1.5" stroke-linecap="round" stroke-linejoin="round"/>
</svg>
