<svg width="24" height="24" viewBox="0 0 24 24" fill="none" xmlns="http://www.w3.org/2000/svg">
<path d="M3.1001 13C6.3671 13 9.0001 12.833 11.0001 12.5C14.0001 12 15.0001 10.5 15.0001 9C15.0001 8.20435 14.684 7.44129 14.1214 6.87868C13.5588 6.31607 12.7957 6 12.0001 6C11.2044 6 10.4414 6.31607 9.87878 6.87868C9.31617 7.44129 9.0001 8.20435 9.0001 9C9.0001 10.554 10.8071 12.005 12.0001 13C13.1931 13.995 14.0001 15.5 14.0001 16.5C14.0001 16.697 13.9613 16.892 13.8859 17.074C13.8105 17.256 13.7 17.4214 13.5608 17.5607C13.4215 17.6999 13.2561 17.8104 13.0741 17.8858C12.8921 17.9612 12.6971 18 12.5001 18C12.3031 18 12.1081 17.9612 11.9261 17.8858C11.7441 17.8104 11.5787 17.6999 11.4394 17.5607C11.3001 17.4214 11.1897 17.256 11.1143 17.074C11.0389 16.892 11.0001 16.697 11.0001 16.5C11.0001 14.5 15.0001 13 18.0001 13H20.9001" stroke="#3D3D3D" stroke-width="1.5" stroke-linecap="round" stroke-linejoin="round"/>
<path d="M12 21C16.9706 21 21 16.9706 21 12C21 7.02944 16.9706 3 12 3C7.02944 3 3 7.02944 3 12C3 16.9706 7.02944 21 12 21Z" stroke="#3D3D3D" stroke-width="1.5" stroke-linecap="round" stroke-linejoin="round"/>
</svg>
