<svg width="24" height="24" viewBox="0 0 24 24" fill="none" xmlns="http://www.w3.org/2000/svg">
<path d="M17.782 17.0301L14.369 17.2651L14.346 17.2671C13.229 17.3571 12.132 17.6021 11.089 17.9921L8.89197 18.7861C8.42546 18.9546 7.92915 19.0248 7.43421 18.9923C6.93927 18.9597 6.45641 18.8252 6.01597 18.5971C5.58413 18.3763 5.20552 18.0642 4.90643 17.6824C4.60734 17.3006 4.39494 16.8582 4.28397 16.3861L3.07997 11.0931C2.98326 10.666 2.97498 10.2236 3.05564 9.79311C3.1363 9.36265 3.30418 8.95325 3.54897 8.5901C4.05718 7.84039 4.83853 7.31925 5.72597 7.1381L15.569 5.0781C17.439 4.6861 19.285 5.8221 19.693 7.6151L20.92 13.0071C21.0257 13.4742 21.0257 13.959 20.9202 14.4261C20.8147 14.8932 20.6062 15.3308 20.31 15.7071C20.0049 16.0925 19.6222 16.4095 19.1866 16.6374C18.7511 16.8653 18.2725 16.9991 17.782 17.0301V17.0301Z" stroke="#3D3D3D" stroke-width="1.5" stroke-linecap="round" stroke-linejoin="round"/>
<path d="M10 10L10.972 14L15 11L10 10Z" stroke="#3D3D3D" stroke-width="1.5" stroke-linecap="round" stroke-linejoin="round"/>
</svg>
