<svg width="24" height="24" viewBox="0 0 24 24" fill="none" xmlns="http://www.w3.org/2000/svg">
<path d="M17.4639 6.51789C16.9737 5.43913 16.1751 4.52964 15.1688 3.90405C14.1625 3.27846 12.9935 2.96479 11.8092 3.00256C10.6249 3.04034 9.47826 3.42788 8.51386 4.11633C7.54947 4.80478 6.81046 5.76332 6.39001 6.87113C5.96956 7.97894 5.88648 9.18642 6.15123 10.3414C6.41599 11.4963 7.01674 12.5471 7.87775 13.3611C8.73877 14.1752 9.8215 14.7161 10.9895 14.9157C12.1575 15.1154 13.3584 14.9648 14.4409 14.4829" stroke="#3D3D3D" stroke-width="1.5" stroke-linecap="round" stroke-linejoin="round"/>
<path d="M17.4822 17.4639C18.5609 16.9737 19.4704 16.1751 20.096 15.1688C20.7216 14.1625 21.0353 12.9935 20.9975 11.8092C20.9597 10.6249 20.5722 9.47826 19.8837 8.51386C19.1953 7.54947 18.2367 6.81046 17.1289 6.39001C16.0211 5.96956 14.8136 5.88648 13.6587 6.15123C12.5037 6.41599 11.453 7.01674 10.6389 7.87775C9.82489 8.73877 9.28395 9.8215 9.08432 10.9895C8.88469 12.1575 9.0353 13.3584 9.51716 14.4409" stroke="#3D3D3D" stroke-width="1.5" stroke-linecap="round" stroke-linejoin="round"/>
<path d="M6.54004 17.482C7.03016 18.5608 7.82866 19.4703 8.83491 20.096C9.84115 20.7217 11.0101 21.0354 12.1944 20.9978C13.3787 20.9601 14.5253 20.5727 15.4898 19.8843C16.4542 19.196 17.1933 18.2375 17.6139 17.1298C18.0344 16.022 18.1177 14.8146 17.853 13.6596C17.5884 12.5047 16.9878 11.4539 16.1269 10.6397C15.266 9.82557 14.1834 9.2845 13.0155 9.08471C11.8475 8.88491 10.6466 9.03534 9.56404 9.51703" stroke="#3D3D3D" stroke-width="1.5" stroke-linecap="round" stroke-linejoin="round"/>
<path d="M6.51778 6.54004C5.439 7.03016 4.52946 7.82866 3.90381 8.83491C3.27815 9.84115 2.96439 11.0101 3.00206 12.1944C3.03973 13.3787 3.42715 14.5253 4.11549 15.4898C4.80383 16.4542 5.76228 17.1933 6.87002 17.6139C7.97777 18.0344 9.18522 18.1177 10.3402 17.853C11.4952 17.5884 12.5459 16.9878 13.3601 16.1269C14.1742 15.266 14.7153 14.1834 14.9151 13.0155C15.1149 11.8475 14.9645 10.6466 14.4828 9.56404" stroke="#3D3D3D" stroke-width="1.5" stroke-linecap="round" stroke-linejoin="round"/>
</svg>
