<svg width="24" height="24" viewBox="0 0 24 24" fill="none" xmlns="http://www.w3.org/2000/svg">
<path d="M4 7L4.867 19.143C4.90316 19.6474 5.12905 20.1194 5.49921 20.4639C5.86936 20.8085 6.3563 21 6.862 21H17.138C17.6437 21 18.1306 20.8085 18.5008 20.4639C18.871 20.1194 19.0968 19.6474 19.133 19.143L20 7H4Z" stroke="#3D3D3D" stroke-width="1.5" stroke-linecap="round" stroke-linejoin="round"/>
<path d="M8.5 7C8.5 5.347 10 3 12 3C14 3 15.5 5.347 15.5 7" stroke="#3D3D3D" stroke-width="1.5" stroke-linecap="round" stroke-linejoin="round"/>
<path d="M9.5 17C9.913 17.462 10.5 18 12 18C13.5 18 14.5 17.103 14.5 16C14.5 14.897 13.5 14.5 12 14C10.5 13.5 10 12.53 10 12C10 10.896 11 10 12 10C13 10 13.5 10 14.5 11" stroke="#3D3D3D" stroke-width="1.5" stroke-linecap="round" stroke-linejoin="round"/>
</svg>
