<svg width="24" height="24" viewBox="0 0 24 24" fill="none" xmlns="http://www.w3.org/2000/svg">
<path d="M20 4H4C3.44772 4 3 4.44772 3 5V19C3 19.5523 3.44772 20 4 20H20C20.5523 20 21 19.5523 21 19V5C21 4.44772 20.5523 4 20 4Z" stroke="#3D3D3D" stroke-width="1.5" stroke-linecap="round" stroke-linejoin="round"/>
<path d="M7 8V9" stroke="#3D3D3D" stroke-width="1.5" stroke-linecap="round" stroke-linejoin="round"/>
<path d="M17 8V9" stroke="#3D3D3D" stroke-width="1.5" stroke-linecap="round" stroke-linejoin="round"/>
<path d="M12.5 4C11.846 5.486 11.24 7.443 11 13H13.5C13.31 15.867 13.594 18.024 14 20" stroke="#3D3D3D" stroke-width="1.5" stroke-linecap="round" stroke-linejoin="round"/>
<path d="M7 15.5C10.667 17.5 13.333 17.5 17 15.5" stroke="#3D3D3D" stroke-width="1.5" stroke-linecap="round" stroke-linejoin="round"/>
</svg>
