<svg width="24" height="24" viewBox="0 0 24 24" fill="none" xmlns="http://www.w3.org/2000/svg">
<path d="M3 17C3 16.2089 3.2346 15.4355 3.67412 14.7777C4.11365 14.1199 4.73836 13.6072 5.46927 13.3045C6.20017 13.0017 7.00444 12.9225 7.78036 13.0769C8.55629 13.2312 9.26902 13.6122 9.82843 14.1716C10.3878 14.731 10.7688 15.4437 10.9231 16.2196C11.0775 16.9956 10.9983 17.7998 10.6955 18.5307C10.3928 19.2616 9.88008 19.8864 9.22228 20.3259C8.56448 20.7654 7.79113 21 7 21H3V17Z" stroke="#3D3D3D" stroke-width="1.5" stroke-linecap="round" stroke-linejoin="round"/>
<path d="M21 3C17.4585 3.48391 14.1812 5.13999 11.691 7.704M9.89595 9.916C9.2056 10.9414 8.63647 12.0435 8.19995 13.2" stroke="#3D3D3D" stroke-width="1.5" stroke-linecap="round" stroke-linejoin="round"/>
<path d="M21 3C20.5165 6.53802 18.8631 9.81252 16.303 12.302M14.108 14.088C13.0758 14.7856 11.9656 15.3601 10.8 15.8" stroke="#3D3D3D" stroke-width="1.5" stroke-linecap="round" stroke-linejoin="round"/>
<path d="M3 3L21 21" stroke="#3D3D3D" stroke-width="1.5" stroke-linecap="round" stroke-linejoin="round"/>
</svg>
