<svg width="24" height="24" viewBox="0 0 24 24" fill="none" xmlns="http://www.w3.org/2000/svg">
<path d="M4 16V18C4 18.5304 4.21071 19.0391 4.58579 19.4142C4.96086 19.7893 5.46957 20 6 20H8" stroke="#3D3D3D" stroke-width="1.5" stroke-linecap="round" stroke-linejoin="round"/>
<path d="M16 4H18C18.5304 4 19.0391 4.21071 19.4142 4.58579C19.7893 4.96086 20 5.46957 20 6V8" stroke="#3D3D3D" stroke-width="1.5" stroke-linecap="round" stroke-linejoin="round"/>
<path d="M16 19.9999H18C18.554 19.9999 19.055 19.7749 19.417 19.4109" stroke="#3D3D3D" stroke-width="1.5" stroke-linecap="round" stroke-linejoin="round"/>
<path d="M9.86999 9.8871C9.3161 10.4528 9.00828 11.2145 9.01362 12.0062C9.01896 12.7979 9.33702 13.5553 9.89849 14.1135C10.46 14.6717 11.2193 14.9853 12.011 14.9859C12.8027 14.9866 13.5626 14.6743 14.125 14.1171M14.705 10.7011C14.41 10.0889 13.9166 9.59443 13.305 9.2981" stroke="#3D3D3D" stroke-width="1.5" stroke-linecap="round" stroke-linejoin="round"/>
<path d="M4 7.99997V5.99997C4 5.45197 4.22 4.95597 4.577 4.59497" stroke="#3D3D3D" stroke-width="1.5" stroke-linecap="round" stroke-linejoin="round"/>
<path d="M3 3L21 21" stroke="#3D3D3D" stroke-width="1.5" stroke-linecap="round" stroke-linejoin="round"/>
</svg>
