<svg width="24" height="24" viewBox="0 0 24 24" fill="none" xmlns="http://www.w3.org/2000/svg">
<path d="M3 8V16.5C3 17.163 3.26339 17.7989 3.73223 18.2678C4.20107 18.7366 4.83696 19 5.5 19H6.56C7.0098 18.9991 7.45365 18.8971 7.8587 18.7015C8.26374 18.5059 8.61962 18.2217 8.9 17.87L10.44 15.95C10.6274 15.7164 10.8649 15.5279 11.1349 15.3984C11.4049 15.2688 11.7005 15.2016 12 15.2016C12.2995 15.2016 12.5951 15.2688 12.8651 15.3984C13.1351 15.5279 13.3726 15.7164 13.56 15.95L15.1 17.87C15.3804 18.2217 15.7363 18.5059 16.1413 18.7015C16.5464 18.8971 16.9902 18.9991 17.44 19H18.5C19.163 19 19.7989 18.7366 20.2678 18.2678C20.7366 17.7989 21 17.163 21 16.5V8C21 7.46957 20.7893 6.96086 20.4142 6.58579C20.0391 6.21071 19.5304 6 19 6H5C4.46957 6 3.96086 6.21071 3.58579 6.58579C3.21071 6.96086 3 7.46957 3 8V8Z" stroke="#3D3D3D" stroke-width="1.5" stroke-linecap="round" stroke-linejoin="round"/>
<path d="M8 13C8.55228 13 9 12.5523 9 12C9 11.4477 8.55228 11 8 11C7.44772 11 7 11.4477 7 12C7 12.5523 7.44772 13 8 13Z" stroke="#3D3D3D" stroke-width="1.5" stroke-linecap="round" stroke-linejoin="round"/>
<path d="M16 13C16.5523 13 17 12.5523 17 12C17 11.4477 16.5523 11 16 11C15.4477 11 15 11.4477 15 12C15 12.5523 15.4477 13 16 13Z" stroke="#3D3D3D" stroke-width="1.5" stroke-linecap="round" stroke-linejoin="round"/>
</svg>
