<svg width="24" height="24" viewBox="0 0 24 24" fill="none" xmlns="http://www.w3.org/2000/svg">
<path d="M3 19H3.01" stroke="#3D3D3D" stroke-width="1.5" stroke-linecap="round" stroke-linejoin="round"/>
<path d="M7 19C7 17.9391 6.57857 16.9217 5.82843 16.1716C5.07828 15.4214 4.06087 15 3 15" stroke="#3D3D3D" stroke-width="1.5" stroke-linecap="round" stroke-linejoin="round"/>
<path d="M11 19C11 16.8783 10.1571 14.8434 8.65685 13.3431C7.15656 11.8429 5.12173 11 3 11" stroke="#3D3D3D" stroke-width="1.5" stroke-linecap="round" stroke-linejoin="round"/>
<path d="M15 19H18C18.2964 19.0001 18.5913 18.9563 18.875 18.87M20.872 16.868C20.9569 16.5865 21.0001 16.294 21 16V8C21 7.20435 20.6839 6.44129 20.1213 5.87868C19.5587 5.31607 18.7956 5 18 5H8.99995M5.13495 5.136C4.68972 5.2749 4.28301 5.5157 3.94712 5.83927C3.61122 6.16284 3.35539 6.56027 3.19995 7" stroke="#3D3D3D" stroke-width="1.5" stroke-linecap="round" stroke-linejoin="round"/>
<path d="M3 3L21 21" stroke="#3D3D3D" stroke-width="1.5" stroke-linecap="round" stroke-linejoin="round"/>
</svg>
