<svg width="24" height="24" viewBox="0 0 24 24" fill="none" xmlns="http://www.w3.org/2000/svg">
<path d="M8.72 4.71188C9.16497 4.07296 9.78678 3.57782 10.5091 3.28724C11.2315 2.99665 12.0229 2.92326 12.7864 3.07606C13.5499 3.22885 14.2521 3.6012 14.807 4.14741C15.3619 4.69361 15.7452 5.38992 15.91 6.15088C16.9341 5.87373 18.0264 6.01477 18.9466 6.54296C19.8667 7.07116 20.5394 7.94325 20.8165 8.96738C21.0937 9.99151 20.9526 11.0838 20.4244 12.0039C19.8962 12.9241 19.0241 13.5967 18 13.8739V13.9999M18 17.9999V20.9999H6V13.8739C5.12163 13.6602 4.34148 13.1554 3.7866 12.4418C3.23172 11.7281 2.93479 10.8476 2.94419 9.94371C2.95358 9.03977 3.26873 8.16564 3.83832 7.46368C4.40791 6.76171 5.19838 6.27326 6.081 6.07788" stroke="#3D3D3D" stroke-width="1.5" stroke-linecap="round" stroke-linejoin="round"/>
<path d="M6.16101 17.009L17 17" stroke="#3D3D3D" stroke-width="1.5" stroke-linecap="round" stroke-linejoin="round"/>
<path d="M3 3L21 21" stroke="#3D3D3D" stroke-width="1.5" stroke-linecap="round" stroke-linejoin="round"/>
</svg>
