<svg width="24" height="24" viewBox="0 0 24 24" fill="none" xmlns="http://www.w3.org/2000/svg">
<path d="M11.0001 10.9999L7.60312 7.55991C7.21628 7.16642 6.99951 6.63671 6.99951 6.08491C6.99951 5.53312 7.21628 5.00341 7.60312 4.60991C7.79302 4.4164 8.01959 4.26269 8.26959 4.15776C8.51958 4.05282 8.78799 3.99878 9.05911 3.99878C9.33024 3.99878 9.59865 4.05282 9.84864 4.15776C10.0986 4.26269 10.3252 4.4164 10.5151 4.60991L11.0001 4.99991L11.4851 4.60991C11.675 4.4164 11.9016 4.26269 12.1516 4.15776C12.4016 4.05282 12.67 3.99878 12.9411 3.99878C13.2122 3.99878 13.4806 4.05282 13.7306 4.15776C13.9806 4.26269 14.2072 4.4164 14.3971 4.60991C14.7839 5.00341 15.0007 5.53312 15.0007 6.08491C15.0007 6.63671 14.7839 7.16642 14.3971 7.55991L11.0001 10.9999V10.9999Z" stroke="#3D3D3D" stroke-width="1.5" stroke-linecap="round" stroke-linejoin="round"/>
<path d="M11.0001 11L7.60312 14.44C7.21628 14.8335 6.99951 15.3632 6.99951 15.915C6.99951 16.4668 7.21628 16.9965 7.60312 17.39C7.79302 17.5835 8.01959 17.7372 8.26959 17.8422C8.51958 17.9471 8.78799 18.0011 9.05911 18.0011C9.33024 18.0011 9.59865 17.9471 9.84864 17.8422C10.0986 17.7372 10.3252 17.5835 10.5151 17.39L11.0001 17L11.4851 17.39C11.675 17.5835 11.9016 17.7372 12.1516 17.8422C12.4016 17.9471 12.67 18.0011 12.9411 18.0011C13.2122 18.0011 13.4806 17.9471 13.7306 17.8422C13.9806 17.7372 14.2072 17.5835 14.3971 17.39C14.7839 16.9965 15.0007 16.4668 15.0007 15.915C15.0007 15.3632 14.7839 14.8335 14.3971 14.44L11.0001 11V11Z" stroke="#3D3D3D" stroke-width="1.5" stroke-linecap="round" stroke-linejoin="round"/>
<path d="M14.4399 7.60312C14.8334 7.21628 15.3631 6.99951 15.9149 6.99951C16.4667 6.99951 16.9964 7.21628 17.3899 7.60312C17.5835 7.79302 17.7372 8.01959 17.8421 8.26959C17.947 8.51958 18.0011 8.78799 18.0011 9.05911C18.0011 9.33024 17.947 9.59865 17.8421 9.84864C17.7372 10.0986 17.5835 10.3252 17.3899 10.5151L16.9999 11.0001L17.3899 11.4851C17.5835 11.675 17.7372 11.9016 17.8421 12.1516C17.947 12.4016 18.0011 12.67 18.0011 12.9411C18.0011 13.2122 17.947 13.4806 17.8421 13.7306C17.7372 13.9806 17.5835 14.2072 17.3899 14.3971C16.9964 14.7839 16.4667 15.0007 15.9149 15.0007C15.3631 15.0007 14.8334 14.7839 14.4399 14.3971" stroke="#3D3D3D" stroke-width="1.5" stroke-linecap="round" stroke-linejoin="round"/>
<path d="M7.55991 7.60312C7.16642 7.21628 6.63671 6.99951 6.08491 6.99951C5.53312 6.99951 5.00341 7.21628 4.60991 7.60312C4.4164 7.79302 4.26269 8.01959 4.15776 8.26959C4.05282 8.51958 3.99878 8.78799 3.99878 9.05911C3.99878 9.33024 4.05282 9.59865 4.15776 9.84864C4.26269 10.0986 4.4164 10.3252 4.60991 10.5151L4.99991 11.0001L4.60991 11.4851C4.4164 11.675 4.26269 11.9016 4.15776 12.1516C4.05282 12.4016 3.99878 12.67 3.99878 12.9411C3.99878 13.2122 4.05282 13.4806 4.15776 13.7306C4.26269 13.9806 4.4164 14.2072 4.60991 14.3971C5.00341 14.7839 5.53312 15.0007 6.08491 15.0007C6.63671 15.0007 7.16642 14.7839 7.55991 14.3971" stroke="#3D3D3D" stroke-width="1.5" stroke-linecap="round" stroke-linejoin="round"/>
<path d="M15 15L21 21" stroke="#3D3D3D" stroke-width="1.5" stroke-linecap="round" stroke-linejoin="round"/>
</svg>
