<svg width="24" height="24" viewBox="0 0 24 24" fill="none" xmlns="http://www.w3.org/2000/svg">
<path d="M20 4V4.01" stroke="#3D3D3D" stroke-width="1.5" stroke-linecap="round" stroke-linejoin="round"/>
<path d="M20 20V20.01" stroke="#3D3D3D" stroke-width="1.5" stroke-linecap="round" stroke-linejoin="round"/>
<path d="M20 16V16.01" stroke="#3D3D3D" stroke-width="1.5" stroke-linecap="round" stroke-linejoin="round"/>
<path d="M20 12V12.01" stroke="#3D3D3D" stroke-width="1.5" stroke-linecap="round" stroke-linejoin="round"/>
<path d="M20 8V8.01" stroke="#3D3D3D" stroke-width="1.5" stroke-linecap="round" stroke-linejoin="round"/>
<path d="M15 4H9C8.44772 4 8 4.44772 8 5V19C8 19.5523 8.44772 20 9 20H15C15.5523 20 16 19.5523 16 19V5C16 4.44772 15.5523 4 15 4Z" stroke="#3D3D3D" stroke-width="1.5" stroke-linecap="round" stroke-linejoin="round"/>
<path d="M4 4V4.01" stroke="#3D3D3D" stroke-width="1.5" stroke-linecap="round" stroke-linejoin="round"/>
<path d="M4 20V20.01" stroke="#3D3D3D" stroke-width="1.5" stroke-linecap="round" stroke-linejoin="round"/>
<path d="M4 16V16.01" stroke="#3D3D3D" stroke-width="1.5" stroke-linecap="round" stroke-linejoin="round"/>
<path d="M4 12V12.01" stroke="#3D3D3D" stroke-width="1.5" stroke-linecap="round" stroke-linejoin="round"/>
<path d="M4 8V8.01" stroke="#3D3D3D" stroke-width="1.5" stroke-linecap="round" stroke-linejoin="round"/>
</svg>
