<svg width="24" height="24" viewBox="0 0 24 24" fill="none" xmlns="http://www.w3.org/2000/svg">
<path d="M7 7H4C3.73478 7 3.48043 6.89464 3.29289 6.70711C3.10536 6.51957 3 6.26522 3 6V4C3 3.725 3.11 3.477 3.29 3.296M7 3H20C20.2652 3 20.5196 3.10536 20.7071 3.29289C20.8946 3.48043 21 3.73478 21 4V6C21 6.26522 20.8946 6.51957 20.7071 6.70711C20.5196 6.89464 20.2652 7 20 7H11" stroke="#3D3D3D" stroke-width="1.5" stroke-linecap="round" stroke-linejoin="round"/>
<path d="M10.36 10.3501C9.77005 10.6158 9.25333 11.0206 8.8542 11.5299C8.45506 12.0391 8.18541 12.6376 8.0684 13.274C7.95138 13.9103 7.99049 14.5656 8.18236 15.1835C8.37423 15.8014 8.71314 16.3636 9.17001 16.8218C9.62688 17.2799 10.1881 17.6204 10.8055 17.8141C11.4229 18.0077 12.078 18.0486 12.7147 17.9334C13.3514 17.8182 13.9506 17.5503 14.461 17.1526C14.9714 16.7549 15.3777 16.2393 15.645 15.6501" stroke="#3D3D3D" stroke-width="1.5" stroke-linecap="round" stroke-linejoin="round"/>
<path d="M19 7V14C19 14.321 18.978 14.637 18.936 14.947M17.841 17.86C17.0115 19.1159 15.7993 20.071 14.3842 20.5837C12.969 21.0963 11.4263 21.1392 9.9849 20.7059C8.54348 20.2726 7.28011 19.3862 6.38217 18.1783C5.48423 16.9703 4.99955 15.5051 5.00002 14L4.99902 7" stroke="#3D3D3D" stroke-width="1.5" stroke-linecap="round" stroke-linejoin="round"/>
<path d="M12 14H12.01" stroke="#3D3D3D" stroke-width="1.5" stroke-linecap="round" stroke-linejoin="round"/>
<path d="M3 3L21 21" stroke="#3D3D3D" stroke-width="1.5" stroke-linecap="round" stroke-linejoin="round"/>
</svg>
