<svg width="24" height="24" viewBox="0 0 24 24" fill="none" xmlns="http://www.w3.org/2000/svg">
<path d="M6 9.99993C5.99915 8.92081 6.2478 7.85611 6.72652 6.88899C7.20525 5.92187 7.9011 5.07853 8.7597 4.42484C9.6183 3.77116 10.6164 3.32483 11.676 3.12073C12.7357 2.91663 13.8282 2.96028 14.8682 3.24827C15.9081 3.53627 16.8674 4.06081 17.6712 4.78091C18.4749 5.50102 19.1012 6.39719 19.5012 7.39942C19.9013 8.40166 20.0642 9.48281 19.9772 10.5584C19.8903 11.634 19.5558 12.675 19 13.5999C18.4315 14.358 17.7581 15.0314 17 15.5999C16.1137 16.4347 15.4297 17.4608 15 18.5999C14.6897 19.1864 14.2535 19.6969 13.7228 20.095C13.192 20.4931 12.5798 20.769 11.93 20.9028C11.2802 21.0365 10.6088 21.025 9.96393 20.8689C9.31908 20.7128 8.71673 20.4161 8.2 19.9999" stroke="#3D3D3D" stroke-width="1.5" stroke-linecap="round" stroke-linejoin="round"/>
<path d="M10.0002 9.99999C9.99421 9.4981 10.1142 9.00272 10.3493 8.55924C10.5843 8.11575 10.9269 7.73832 11.3456 7.46153C11.7643 7.18473 12.2458 7.01741 12.7459 6.97489C13.246 6.93238 13.7488 7.01602 14.2082 7.21817C14.6676 7.42031 15.069 7.73449 15.3755 8.13194C15.6821 8.52939 15.884 8.99739 15.9628 9.49309C16.0416 9.98879 15.9948 10.4963 15.8266 10.9693C15.6584 11.4422 15.3743 11.8653 15.0002 12.2" stroke="#3D3D3D" stroke-width="1.5" stroke-linecap="round" stroke-linejoin="round"/>
</svg>
