<svg width="24" height="24" viewBox="0 0 24 24" fill="none" xmlns="http://www.w3.org/2000/svg">
<path d="M10.507 10.4981L9 12.0001V15.0001H12L13.493 13.5021M15.495 11.4921L20.385 6.58511C20.7788 6.19126 21.0001 5.65709 21.0001 5.10011C21.0001 4.54312 20.7788 4.00895 20.385 3.61511C19.9912 3.22126 19.457 3 18.9 3C18.343 3 17.8088 3.22126 17.415 3.61511L12.502 8.51111" stroke="#3D3D3D" stroke-width="1.5" stroke-linecap="round" stroke-linejoin="round"/>
<path d="M16 5L19 8" stroke="#3D3D3D" stroke-width="1.5" stroke-linecap="round" stroke-linejoin="round"/>
<path d="M7.47581 7.47095C5.95417 8.06193 4.68682 9.16599 3.89285 10.5923C3.09888 12.0185 2.82819 13.6774 3.12756 15.2821C3.42694 16.8868 4.27757 18.3365 5.53241 19.3805C6.78725 20.4246 8.36744 20.9974 9.99981 20.9999C11.4125 20.9997 12.7921 20.5723 13.9575 19.7739C15.1228 18.9754 16.0195 17.8432 16.5298 16.5259" stroke="#3D3D3D" stroke-width="1.5" stroke-linecap="round" stroke-linejoin="round"/>
<path d="M3 3L21 21" stroke="#3D3D3D" stroke-width="1.5" stroke-linecap="round" stroke-linejoin="round"/>
</svg>
