<svg width="24" height="24" viewBox="0 0 24 24" fill="none" xmlns="http://www.w3.org/2000/svg">
<path d="M12 15.0001L20.385 6.58511C20.7788 6.19126 21.0001 5.65709 21.0001 5.10011C21.0001 4.54312 20.7788 4.00895 20.385 3.61511C19.9912 3.22126 19.457 3 18.9 3C18.343 3 17.8088 3.22126 17.415 3.61511L9 12.0001V15.0001H12Z" stroke="#3D3D3D" stroke-width="1.5" stroke-linecap="round" stroke-linejoin="round"/>
<path d="M16 5L19 8" stroke="#3D3D3D" stroke-width="1.5" stroke-linecap="round" stroke-linejoin="round"/>
<path d="M9.00001 7.07007C7.25106 7.32635 5.66374 8.23463 4.55665 9.61263C3.44955 10.9906 2.9046 12.7364 3.03117 14.4995C3.15774 16.2625 3.94646 17.9125 5.23903 19.1183C6.53161 20.324 8.23238 20.9962 10 21.0001C11.6831 20.9999 13.3099 20.3934 14.5824 19.2917C15.8549 18.19 16.6879 16.6668 16.929 15.0011" stroke="#3D3D3D" stroke-width="1.5" stroke-linecap="round" stroke-linejoin="round"/>
</svg>
