<svg width="24" height="24" viewBox="0 0 24 24" fill="none" xmlns="http://www.w3.org/2000/svg">
<path d="M15.536 17.586C15.1412 17.2098 14.6168 17 14.0715 17C13.5262 17 13.0018 17.2098 12.607 17.586C12.4153 17.7683 12.2626 17.9876 12.1583 18.2307C12.054 18.4737 12.0002 18.7355 12.0002 19C12.0002 19.2645 12.054 19.5263 12.1583 19.7693C12.2626 20.0124 12.4153 20.2317 12.607 20.414C13.416 21.195 14.727 21.195 15.536 20.414C16.345 19.633 14.731 21.192 15.54 20.411L17 19.001L18.46 17.582" stroke="#3D3D3D" stroke-width="1.5" stroke-linecap="round" stroke-linejoin="round"/>
<path d="M15.54 17.582L17 19.002L18.46 20.412C19.269 21.192 17.655 19.633 18.464 20.414C19.273 21.195 20.584 21.195 21.393 20.414C21.5847 20.2317 21.7374 20.0124 21.8417 19.7693C21.946 19.5263 21.9998 19.2645 21.9998 19C21.9998 18.7355 21.946 18.4737 21.8417 18.2307C21.7374 17.9876 21.5847 17.7683 21.393 17.586C20.9982 17.2098 20.4738 17 19.9285 17C19.3832 17 18.8588 17.2098 18.464 17.586" stroke="#3D3D3D" stroke-width="1.5" stroke-linecap="round" stroke-linejoin="round"/>
<path d="M14 3V7C14 7.26522 14.1054 7.51957 14.2929 7.70711C14.4804 7.89464 14.7348 8 15 8H19" stroke="#3D3D3D" stroke-width="1.5" stroke-linecap="round" stroke-linejoin="round"/>
<path d="M9.5 21H7C6.46957 21 5.96086 20.7893 5.58579 20.4142C5.21071 20.0391 5 19.5304 5 19V5C5 4.46957 5.21071 3.96086 5.58579 3.58579C5.96086 3.21071 6.46957 3 7 3H14L19 8V14" stroke="#3D3D3D" stroke-width="1.5" stroke-linecap="round" stroke-linejoin="round"/>
</svg>
