<svg width="24" height="24" viewBox="0 0 24 24" fill="none" xmlns="http://www.w3.org/2000/svg">
<path d="M12 15C13.6569 15 15 13.6569 15 12C15 10.3431 13.6569 9 12 9C10.3431 9 9 10.3431 9 12C9 13.6569 10.3431 15 12 15Z" stroke="#3D3D3D" stroke-width="1.5" stroke-linecap="round" stroke-linejoin="round"/>
<path d="M12 2C12.7956 2 13.5587 2.31607 14.1213 2.87868C14.6839 3.44129 15 4.20435 15 5C15 5.562 14.741 6.442 14.224 7.64L13.5 9L15.26 7.107C15.759 6.507 16.182 6.105 16.53 5.902C16.869 5.70519 17.2435 5.57747 17.6321 5.52621C18.0207 5.47495 18.4156 5.50116 18.794 5.60334C19.1724 5.70552 19.5268 5.88163 19.8368 6.12152C20.1468 6.36141 20.4062 6.66032 20.6 7.001C20.9955 7.68975 21.1029 8.50687 20.8987 9.27442C20.6946 10.042 20.1954 10.6978 19.51 11.099C19.136 11.316 18.52 11.495 17.664 11.634L15 12L17.4 12.326C18.395 12.471 19.098 12.663 19.51 12.902C20.1954 13.3032 20.6946 13.959 20.8987 14.7266C21.1029 15.4941 20.9955 16.3113 20.6 17C20.4061 17.3406 20.1466 17.6394 19.8366 17.8792C19.5266 18.119 19.1722 18.295 18.7938 18.3971C18.4154 18.4992 18.0205 18.5253 17.632 18.474C17.2434 18.4226 16.8689 18.2949 16.53 18.098C16.182 17.896 15.759 17.494 15.26 16.893L13.5 15L14.224 16.36C14.74 17.559 15 18.439 15 19C15 19.7956 14.6839 20.5587 14.1213 21.1213C13.5587 21.6839 12.7956 22 12 22C11.2043 22 10.4413 21.6839 9.87867 21.1213C9.31606 20.5587 8.99999 19.7956 8.99999 19C8.99999 18.438 9.25899 17.558 9.77599 16.36L10.5 15L8.73999 16.893C8.24099 17.494 7.81799 17.896 7.46999 18.098C7.13109 18.2949 6.75655 18.4226 6.36801 18.474C5.97946 18.5253 5.58459 18.4992 5.20619 18.3971C4.8278 18.295 4.47336 18.119 4.16336 17.8792C3.85335 17.6394 3.5939 17.3406 3.39999 17C3.00446 16.3113 2.89709 15.4941 3.10124 14.7266C3.3054 13.959 3.80455 13.3032 4.48999 12.902C4.86399 12.684 5.47999 12.506 6.33599 12.366L8.99999 12L6.59999 11.675C5.60499 11.53 4.90199 11.338 4.48999 11.099C3.80428 10.6978 3.30494 10.0418 3.10077 9.27399C2.8966 8.5062 3.00415 7.68884 3.39999 7C3.59382 6.65932 3.8532 6.36041 4.16317 6.12052C4.47314 5.88063 4.82756 5.70452 5.20596 5.60234C5.58437 5.50016 5.97926 5.47395 6.36785 5.52521C6.75644 5.57647 7.13103 5.70419 7.46999 5.901C7.81799 6.104 8.24099 6.505 8.73999 7.106L10.5 9C9.49999 6.708 8.99999 5.375 8.99999 5C8.99999 4.20435 9.31606 3.44129 9.87867 2.87868C10.4413 2.31607 11.2043 2 12 2V2Z" stroke="#3D3D3D" stroke-width="1.5" stroke-linecap="round" stroke-linejoin="round"/>
</svg>
