<svg width="24" height="24" viewBox="0 0 24 24" fill="none" xmlns="http://www.w3.org/2000/svg">
<path d="M18 5H6C4.34315 5 3 6.34315 3 8V16C3 17.6569 4.34315 19 6 19H18C19.6569 19 21 17.6569 21 16V8C21 6.34315 19.6569 5 18 5Z" stroke="#3D3D3D" stroke-width="1.5" stroke-linecap="round" stroke-linejoin="round"/>
<path d="M7 16L10 13L13 16" stroke="#3D3D3D" stroke-width="1.5" stroke-linecap="round" stroke-linejoin="round"/>
<path d="M8 12.9998C7.211 12.9998 6 12.3278 6 11.4998C6 10.6718 6.711 9.99976 7.5 9.99976C8.628 9.97976 9.577 11.1698 10 12.9998C10.423 11.1698 11.372 9.97976 12.5 9.99976C13.289 9.99976 14 10.6718 14 11.4998C14 12.3278 12.789 12.9998 12 12.9998H8Z" stroke="#3D3D3D" stroke-width="1.5" stroke-linecap="round" stroke-linejoin="round"/>
</svg>
