<svg width="24" height="24" viewBox="0 0 24 24" fill="none" xmlns="http://www.w3.org/2000/svg">
<path d="M14.0171 18.0012L12.0001 20.0002L4.50006 12.5722C4.00536 12.0908 3.6157 11.5122 3.3556 10.8728C3.09551 10.2334 2.97062 9.54713 2.98879 8.85711C3.00697 8.16709 3.16782 7.48831 3.46121 6.86351C3.75461 6.23871 4.17419 5.68143 4.69354 5.22676C5.21289 4.77208 5.82076 4.42987 6.47887 4.22166C7.13697 4.01345 7.83106 3.94376 8.51743 4.01698C9.20379 4.0902 9.86756 4.30473 10.4669 4.64708C11.0663 4.98943 11.5883 5.45218 12.0001 6.00618C12.7823 4.96471 13.9401 4.26962 15.2271 4.06883C16.5141 3.86803 17.8286 4.17739 18.891 4.93105C19.9533 5.68472 20.6796 6.8232 20.9153 8.10424C21.1511 9.38527 20.8776 10.7077 20.1531 11.7902" stroke="#3D3D3D" stroke-width="1.5" stroke-linecap="round" stroke-linejoin="round"/>
<path d="M15.99 20.0002L20.187 15.7772C20.7069 15.2521 20.999 14.5434 21.0002 13.8045C21.0013 13.0655 20.7113 12.3559 20.193 11.8292C19.938 11.5699 19.6339 11.3638 19.2986 11.2229C18.9632 11.082 18.6032 11.0091 18.2395 11.0085C17.8757 11.0078 17.5155 11.0794 17.1796 11.2191C16.8438 11.3588 16.539 11.5638 16.283 11.8222L16.003 12.1042L15.724 11.8212C15.469 11.5619 15.1649 11.3558 14.8296 11.2149C14.4942 11.074 14.1342 11.0011 13.7705 11.0005C13.4067 10.9998 13.0465 11.0714 12.7106 11.2111C12.3748 11.3508 12.07 11.5558 11.814 11.8142C11.294 12.3392 11.0017 13.0479 11.0004 13.7868C10.9991 14.5257 11.2889 15.2354 11.807 15.7622L15.989 20.0002H15.99Z" stroke="#3D3D3D" stroke-width="1.5" stroke-linecap="round" stroke-linejoin="round"/>
</svg>
