<svg width="24" height="24" viewBox="0 0 24 24" fill="none" xmlns="http://www.w3.org/2000/svg">
<path d="M8.998 9.00181L3 14.9998V18.9998H7L13 12.9998M14.997 11.0028L17.5 8.49981C18.0304 7.96938 18.3284 7.24996 18.3284 6.49981C18.3284 5.74967 18.0304 5.03025 17.5 4.49981C16.9696 3.96938 16.2501 3.67139 15.5 3.67139C14.7499 3.67139 14.0304 3.96938 13.5 4.49981L11.003 6.99681" stroke="#3D3D3D" stroke-width="1.5" stroke-linecap="round" stroke-linejoin="round"/>
<path d="M12.5 5.5L16.5 9.5" stroke="#3D3D3D" stroke-width="1.5" stroke-linecap="round" stroke-linejoin="round"/>
<path d="M4.5 13.5L8.5 17.5" stroke="#3D3D3D" stroke-width="1.5" stroke-linecap="round" stroke-linejoin="round"/>
<path d="M19 15H21V17M19 19H13L16.004 15.996" stroke="#3D3D3D" stroke-width="1.5" stroke-linecap="round" stroke-linejoin="round"/>
<path d="M3 3L21 21" stroke="#3D3D3D" stroke-width="1.5" stroke-linecap="round" stroke-linejoin="round"/>
</svg>
