<svg width="24" height="24" viewBox="0 0 24 24" fill="none" xmlns="http://www.w3.org/2000/svg">
<path d="M8.16499 8.17376C7.56711 7.99112 6.93473 7.95124 6.31864 8.05731C5.70255 8.16338 5.11992 8.41246 4.61754 8.78452C4.11516 9.15659 3.70704 9.64129 3.42594 10.1997C3.14485 10.7581 2.99862 11.3746 2.99899 11.9998C2.99896 12.791 3.23358 13.5644 3.67317 14.2223C4.11275 14.8801 4.73756 15.3928 5.46857 15.6956C6.19957 15.9983 7.00393 16.0774 7.77992 15.9229C8.5559 15.7685 9.26864 15.3873 9.82799 14.8278C10.7156 14.0228 11.4513 13.0649 12 11.9998M13.677 9.65276C13.8364 9.48678 14.0015 9.32635 14.172 9.17176C14.5639 8.77931 15.033 8.47263 15.5498 8.27121C16.0665 8.06978 16.6194 7.978 17.1735 8.0017C17.7276 8.0254 18.2707 8.16407 18.7683 8.40888C19.2659 8.6537 19.7072 8.99933 20.0641 9.42381C20.4211 9.84829 20.6858 10.3423 20.8416 10.8746C20.9973 11.4069 21.0407 11.9657 20.9689 12.5157C20.8972 13.0656 20.7118 13.5946 20.4247 14.069C20.1376 14.5435 19.7549 14.9531 19.301 15.2718M15.78 15.8088C15.1734 15.6146 14.6221 15.2783 14.172 14.8278C13.2844 14.0228 12.5487 13.0649 12 11.9998" stroke="#3D3D3D" stroke-width="1.5" stroke-linecap="round" stroke-linejoin="round"/>
<path d="M3 3L21 21" stroke="#3D3D3D" stroke-width="1.5" stroke-linecap="round" stroke-linejoin="round"/>
</svg>
