<svg width="24" height="24" viewBox="0 0 24 24" fill="none" xmlns="http://www.w3.org/2000/svg">
<path d="M9 4H16.459C17.1691 4.00005 17.8562 4.25202 18.3981 4.71107C18.9399 5.17013 19.3013 5.80651 19.418 6.507L19.995 9.971L20.805 14.836C20.8484 15.0973 20.7863 15.3652 20.6324 15.5808C20.4785 15.7964 20.2453 15.9422 19.984 15.986" stroke="#3D3D3D" stroke-width="1.5" stroke-linecap="round" stroke-linejoin="round"/>
<path d="M16 16H3C2.99998 14.3069 3.61352 12.6712 4.72699 11.3957C5.84045 10.1203 7.3784 9.29152 9.056 9.06299" stroke="#3D3D3D" stroke-width="1.5" stroke-linecap="round" stroke-linejoin="round"/>
<path d="M13 9H19.8" stroke="#3D3D3D" stroke-width="1.5" stroke-linecap="round" stroke-linejoin="round"/>
<path d="M12 19V21" stroke="#3D3D3D" stroke-width="1.5" stroke-linecap="round" stroke-linejoin="round"/>
<path d="M8 19L7 21" stroke="#3D3D3D" stroke-width="1.5" stroke-linecap="round" stroke-linejoin="round"/>
<path d="M16 19L17 21" stroke="#3D3D3D" stroke-width="1.5" stroke-linecap="round" stroke-linejoin="round"/>
<path d="M3 3L21 21" stroke="#3D3D3D" stroke-width="1.5" stroke-linecap="round" stroke-linejoin="round"/>
</svg>
