<svg width="24" height="24" viewBox="0 0 24 24" fill="none" xmlns="http://www.w3.org/2000/svg">
<path d="M4 4H10" stroke="#3D3D3D" stroke-width="1.5" stroke-linecap="round" stroke-linejoin="round"/>
<path d="M14 4H20" stroke="#3D3D3D" stroke-width="1.5" stroke-linecap="round" stroke-linejoin="round"/>
<path d="M8 8H6C4.89543 8 4 8.89543 4 10V18C4 19.1046 4.89543 20 6 20H8C9.10457 20 10 19.1046 10 18V10C10 8.89543 9.10457 8 8 8Z" stroke="#3D3D3D" stroke-width="1.5" stroke-linecap="round" stroke-linejoin="round"/>
<path d="M18 8H16C14.8954 8 14 8.89543 14 10V12C14 13.1046 14.8954 14 16 14H18C19.1046 14 20 13.1046 20 12V10C20 8.89543 19.1046 8 18 8Z" stroke="#3D3D3D" stroke-width="1.5" stroke-linecap="round" stroke-linejoin="round"/>
</svg>
