<svg width="24" height="24" viewBox="0 0 24 24" fill="none" xmlns="http://www.w3.org/2000/svg">
<path d="M10 13.9998C10.5746 14.5864 11.3372 14.9523 12.1544 15.0335C12.9715 15.1147 13.7912 14.9059 14.47 14.4438M16.495 12.5038C17.052 11.9478 17.887 11.1138 19 9.9998C19.6454 9.33314 20.0028 8.43952 19.9953 7.51169C19.9878 6.58386 19.6158 5.69616 18.9597 5.04007C18.3036 4.38397 17.4159 4.01204 16.4881 4.00451C15.5603 3.99698 14.6667 4.35444 14 4.9998L13.5 5.4998" stroke="#3D3D3D" stroke-width="1.5" stroke-linecap="round" stroke-linejoin="round"/>
<path d="M9.5478 9.54395C9.35009 9.6769 9.16647 9.82969 8.9998 9.99995L4.9998 13.9999C4.35444 14.6666 3.99698 15.5602 4.00451 16.4881C4.01204 17.4159 4.38397 18.3036 5.04007 18.9597C5.69616 19.6158 6.58386 19.9877 7.51169 19.9952C8.43952 20.0028 9.33314 19.6453 9.9998 18.9999L10.4998 18.4999" stroke="#3D3D3D" stroke-width="1.5" stroke-linecap="round" stroke-linejoin="round"/>
<path d="M3 3L21 21" stroke="#3D3D3D" stroke-width="1.5" stroke-linecap="round" stroke-linejoin="round"/>
<path d="M3 3L21 21" stroke="#3D3D3D" stroke-width="1.5" stroke-linecap="round" stroke-linejoin="round"/>
</svg>
