<svg width="24" height="24" viewBox="0 0 24 24" fill="none" xmlns="http://www.w3.org/2000/svg">
<path d="M3 7H6" stroke="#3D3D3D" stroke-width="1.5" stroke-linecap="round" stroke-linejoin="round"/>
<path d="M3 11H5" stroke="#3D3D3D" stroke-width="1.5" stroke-linecap="round" stroke-linejoin="round"/>
<path d="M9.02008 8.801L8.42008 14.801C8.39228 15.079 8.42304 15.3598 8.51039 15.6252C8.59774 15.8906 8.73974 16.1348 8.92723 16.342C9.11472 16.5492 9.34354 16.7148 9.59894 16.8281C9.85434 16.9414 10.1307 17 10.4101 17H18.3901C18.886 17 19.3643 16.8157 19.732 16.4829C20.0998 16.1501 20.3307 15.6925 20.3801 15.199L20.9801 9.199C21.0079 8.92097 20.9771 8.64019 20.8898 8.37478C20.8024 8.10936 20.6604 7.86519 20.4729 7.65801C20.2854 7.45083 20.0566 7.28524 19.8012 7.17191C19.5458 7.05857 19.2695 7.00001 18.9901 7H11.0101C10.5141 7.00002 10.0358 7.18432 9.66811 7.51712C9.30039 7.84993 9.06943 8.30749 9.02008 8.801Z" stroke="#3D3D3D" stroke-width="1.5" stroke-linecap="round" stroke-linejoin="round"/>
<path d="M9.80005 7.5L12.782 10.78C13.047 11.0715 13.3669 11.308 13.7233 11.476C14.0797 11.6439 14.4657 11.74 14.8592 11.7588C15.2528 11.7775 15.6461 11.7186 16.0169 11.5853C16.3876 11.452 16.7285 11.247 17.02 10.982L20.3 8" stroke="#3D3D3D" stroke-width="1.5" stroke-linecap="round" stroke-linejoin="round"/>
</svg>
