<svg width="24" height="24" viewBox="0 0 24 24" fill="none" xmlns="http://www.w3.org/2000/svg">
<path d="M9 5H17C17.7956 5 18.5587 5.31607 19.1213 5.87868C19.6839 6.44129 20 7.20435 20 8V14C20.0014 14.5518 19.849 15.093 19.56 15.563M17 17H15L12 20L9 17H7C6.20435 17 5.44129 16.6839 4.87868 16.1213C4.31607 15.5587 4 14.7956 4 14V8C4 6.908 4.584 5.951 5.457 5.427" stroke="#3D3D3D" stroke-width="1.5" stroke-linecap="round" stroke-linejoin="round"/>
<path d="M8 9H9M13 9H16" stroke="#3D3D3D" stroke-width="1.5" stroke-linecap="round" stroke-linejoin="round"/>
<path d="M8 13H13" stroke="#3D3D3D" stroke-width="1.5" stroke-linecap="round" stroke-linejoin="round"/>
<path d="M3 3L21 21" stroke="#3D3D3D" stroke-width="1.5" stroke-linecap="round" stroke-linejoin="round"/>
</svg>
