<svg width="24" height="24" viewBox="0 0 24 24" fill="none" xmlns="http://www.w3.org/2000/svg">
<path d="M17 17V19C17 19.5304 16.7893 20.0391 16.4142 20.4142C16.0391 20.7893 15.5304 21 15 21H9C8.46957 21 7.96086 20.7893 7.58579 20.4142C7.21071 20.0391 7 19.5304 7 19V15H15" stroke="#3D3D3D" stroke-width="1.5" stroke-linecap="round" stroke-linejoin="round"/>
<path d="M11.9 7.908C11.6791 6.71742 11.1035 5.62141 10.2487 4.76375C9.39392 3.9061 8.29984 3.32685 7.11 3.102M3 3V5C3 6.5913 3.63214 8.11742 4.75736 9.24264C5.88258 10.3679 7.4087 11 9 11H11" stroke="#3D3D3D" stroke-width="1.5" stroke-linecap="round" stroke-linejoin="round"/>
<path d="M12.531 8.528C13.0067 7.47623 13.7757 6.58397 14.7457 5.95822C15.7157 5.33246 16.8457 4.99976 18 5H21V6C20.9998 7.4244 20.493 8.80229 19.5702 9.88737C18.6475 10.9724 17.3689 11.694 15.963 11.923" stroke="#3D3D3D" stroke-width="1.5" stroke-linecap="round" stroke-linejoin="round"/>
<path d="M12 15V12" stroke="#3D3D3D" stroke-width="1.5" stroke-linecap="round" stroke-linejoin="round"/>
<path d="M3 3L21 21" stroke="#3D3D3D" stroke-width="1.5" stroke-linecap="round" stroke-linejoin="round"/>
</svg>
