<svg width="24" height="24" viewBox="0 0 24 24" fill="none" xmlns="http://www.w3.org/2000/svg">
<path d="M2 9C2 14.523 6.477 19 12 19C13.9219 19.0032 15.8037 18.45 17.418 17.407M19.555 15.552C21.1351 13.7353 22.0036 11.4077 22 9" stroke="#3D3D3D" stroke-width="1.5" stroke-linecap="round" stroke-linejoin="round"/>
<path d="M12 19C12 17.012 12.58 15.16 13.58 13.603M15.458 11.436C17.2734 9.86146 19.5969 8.99629 22 9.00001" stroke="#3D3D3D" stroke-width="1.5" stroke-linecap="round" stroke-linejoin="round"/>
<path d="M2 9C3.31322 9 4.61358 9.25866 5.82683 9.7612C7.04009 10.2638 8.14248 11.0003 9.07107 11.9289C9.99965 12.8575 10.7362 13.9599 11.2388 15.1732C11.7413 16.3864 12 17.6868 12 19" stroke="#3D3D3D" stroke-width="1.5" stroke-linecap="round" stroke-linejoin="round"/>
<path d="M12 4C12.9484 4.90538 13.7034 5.99363 14.2194 7.199C14.7353 8.40437 15.0016 9.70184 15.002 11.013" stroke="#3D3D3D" stroke-width="1.5" stroke-linecap="round" stroke-linejoin="round"/>
<path d="M9.01012 11.5C8.97134 10.7236 9.02606 9.94534 9.17312 9.182M10.2551 6.24C10.7237 5.41175 11.3117 4.65699 12.0001 4" stroke="#3D3D3D" stroke-width="1.5" stroke-linecap="round" stroke-linejoin="round"/>
<path d="M3 3L21 21" stroke="#3D3D3D" stroke-width="1.5" stroke-linecap="round" stroke-linejoin="round"/>
</svg>
