<svg width="24" height="24" viewBox="0 0 24 24" fill="none" xmlns="http://www.w3.org/2000/svg">
<path d="M9.78508 6L18.0001 14.215L15.9461 16.269C15.4106 16.8259 14.7695 17.2704 14.0601 17.5765C13.3508 17.8827 12.5875 18.0442 11.815 18.0518C11.0424 18.0594 10.2762 17.9128 9.56096 17.6207C8.84575 17.3285 8.196 16.8967 7.64971 16.3504C7.10342 15.8041 6.67157 15.1543 6.37942 14.4391C6.08727 13.7239 5.9407 12.9576 5.94828 12.1851C5.95585 11.4126 6.11743 10.6493 6.42355 9.93997C6.72967 9.23063 7.17418 8.58947 7.73108 8.054L9.78508 6V6Z" stroke="#3D3D3D" stroke-width="1.5" stroke-linecap="round" stroke-linejoin="round"/>
<path d="M4 20L7.5 16.5" stroke="#3D3D3D" stroke-width="1.5" stroke-linecap="round" stroke-linejoin="round"/>
<path d="M15 4L11.5 7.5" stroke="#3D3D3D" stroke-width="1.5" stroke-linecap="round" stroke-linejoin="round"/>
<path d="M20 9L16.5 12.5" stroke="#3D3D3D" stroke-width="1.5" stroke-linecap="round" stroke-linejoin="round"/>
</svg>
