<svg width="24" height="24" viewBox="0 0 24 24" fill="none" xmlns="http://www.w3.org/2000/svg">
<path d="M13.5499 17.733C12.8011 17.9687 12.0123 18.0501 11.2312 17.9724C10.4501 17.8946 9.6928 17.6592 9.00521 17.2804C8.31762 16.9017 7.71398 16.3874 7.23077 15.7688C6.74757 15.1501 6.39485 14.4399 6.19392 13.681C5.9313 12.6908 5.93515 11.6488 6.20508 10.6606C6.475 9.67243 7.0014 8.77317 7.73092 8.054L9.78492 6L16.9499 13.165" stroke="#3D3D3D" stroke-width="1.5" stroke-linecap="round" stroke-linejoin="round"/>
<path d="M4 20L7.5 16.5" stroke="#3D3D3D" stroke-width="1.5" stroke-linecap="round" stroke-linejoin="round"/>
<path d="M15 4L11.5 7.5" stroke="#3D3D3D" stroke-width="1.5" stroke-linecap="round" stroke-linejoin="round"/>
<path d="M20 9L16.5 12.5" stroke="#3D3D3D" stroke-width="1.5" stroke-linecap="round" stroke-linejoin="round"/>
<path d="M16 16L20 20" stroke="#3D3D3D" stroke-width="1.5" stroke-linecap="round" stroke-linejoin="round"/>
<path d="M20 16L16 20" stroke="#3D3D3D" stroke-width="1.5" stroke-linecap="round" stroke-linejoin="round"/>
</svg>
