<svg width="24" height="24" viewBox="0 0 24 24" fill="none" xmlns="http://www.w3.org/2000/svg">
<path d="M10.448 10.4321C10.0598 10.6671 9.73002 10.9871 9.48342 11.368C9.23681 11.7489 9.07983 12.1808 9.02428 12.6311C8.96872 13.0815 9.01605 13.5386 9.1627 13.968C9.30934 14.3974 9.55148 14.7879 9.8709 15.1102C10.1903 15.4325 10.5787 15.6781 11.0067 15.8286C11.4348 15.9791 11.8914 16.0305 12.3423 15.979C12.7931 15.9275 13.2264 15.7744 13.6094 15.5312C13.9925 15.2881 14.3155 14.9612 14.554 14.5751" stroke="#3D3D3D" stroke-width="1.5" stroke-linecap="round" stroke-linejoin="round"/>
<path d="M14.272 10.272C14.932 8.813 15.33 7.384 15.47 5.986C15.69 4.356 14.708 3 12 3C10.06 3 9.00602 3.696 8.64502 4.69M9.34202 9.343C9.48702 9.727 9.65102 10.113 9.83302 10.5" stroke="#3D3D3D" stroke-width="1.5" stroke-linecap="round" stroke-linejoin="round"/>
<path d="M13.1689 16.7509C14.1389 18.1459 15.2259 19.2739 16.4259 20.1369C17.4459 20.9259 18.6909 20.9899 19.8339 19.8489M21.3129 17.3559C21.8049 15.7219 21.1229 14.6299 19.8969 14.1269C19.0769 13.7569 18.1939 13.4729 17.2469 13.2749" stroke="#3D3D3D" stroke-width="1.5" stroke-linecap="round" stroke-linejoin="round"/>
<path d="M8.66403 12.999C6.97103 13.142 5.45103 13.519 4.10403 14.127C2.58203 14.75 1.89803 16.28 3.25203 18.625C4.60603 20.97 6.27203 21.142 7.57303 20.137C8.77303 19.274 9.86003 18.146 10.831 16.751" stroke="#3D3D3D" stroke-width="1.5" stroke-linecap="round" stroke-linejoin="round"/>
<path d="M3 3L21 21" stroke="#3D3D3D" stroke-width="1.5" stroke-linecap="round" stroke-linejoin="round"/>
</svg>
