<svg width="24" height="24" viewBox="0 0 24 24" fill="none" xmlns="http://www.w3.org/2000/svg">
<path d="M12 13C12.5523 13 13 12.5523 13 12C13 11.4477 12.5523 11 12 11C11.4477 11 11 11.4477 11 12C11 12.5523 11.4477 13 12 13Z" stroke="#3D3D3D" stroke-width="1.5" stroke-linecap="round" stroke-linejoin="round"/>
<path d="M15.5099 15.56C16.3346 14.7467 16.8514 13.6722 16.9719 12.5202C17.0924 11.3682 16.8092 10.2101 16.1707 9.24365C15.5321 8.27725 14.5779 7.56252 13.4709 7.22154C12.3639 6.88057 11.1729 6.93452 10.1013 7.37416C9.02962 7.8138 8.14388 8.61187 7.59531 9.63204C7.04675 10.6522 6.86939 11.8312 7.09355 12.9676C7.3177 14.104 7.92946 15.1273 8.82432 15.8628C9.71918 16.5983 10.8416 17.0002 11.9999 17" stroke="#3D3D3D" stroke-width="1.5" stroke-linecap="round" stroke-linejoin="round"/>
<path d="M18.8321 17.86C20.1686 16.3021 20.9324 14.3341 20.9968 12.2824C21.0612 10.2308 20.4224 8.21873 19.1862 6.58002C17.95 4.94132 16.1909 3.77441 14.2004 3.27283C12.21 2.77125 10.1079 2.96515 8.24277 3.82236C6.37766 4.67956 4.86161 6.14858 3.94606 7.98575C3.03051 9.82293 2.77048 11.9179 3.2091 13.9231C3.64771 15.9284 4.75862 17.7235 6.35756 19.0106C7.9565 20.2978 9.94741 20.9997 12.0001 21" stroke="#3D3D3D" stroke-width="1.5" stroke-linecap="round" stroke-linejoin="round"/>
<path d="M12 12V21" stroke="#3D3D3D" stroke-width="1.5" stroke-linecap="round" stroke-linejoin="round"/>
</svg>
