<svg width="24" height="24" viewBox="0 0 24 24" fill="none" xmlns="http://www.w3.org/2000/svg">
<path d="M6 21C7.10457 21 8 20.1046 8 19C8 17.8954 7.10457 17 6 17C4.89543 17 4 17.8954 4 19C4 20.1046 4.89543 21 6 21Z" stroke="#3D3D3D" stroke-width="1.5" stroke-linecap="round" stroke-linejoin="round"/>
<path d="M18 7C19.1046 7 20 6.10457 20 5C20 3.89543 19.1046 3 18 3C16.8954 3 16 3.89543 16 5C16 6.10457 16.8954 7 18 7Z" stroke="#3D3D3D" stroke-width="1.5" stroke-linecap="round" stroke-linejoin="round"/>
<path d="M12 19H16.5C17.21 19 17.872 18.788 18.424 18.424M19.969 15.965C20.0353 15.4705 19.9951 14.9676 19.8511 14.4899C19.7071 14.0122 19.4627 13.5709 19.1342 13.1954C18.8056 12.8199 18.4007 12.519 17.9463 12.3128C17.492 12.1067 16.9989 12 16.5 12H16.001M12.001 12H8.49999C7.80816 11.9999 7.1319 11.7947 6.55662 11.4104C5.98134 11.0261 5.53284 10.48 5.26779 9.84092C5.00274 9.20189 4.93301 8.49863 5.06743 7.81999C5.20184 7.14135 5.53436 6.51776 6.02299 6.028M8.49999 5H12" stroke="#3D3D3D" stroke-width="1.5" stroke-linecap="round" stroke-linejoin="round"/>
<path d="M3 3L21 21" stroke="#3D3D3D" stroke-width="1.5" stroke-linecap="round" stroke-linejoin="round"/>
</svg>
