<svg width="24" height="24" viewBox="0 0 24 24" fill="none" xmlns="http://www.w3.org/2000/svg">
<path d="M12 13V13.01" stroke="#3D3D3D" stroke-width="1.5" stroke-linecap="round" stroke-linejoin="round"/>
<path d="M10 16V16.01" stroke="#3D3D3D" stroke-width="1.5" stroke-linecap="round" stroke-linejoin="round"/>
<path d="M14 16V16.01" stroke="#3D3D3D" stroke-width="1.5" stroke-linecap="round" stroke-linejoin="round"/>
<path d="M7.5 8H16.5L16.219 5.752C16.1585 5.26821 15.9234 4.82316 15.5579 4.50052C15.1924 4.17789 14.7216 3.99989 14.234 4H9.766C9.27827 3.99965 8.80722 4.17754 8.44147 4.50019C8.07572 4.82285 7.84048 5.26803 7.78 5.752L7.5 8V8Z" stroke="#3D3D3D" stroke-width="1.5" stroke-linecap="round" stroke-linejoin="round"/>
<path d="M7.50009 8L5.88809 17.671C5.8403 17.9575 5.85551 18.2511 5.93265 18.5311C6.0098 18.8112 6.14704 19.0711 6.33481 19.2928C6.52259 19.5144 6.7564 19.6925 7.01998 19.8146C7.28356 19.9368 7.57058 20 7.86109 20H16.1391C16.4296 20 16.7166 19.9368 16.9802 19.8146C17.2438 19.6925 17.4776 19.5144 17.6654 19.2928C17.8531 19.0711 17.9904 18.8112 18.0675 18.5311C18.1447 18.2511 18.1599 17.9575 18.1121 17.671L16.5001 8" stroke="#3D3D3D" stroke-width="1.5" stroke-linecap="round" stroke-linejoin="round"/>
</svg>
