<svg width="24" height="24" viewBox="0 0 24 24" fill="none" xmlns="http://www.w3.org/2000/svg">
<path d="M5.5 5.5C4.83696 5.5 4.20107 5.76339 3.73223 6.23223C3.26339 6.70107 3 7.33696 3 8C3 15.18 8.82 21 16 21C16.663 21 17.2989 20.7366 17.7678 20.2678C18.2366 19.7989 18.5 19.163 18.5 18.5C18.5 17.837 18.2366 17.2011 17.7678 16.7322C17.2989 16.2634 16.663 16 16 16C13.8783 16 11.8434 15.1571 10.3431 13.6569C8.84285 12.1566 8 10.1217 8 8C8 7.33696 7.73661 6.70107 7.26777 6.23223C6.79893 5.76339 6.16304 5.5 5.5 5.5Z" stroke="#3D3D3D" stroke-width="1.5" stroke-linecap="round" stroke-linejoin="round"/>
<path d="M5.19481 5.519L3.95181 3.53C3.8572 3.37863 3.80483 3.20469 3.80015 3.02625C3.79546 2.8478 3.83863 2.67136 3.92516 2.51523C4.0117 2.3591 4.13844 2.22898 4.29225 2.13838C4.44605 2.04778 4.6213 2 4.79981 2H6.19181C6.37031 2 6.54556 2.04778 6.69937 2.13838C6.85317 2.22898 6.97992 2.3591 7.06645 2.51523C7.15299 2.67136 7.19615 2.8478 7.19147 3.02625C7.18678 3.20469 7.13441 3.37863 7.03981 3.53L5.79481 5.52" stroke="#3D3D3D" stroke-width="1.5" stroke-linecap="round" stroke-linejoin="round"/>
<path d="M18.482 18.2251L20.471 16.9821C20.6224 16.8875 20.7963 16.8351 20.9747 16.8304C21.1532 16.8257 21.3296 16.8689 21.4858 16.9554C21.6419 17.042 21.772 17.1687 21.8626 17.3225C21.9532 17.4763 22.001 17.6516 22.001 17.8301V19.2221C22.001 19.4006 21.9532 19.5758 21.8626 19.7296C21.772 19.8834 21.6419 20.0102 21.4858 20.0967C21.3296 20.1833 21.1532 20.2264 20.9747 20.2217C20.7963 20.2171 20.6224 20.1647 20.471 20.0701L18.48 18.8251" stroke="#3D3D3D" stroke-width="1.5" stroke-linecap="round" stroke-linejoin="round"/>
</svg>
