<svg width="24" height="24" viewBox="0 0 24 24" fill="none" xmlns="http://www.w3.org/2000/svg">
<path d="M5.03901 5.06181C4.38963 5.71251 3.87476 6.48474 3.52382 7.33442C3.17288 8.1841 2.99273 9.09458 2.99366 10.0139C2.99553 11.8705 3.73487 13.6503 5.04901 14.9618C6.36316 16.2733 8.14447 17.009 10.0011 17.0072C11.8577 17.0053 13.6375 16.266 14.949 14.9518M16.533 12.5178C17.0209 11.2543 17.1318 9.87644 16.8523 8.5512C16.5727 7.22595 15.9147 6.01027 14.958 5.05155C14.0012 4.09283 12.7869 3.43225 11.4623 3.14989C10.1376 2.86754 8.75951 2.97554 7.49501 3.46081" stroke="#3D3D3D" stroke-width="1.5" stroke-linecap="round" stroke-linejoin="round"/>
<path d="M3 3L21 21" stroke="#3D3D3D" stroke-width="1.5" stroke-linecap="round" stroke-linejoin="round"/>
</svg>
