<svg width="24" height="24" viewBox="0 0 24 24" fill="none" xmlns="http://www.w3.org/2000/svg">
<path d="M7.09701 7.12477L5.06001 8.70977C4.73945 8.95905 4.4801 9.2783 4.30176 9.64312C4.12342 10.0079 4.03081 10.4087 4.03101 10.8148V18.0148C4.03101 18.5452 4.24172 19.0539 4.61679 19.429C4.99187 19.8041 5.50057 20.0148 6.03101 20.0148H18.031C18.59 20.0148 19.095 19.7858 19.458 19.4168M20.03 15.9998V10.8148C20.03 9.99177 19.65 9.21477 19 8.70977L13.667 4.56177C13.199 4.19768 12.623 4 12.03 4C11.4371 4 10.861 4.19768 10.393 4.56177L9.36401 5.36177" stroke="#3D3D3D" stroke-width="1.5" stroke-linecap="round" stroke-linejoin="round"/>
<path d="M15.332 15.345C13.119 16.321 9.997 16.205 8 15" stroke="#3D3D3D" stroke-width="1.5" stroke-linecap="round" stroke-linejoin="round"/>
<path d="M3 3L21 21" stroke="#3D3D3D" stroke-width="1.5" stroke-linecap="round" stroke-linejoin="round"/>
</svg>
