<svg width="24" height="24" viewBox="0 0 24 24" fill="none" xmlns="http://www.w3.org/2000/svg">
<path d="M3 11H11M15 11H21" stroke="#3D3D3D" stroke-width="1.5" stroke-linecap="round" stroke-linejoin="round"/>
<path d="M5 11V7C5 6.429 5.16 5.895 5.437 5.44M8 4H16C16.7956 4 17.5587 4.31607 18.1213 4.87868C18.6839 5.44129 19 6.20435 19 7V11" stroke="#3D3D3D" stroke-width="1.5" stroke-linecap="round" stroke-linejoin="round"/>
<path d="M7 20C8.65685 20 10 18.6569 10 17C10 15.3431 8.65685 14 7 14C5.34315 14 4 15.3431 4 17C4 18.6569 5.34315 20 7 20Z" stroke="#3D3D3D" stroke-width="1.5" stroke-linecap="round" stroke-linejoin="round"/>
<path d="M14.88 14.8771C14.6011 15.1554 14.3798 15.486 14.2287 15.8498C14.0776 16.2137 13.9996 16.6038 13.9992 16.9978C13.9989 17.3918 14.0761 17.782 14.2265 18.1461C14.377 18.5103 14.5977 18.8412 14.876 19.1201C15.1543 19.3989 15.4849 19.6203 15.8487 19.7714C16.2126 19.9225 16.6027 20.0005 16.9967 20.0008C17.3907 20.0012 17.7809 19.924 18.145 19.7735C18.5092 19.6231 18.8401 19.4024 19.119 19.1241M19.709 15.7101C19.4111 15.0867 18.908 14.5846 18.284 14.2881" stroke="#3D3D3D" stroke-width="1.5" stroke-linecap="round" stroke-linejoin="round"/>
<path d="M10 17H14" stroke="#3D3D3D" stroke-width="1.5" stroke-linecap="round" stroke-linejoin="round"/>
<path d="M3 3L21 21" stroke="#3D3D3D" stroke-width="1.5" stroke-linecap="round" stroke-linejoin="round"/>
</svg>
