<svg width="24" height="24" viewBox="0 0 24 24" fill="none" xmlns="http://www.w3.org/2000/svg">
<path d="M8.55991 3.68994C8.36455 3.7708 8.17209 3.85852 7.98291 3.95294" stroke="#3D3D3D" stroke-width="1.5" stroke-linecap="round" stroke-linejoin="round"/>
<path d="M3.69 8.56006C3.23656 9.65036 3.0021 10.8192 3 12.0001" stroke="#3D3D3D" stroke-width="1.5" stroke-linecap="round" stroke-linejoin="round"/>
<path d="M3.68994 15.4399C4.14193 16.5319 4.80454 17.5241 5.63994 18.3599" stroke="#3D3D3D" stroke-width="1.5" stroke-linecap="round" stroke-linejoin="round"/>
<path d="M8.56006 20.3101C9.65036 20.7635 10.8192 20.998 12.0001 21.0001" stroke="#3D3D3D" stroke-width="1.5" stroke-linecap="round" stroke-linejoin="round"/>
<path d="M15.4399 20.3099C16.5319 19.8579 17.5241 19.1953 18.3599 18.3599" stroke="#3D3D3D" stroke-width="1.5" stroke-linecap="round" stroke-linejoin="round"/>
<path d="M20.3101 15.44C20.7635 14.3497 20.998 13.1808 21.0001 12" stroke="#3D3D3D" stroke-width="1.5" stroke-linecap="round" stroke-linejoin="round"/>
<path d="M20.3101 8.56014C19.8581 7.46822 19.1955 6.47601 18.3601 5.64014" stroke="#3D3D3D" stroke-width="1.5" stroke-linecap="round" stroke-linejoin="round"/>
<path d="M15.44 3.69C14.3497 3.23656 13.1808 3.0021 12 3" stroke="#3D3D3D" stroke-width="1.5" stroke-linecap="round" stroke-linejoin="round"/>
<path d="M10.5699 10.6021C10.1993 10.9816 9.99459 11.4928 10.0009 12.0232C10.0072 12.5537 10.2239 13.0599 10.6034 13.4306C10.9829 13.8012 11.4942 14.0059 12.0246 13.9996C12.5551 13.9933 13.0613 13.7766 13.4319 13.3971" stroke="#3D3D3D" stroke-width="1.5" stroke-linecap="round" stroke-linejoin="round"/>
<path d="M3 3L21 21" stroke="#3D3D3D" stroke-width="1.5" stroke-linecap="round" stroke-linejoin="round"/>
</svg>
