<svg width="24" height="24" viewBox="0 0 24 24" fill="none" xmlns="http://www.w3.org/2000/svg">
<path d="M10 6V5C10 4.73478 10.1054 4.48043 10.2929 4.29289C10.4804 4.10536 10.7348 4 11 4H13C13.2652 4 13.5196 4.10536 13.7071 4.29289C13.8946 4.48043 14 4.73478 14 5V7C14 7.26522 13.8946 7.51957 13.7071 7.70711C13.5196 7.89464 13.2652 8 13 8H12" stroke="#3D3D3D" stroke-width="1.5" stroke-linecap="round" stroke-linejoin="round"/>
<path d="M6 17H4C3.44772 17 3 17.4477 3 18V20C3 20.5523 3.44772 21 4 21H6C6.55228 21 7 20.5523 7 20V18C7 17.4477 6.55228 17 6 17Z" stroke="#3D3D3D" stroke-width="1.5" stroke-linecap="round" stroke-linejoin="round"/>
<path d="M20.705 20.7091C20.5179 20.8957 20.2643 21.0004 20 21.0001H18C17.7348 21.0001 17.4804 20.8948 17.2929 20.7072C17.1054 20.5197 17 20.2654 17 20.0001V18.0001C17 17.7201 17.115 17.4681 17.3 17.2861" stroke="#3D3D3D" stroke-width="1.5" stroke-linecap="round" stroke-linejoin="round"/>
<path d="M6.5 17.0999L10.249 10.2769" stroke="#3D3D3D" stroke-width="1.5" stroke-linecap="round" stroke-linejoin="round"/>
<path d="M13.158 9.197L12.5 8" stroke="#3D3D3D" stroke-width="1.5" stroke-linecap="round" stroke-linejoin="round"/>
<path d="M7 19H17" stroke="#3D3D3D" stroke-width="1.5" stroke-linecap="round" stroke-linejoin="round"/>
<path d="M3 3L21 21" stroke="#3D3D3D" stroke-width="1.5" stroke-linecap="round" stroke-linejoin="round"/>
</svg>
