<svg width="24" height="24" viewBox="0 0 24 24" fill="none" xmlns="http://www.w3.org/2000/svg">
<path d="M4.876 13.6099C4.28624 13.9794 3.80311 14.4965 3.47436 15.1099C3.14561 15.7234 2.98261 16.412 3.00147 17.1078C3.02033 17.8035 3.2204 18.4823 3.58191 19.077C3.94341 19.6717 4.45385 20.1619 5.06277 20.4989C5.67169 20.836 6.35802 21.0084 7.05395 20.999C7.74988 20.9896 8.43131 20.7988 9.03092 20.4454C9.63053 20.092 10.1276 19.5883 10.4729 18.9841C10.8182 18.3798 10.9999 17.6959 11 16.9999H17" stroke="#3D3D3D" stroke-width="1.5" stroke-linecap="round" stroke-linejoin="round"/>
<path d="M15.066 20.502C15.8257 20.9214 16.7012 21.0823 17.5604 20.9605C18.4195 20.8388 19.2158 20.4409 19.829 19.827M21 17C21 15.9391 20.5786 14.9217 19.8285 14.1716C19.0783 13.4214 18.0609 13 17 13" stroke="#3D3D3D" stroke-width="1.5" stroke-linecap="round" stroke-linejoin="round"/>
<path d="M16 8.00015C16 7.20955 15.7658 6.43667 15.3268 5.77912C14.8878 5.12157 14.2639 4.60885 13.5337 4.30571C12.8035 4.00257 11.9999 3.92262 11.2243 4.07594C10.4487 4.22926 9.73592 4.60899 9.176 5.16715M8 8.00015C8 9.50615 8.77 10.8182 10 11.5002L7 17.0002" stroke="#3D3D3D" stroke-width="1.5" stroke-linecap="round" stroke-linejoin="round"/>
<path d="M3 3L21 21" stroke="#3D3D3D" stroke-width="1.5" stroke-linecap="round" stroke-linejoin="round"/>
</svg>
