<svg width="24" height="24" viewBox="0 0 24 24" fill="none" xmlns="http://www.w3.org/2000/svg">
<path d="M8 21C10.7614 21 13 18.7614 13 16C13 13.2386 10.7614 11 8 11C5.23858 11 3 13.2386 3 16C3 18.7614 5.23858 21 8 21Z" stroke="#3D3D3D" stroke-width="1.5" stroke-linecap="round" stroke-linejoin="round"/>
<path d="M17.5821 17.5898C17.2076 17.9655 16.9977 18.4746 16.9985 19.005C16.9994 19.5355 17.2109 20.0439 17.5866 20.4183C17.9623 20.7928 18.4713 21.0027 19.0018 21.0019C19.5322 21.0011 20.0406 20.7895 20.4151 20.4138" stroke="#3D3D3D" stroke-width="1.5" stroke-linecap="round" stroke-linejoin="round"/>
<path d="M14.0001 14H12.6001" stroke="#3D3D3D" stroke-width="1.5" stroke-linecap="round" stroke-linejoin="round"/>
<path d="M6 6V11" stroke="#3D3D3D" stroke-width="1.5" stroke-linecap="round" stroke-linejoin="round"/>
<path d="M6 8H8M12 8H17" stroke="#3D3D3D" stroke-width="1.5" stroke-linecap="round" stroke-linejoin="round"/>
<path d="M15 8V11" stroke="#3D3D3D" stroke-width="1.5" stroke-linecap="round" stroke-linejoin="round"/>
<path d="M3 3L21 21" stroke="#3D3D3D" stroke-width="1.5" stroke-linecap="round" stroke-linejoin="round"/>
</svg>
