<svg width="24" height="24" viewBox="0 0 24 24" fill="none" xmlns="http://www.w3.org/2000/svg">
<path d="M12 18H12.01" stroke="#3D3D3D" stroke-width="1.5" stroke-linecap="round" stroke-linejoin="round"/>
<path d="M9.17212 15.1721C9.92223 14.4222 10.9395 14.001 12.0001 14.001C13.0608 14.001 14.078 14.4222 14.8281 15.1721" stroke="#3D3D3D" stroke-width="1.5" stroke-linecap="round" stroke-linejoin="round"/>
<path d="M6.34302 12.3431C7.40345 11.2797 8.74299 10.5378 10.207 10.2031M14.37 10.3581C15.6127 10.7462 16.7413 11.4329 17.657 12.3581" stroke="#3D3D3D" stroke-width="1.5" stroke-linecap="round" stroke-linejoin="round"/>
<path d="M3.51489 9.51476C4.53833 8.48918 5.73904 7.65743 7.05889 7.05976M10.1599 6.13976C12.025 5.85056 13.932 6.00537 15.726 6.59162C17.52 7.17787 19.1505 8.17902 20.4849 9.51376" stroke="#3D3D3D" stroke-width="1.5" stroke-linecap="round" stroke-linejoin="round"/>
<path d="M3 3L21 21" stroke="#3D3D3D" stroke-width="1.5" stroke-linecap="round" stroke-linejoin="round"/>
</svg>
