<svg width="24" height="24" viewBox="0 0 24 24" fill="none" xmlns="http://www.w3.org/2000/svg">
<path d="M12 19C12.5523 19 13 18.5523 13 18C13 17.4477 12.5523 17 12 17C11.4477 17 11 17.4477 11 18C11 18.5523 11.4477 19 12 19Z" stroke="#3D3D3D" stroke-width="1.5" stroke-linecap="round" stroke-linejoin="round"/>
<path d="M3 8.99976L8.5 14.4998C9.43464 13.5836 10.6912 13.0705 12 13.0705C13.3088 13.0705 14.5654 13.5836 15.5 14.4998L21 8.99976C19.8739 7.72288 18.489 6.70023 16.9373 5.99976C15.3855 5.29928 13.7025 4.93701 12 4.93701C10.2975 4.93701 8.61447 5.29928 7.06275 5.99976C5.51102 6.70023 4.1261 7.72288 3 8.99976" stroke="#3D3D3D" stroke-width="1.5" stroke-linecap="round" stroke-linejoin="round"/>
<path d="M12 18.0002L9.80005 5.2002" stroke="#3D3D3D" stroke-width="1.5" stroke-linecap="round" stroke-linejoin="round"/>
</svg>
