<svg width="25" height="24" viewBox="0 0 25 24" fill="none" xmlns="http://www.w3.org/2000/svg">
<path d="M7.55882 12.75H16.5588M4.55882 9V6.75C4.55882 5.95435 4.87489 5.19129 5.4375 4.62868C6.00011 4.06607 6.76317 3.75 7.55882 3.75H16.5588C17.3545 3.75 18.1175 4.06607 18.6801 4.62868C19.2428 5.19129 19.5588 5.95435 19.5588 6.75V9M7.55882 15.75V12C7.55882 11.4067 7.38288 10.8266 7.05323 10.3333C6.72359 9.83994 6.25505 9.45542 5.70687 9.22836C5.1587 9.0013 4.5555 8.94189 3.97355 9.05764C3.39161 9.1734 2.85706 9.45912 2.4375 9.87868C2.01795 10.2982 1.73222 10.8328 1.61647 11.4147C1.50071 11.9967 1.56012 12.5999 1.78719 13.1481C2.01425 13.6962 2.39877 14.1648 2.89211 14.4944C3.38546 14.8241 3.96548 15 4.55882 15V18.75C4.55882 18.9489 4.63784 19.1397 4.77849 19.2803C4.91915 19.421 5.10991 19.5 5.30882 19.5H18.8088C19.0077 19.5 19.1985 19.421 19.3392 19.2803C19.4798 19.1397 19.5588 18.9489 19.5588 18.75V15C20.1522 15 20.7322 14.8241 21.2255 14.4944C21.7189 14.1648 22.1034 13.6962 22.3305 13.1481C22.5575 12.5999 22.6169 11.9967 22.5012 11.4147C22.3854 10.8328 22.0997 10.2982 21.6801 9.87868C21.2606 9.45912 20.726 9.1734 20.1441 9.05764C19.5621 8.94189 18.9589 9.0013 18.4108 9.22836C17.8626 9.45542 17.3941 9.83994 17.0644 10.3333C16.7348 10.8266 16.5588 11.4067 16.5588 12V15.75" stroke="#3D3D3D" stroke-width="1.5" stroke-linecap="round" stroke-linejoin="round"/>
</svg>
