<svg width="25" height="24" viewBox="0 0 25 24" fill="none" xmlns="http://www.w3.org/2000/svg">
<path d="M12.2942 16.5V21M8.54416 21H16.0442M4.04416 8.24999H20.5442M19.2098 3.74974C20.0197 4.99484 20.4785 6.43551 20.5376 7.91968C20.5968 9.40385 20.2541 10.8765 19.5459 12.1821C18.8376 13.4877 17.79 14.5779 16.5136 15.3375C15.2373 16.0972 13.7795 16.4982 12.2941 16.4982C10.8088 16.4982 9.351 16.0972 8.07463 15.3375C6.79826 14.5778 5.75066 13.4876 5.04242 12.182C4.33417 10.8764 3.99154 9.40379 4.05071 7.91963C4.10987 6.43546 4.56862 4.99479 5.37855 3.74969L19.2098 3.74974Z" stroke="#3D3D3D" stroke-width="1.5" stroke-linecap="round" stroke-linejoin="round"/>
</svg>
