<svg width="25" height="24" viewBox="0 0 25 24" fill="none" xmlns="http://www.w3.org/2000/svg">
<path d="M12.4118 2.25V4.5M12.4118 19.5V21.75M17.6618 8.25C17.6618 7.75754 17.5648 7.26991 17.3764 6.81494C17.1879 6.35997 16.9117 5.94657 16.5635 5.59835C16.2152 5.25013 15.8018 4.97391 15.3469 4.78545C14.8919 4.597 14.4043 4.5 13.9118 4.5H10.5368C9.54224 4.5 8.58842 4.89509 7.88515 5.59835C7.18189 6.30161 6.7868 7.25544 6.7868 8.25C6.7868 9.24456 7.18189 10.1984 7.88515 10.9017C8.58842 11.6049 9.54224 12 10.5368 12H14.6618C15.6564 12 16.6102 12.3951 17.3135 13.0983C18.0167 13.8016 18.4118 14.7554 18.4118 15.75C18.4118 16.7446 18.0167 17.6984 17.3135 18.4017C16.6102 19.1049 15.6564 19.5 14.6618 19.5H10.1618C9.16724 19.5 8.21342 19.1049 7.51015 18.4017C6.80689 17.6984 6.4118 16.7446 6.4118 15.75" stroke="#3D3D3D" stroke-width="1.5" stroke-linecap="round" stroke-linejoin="round"/>
</svg>
