<svg width="25" height="24" viewBox="0 0 25 24" fill="none" xmlns="http://www.w3.org/2000/svg">
<path d="M17.885 18.4153L21.885 12.4153C21.9671 12.2921 22.011 12.1473 22.011 11.9993C22.011 11.8512 21.9671 11.7064 21.885 11.5832L17.885 5.58324C17.8165 5.48051 17.7237 5.39627 17.6149 5.33801C17.506 5.27975 17.3844 5.24927 17.261 5.24927H2.66235L6.88503 11.584C6.96715 11.7072 7.01097 11.852 7.01097 12C7.01096 12.1481 6.96712 12.2929 6.88498 12.4161L2.66235 18.7493H17.261C17.3844 18.7493 17.506 18.7188 17.6149 18.6605C17.7237 18.6023 17.8165 18.518 17.885 18.4153Z" stroke="#3D3D3D" stroke-width="1.5" stroke-linecap="round" stroke-linejoin="round"/>
</svg>
