<svg width="25" height="24" viewBox="0 0 25 24" fill="none" xmlns="http://www.w3.org/2000/svg">
<path d="M8.30883 9.75V6.75C8.30883 5.75544 8.70391 4.80161 9.40718 4.09835C10.1104 3.39509 11.0643 3 12.0588 3C13.0534 3 14.0072 3.39509 14.7105 4.09835C15.4137 4.80161 15.8088 5.75544 15.8088 6.75V9.75M19.6375 20.25H4.48011C4.29554 20.25 4.11745 20.1819 3.97992 20.0588C3.84239 19.9358 3.75508 19.7663 3.73469 19.5828L2.40136 7.58282C2.38971 7.47799 2.40031 7.37188 2.43246 7.27142C2.46461 7.17095 2.51758 7.0784 2.58793 6.99981C2.65827 6.92121 2.74441 6.85834 2.84071 6.81529C2.937 6.77225 3.0413 6.75 3.14677 6.75H20.9709C21.0764 6.75 21.1806 6.77225 21.2769 6.81529C21.3732 6.85834 21.4594 6.92121 21.5297 6.99981C21.6001 7.0784 21.653 7.17095 21.6852 7.27142C21.7173 7.37188 21.7279 7.47799 21.7163 7.58282L20.383 19.5828C20.3626 19.7663 20.2753 19.9358 20.1377 20.0588C20.0002 20.1819 19.8221 20.25 19.6375 20.25Z" stroke="#3D3D3D" stroke-width="1.5" stroke-linecap="round" stroke-linejoin="round"/>
</svg>
