<svg width="25" height="24" viewBox="0 0 25 24" fill="none" xmlns="http://www.w3.org/2000/svg">
<path d="M18.2353 11.25H20.7717C20.911 11.25 21.0476 11.2112 21.166 11.138C21.2845 11.0648 21.3803 10.96 21.4426 10.8354L23.168 7.38459C23.2537 7.21312 23.2705 7.01532 23.215 6.83184C23.1594 6.64835 23.0357 6.49311 22.8693 6.39799L18.2353 3.75M18.2353 3.75V19.5C18.2353 19.6989 18.1563 19.8897 18.0156 20.0303C17.875 20.171 17.6842 20.25 17.4853 20.25H6.98528C6.78636 20.25 6.5956 20.171 6.45495 20.0303C6.31429 19.8897 6.23528 19.6989 6.23528 19.5V3.75M18.2353 3.75H15.2353C15.2353 4.54565 14.9192 5.30871 14.3566 5.87132C13.794 6.43393 13.0309 6.75 12.2353 6.75C11.4396 6.75 10.6766 6.43393 10.114 5.87132C9.55135 5.30871 9.23528 4.54565 9.23528 3.75H6.23528M6.23528 11.25H3.6988C3.55952 11.25 3.42298 11.2112 3.3045 11.138C3.18602 11.0648 3.09027 10.96 3.02798 10.8354L1.30257 7.38459C1.21683 7.21312 1.20002 7.01532 1.25557 6.83184C1.31113 6.64835 1.43483 6.49311 1.60129 6.39799L6.23528 3.75" stroke="#3D3D3D" stroke-width="1.5" stroke-linecap="round" stroke-linejoin="round"/>
</svg>
