<svg width="25" height="24" viewBox="0 0 25 24" fill="none" xmlns="http://www.w3.org/2000/svg">
<path d="M20.115 7.5377L16.9602 10.5L19.9602 18.75L17.7102 21L13.2282 14.4395L10.9602 16.5V18.75L8.71021 21L7.37966 17.0762L3.46021 15.75L5.71021 13.5H7.96021L10.2102 11.25L3.46021 6.75001L5.71021 4.50001L13.9602 7.50001L16.9331 4.35572L16.8692 4.40902C17.0781 4.19971 17.3261 4.03362 17.5992 3.92024C17.8723 3.80686 18.165 3.74842 18.4607 3.74826C18.7564 3.7481 19.0492 3.80622 19.3224 3.9193C19.5956 4.03237 19.8439 4.19819 20.0529 4.40727C20.262 4.61635 20.4278 4.86459 20.5409 5.1378C20.654 5.411 20.7121 5.70382 20.712 5.9995C20.7118 6.29518 20.6534 6.58793 20.54 6.86101C20.4266 7.13409 20.2605 7.38215 20.0512 7.591L20.115 7.5377Z" stroke="#3D3D3D" stroke-width="1.5" stroke-linecap="round" stroke-linejoin="round"/>
</svg>
