<svg width="25" height="24" viewBox="0 0 25 24" fill="none" xmlns="http://www.w3.org/2000/svg">
<path d="M12.5884 8.24973C13.831 8.24973 14.8384 7.24237 14.8384 5.99973C14.8384 4.75708 13.831 3.74973 12.5884 3.74973C11.3457 3.74973 10.3384 4.75708 10.3384 5.99973C10.3384 7.24237 11.3457 8.24973 12.5884 8.24973ZM12.5884 8.24973V20.2497M12.5884 20.2497C10.2014 20.2497 7.91225 19.3015 6.22442 17.6137C4.53659 15.9259 3.58838 13.6367 3.58838 11.2497H5.83838M12.5884 20.2497C14.9753 20.2497 17.2645 19.3015 18.9523 17.6137C20.6402 15.9259 21.5884 13.6367 21.5884 11.2497H19.3384" stroke="#3D3D3D" stroke-width="1.5" stroke-linecap="round" stroke-linejoin="round"/>
</svg>
