<svg width="25" height="24" viewBox="0 0 25 24" fill="none" xmlns="http://www.w3.org/2000/svg">
<path d="M3.29419 5.73912H21.2942M3.29419 10.7478H21.2942M21.2942 18.2609H3.29419M21.2942 18.2609V4.90434C21.2942 4.24015 21.0296 3.60316 20.5586 3.1335C20.0875 2.66384 19.4487 2.39999 18.7826 2.39999H5.80582C5.13969 2.39999 4.50085 2.66384 4.02983 3.1335C3.55881 3.60316 3.29419 4.24015 3.29419 4.90434V18.2609M21.2942 18.2609L21.2929 20.7652C21.2929 20.9866 21.2047 21.1989 21.0478 21.3555C20.8908 21.512 20.6779 21.6 20.456 21.6H17.9451C17.7231 21.6 17.5102 21.512 17.3533 21.3555C17.1963 21.1989 17.1081 20.9866 17.1081 20.7652V18.2609M3.29419 18.2609V20.7652C3.29419 20.9866 3.38237 21.1989 3.53933 21.3555C3.69629 21.512 3.90917 21.6 4.13114 21.6H6.642C6.86397 21.6 7.07686 21.512 7.23382 21.3555C7.39078 21.1989 7.47895 20.9866 7.47895 20.7652V18.2609" stroke="#3D3D3D" stroke-width="1.5" stroke-linecap="round" stroke-linejoin="round"/>
<path d="M16.8986 15.5477C17.4764 15.5477 17.9447 15.0805 17.9447 14.5042C17.9447 13.9279 17.4764 13.4607 16.8986 13.4607C16.3208 13.4607 15.8524 13.9279 15.8524 14.5042C15.8524 15.0805 16.3208 15.5477 16.8986 15.5477Z" fill="#3D3D3D"/>
<path d="M7.68926 15.5477C8.26705 15.5477 8.73545 15.0805 8.73545 14.5042C8.73545 13.9279 8.26705 13.4607 7.68926 13.4607C7.11146 13.4607 6.64307 13.9279 6.64307 14.5042C6.64307 15.0805 7.11146 15.5477 7.68926 15.5477Z" fill="#3D3D3D"/>
</svg>
