<svg width="25" height="24" viewBox="0 0 25 24" fill="none" xmlns="http://www.w3.org/2000/svg">
<path d="M1.85278 11.25H22.8528M21.3528 17.25V19.5C21.3528 19.6989 21.2738 19.8897 21.1331 20.0303C20.9925 20.171 20.8017 20.25 20.6028 20.25H18.3528C18.1539 20.25 17.9631 20.171 17.8225 20.0303C17.6818 19.8897 17.6028 19.6989 17.6028 19.5V17.25M21.3528 17.25H3.35278M21.3528 17.25V11.25L18.5507 4.9454C18.4918 4.81282 18.3957 4.70018 18.2741 4.62113C18.1524 4.54208 18.0105 4.5 17.8654 4.5H6.84019C6.69511 4.5 6.55315 4.54208 6.4315 4.62113C6.30986 4.70018 6.21375 4.81282 6.15483 4.9454L3.35278 11.25V17.25M7.10278 17.25V19.5C7.10278 19.6989 7.02377 19.8897 6.88311 20.0303C6.74246 20.171 6.5517 20.25 6.35278 20.25H4.10278C3.90387 20.25 3.71311 20.171 3.57245 20.0303C3.4318 19.8897 3.35278 19.6989 3.35278 19.5V17.25M6.35278 14.25H7.85278M16.8528 14.25H18.3528" stroke="#3D3D3D" stroke-width="1.5" stroke-linecap="round" stroke-linejoin="round"/>
</svg>
