<svg width="25" height="24" viewBox="0 0 25 24" fill="none" xmlns="http://www.w3.org/2000/svg">
<path d="M9.22978 17.3033C8.16913 20.4853 3.92648 20.4853 3.92648 20.4853C3.92648 20.4853 3.92648 16.2426 7.10846 15.182M12.4118 16.2426L18.7757 9.87868C21.1855 7.46892 21.162 5.05916 21.0087 4.03146C20.9851 3.87322 20.9113 3.72675 20.7981 3.61362C20.685 3.5005 20.5385 3.42671 20.3803 3.40312C19.3526 3.24978 16.9429 3.22628 14.5331 5.63604L8.16913 12M12.4118 16.2426L8.16913 12M12.4118 16.2426L13.1976 20.1718C13.2242 20.3049 13.2865 20.4283 13.3777 20.5288C13.469 20.6293 13.5858 20.7032 13.7157 20.7425C13.8456 20.7818 13.9838 20.7852 14.1155 20.7522C14.2471 20.7191 14.3674 20.651 14.4634 20.555L17.4954 17.523C17.565 17.4533 17.6203 17.3707 17.658 17.2797C17.6957 17.1887 17.7151 17.0911 17.7151 16.9926V10.9393M8.16913 12L4.24 11.2142C4.10688 11.1876 3.98349 11.1253 3.88298 11.0341C3.78247 10.9428 3.7086 10.826 3.66927 10.6961C3.62993 10.5662 3.62659 10.428 3.65961 10.2963C3.69263 10.1646 3.76077 10.0444 3.85676 9.94841L6.8888 6.91637C6.95844 6.84673 7.04112 6.79148 7.13211 6.75379C7.22311 6.7161 7.32063 6.6967 7.41913 6.6967H13.4724" stroke="#3D3D3D" stroke-width="1.5" stroke-linecap="round" stroke-linejoin="round"/>
</svg>
