<svg width="25" height="24" viewBox="0 0 25 24" fill="none" xmlns="http://www.w3.org/2000/svg">
<path d="M16.2793 6.75V5.25C16.2793 4.85218 16.1213 4.47064 15.84 4.18934C15.5587 3.90804 15.1771 3.75 14.7793 3.75H10.2793C9.88147 3.75 9.49994 3.90804 9.21864 4.18934C8.93733 4.47064 8.7793 4.85218 8.7793 5.25V6.75M3.5293 15H21.5293M4.2793 6.75H20.7793C21.1935 6.75 21.5293 7.08579 21.5293 7.5V19.5C21.5293 19.9142 21.1935 20.25 20.7793 20.25H4.2793C3.86508 20.25 3.5293 19.9142 3.5293 19.5V7.5C3.5293 7.08579 3.86508 6.75 4.2793 6.75Z" stroke="#3D3D3D" stroke-width="1.5" stroke-linecap="round" stroke-linejoin="round"/>
</svg>
