<svg width="24" height="24" viewBox="0 0 24 24" fill="none" xmlns="http://www.w3.org/2000/svg">
<path d="M8.63067 16.4899C8.96249 17.4319 9.4991 18.2886 10.2018 18.9983C10.9046 19.708 11.756 20.253 12.6947 20.594C13.6334 20.9351 14.636 21.0637 15.6304 20.9706C16.6248 20.8776 17.5862 20.5651 18.4453 20.0558L20.7766 20.7219C20.873 20.7494 20.9751 20.7507 21.0722 20.7255C21.1693 20.7004 21.2579 20.6497 21.3289 20.5788C21.3998 20.5078 21.4505 20.4192 21.4756 20.3221C21.5008 20.225 21.4995 20.1229 21.472 20.0265L20.8059 17.6952C21.3977 16.697 21.7224 15.5633 21.7484 14.4032C21.7745 13.2431 21.5011 12.0959 20.9547 11.0722C20.4083 10.0485 19.6073 9.18293 18.6289 8.55896C17.6506 7.935 16.5279 7.5737 15.3693 7.50994M3.19433 13.1952C2.35569 11.7814 2.06199 10.1102 2.36838 8.49521C2.67478 6.88024 3.56019 5.43266 4.85835 4.42431C6.15652 3.41596 7.77814 2.91619 9.4187 3.01886C11.0593 3.12152 12.6059 3.81955 13.7683 4.98187C14.9306 6.1442 15.6286 7.69086 15.7313 9.33143C15.834 10.972 15.3342 12.5936 14.3259 13.8918C13.3175 15.19 11.87 16.0754 10.255 16.3818C8.64001 16.6882 6.96874 16.3945 5.55499 15.5558L3.22368 16.2219C3.12723 16.2494 3.02516 16.2507 2.92805 16.2255C2.83094 16.2004 2.74233 16.1497 2.6714 16.0788C2.60047 16.0078 2.5498 15.9192 2.52463 15.8221C2.49947 15.725 2.50073 15.6229 2.52829 15.5265L3.19433 13.1952Z" stroke="#3D3D3D" stroke-width="1.5" stroke-linecap="round" stroke-linejoin="round"/>
</svg>
