<svg width="25" height="24" viewBox="0 0 25 24" fill="none" xmlns="http://www.w3.org/2000/svg">
<path d="M9.94118 10.5H15.9412M9.94118 13.5H15.9412M5.20011 16.5935C4.08192 14.7085 3.69032 12.4802 4.09884 10.3269C4.50737 8.17359 5.68792 6.2435 7.4188 4.89903C9.14969 3.55455 11.3118 2.8882 13.4993 3.02508C15.6867 3.16196 17.7489 4.09267 19.2987 5.64244C20.8485 7.1922 21.7792 9.25442 21.9161 11.4418C22.053 13.6293 21.3866 15.7914 20.0422 17.5223C18.6977 19.2532 16.7676 20.4338 14.6143 20.8423C12.461 21.2508 10.2327 20.8593 8.34765 19.7411L5.23924 20.6291C5.11064 20.6658 4.97454 20.6675 4.84507 20.634C4.71559 20.6004 4.59744 20.5329 4.50287 20.4383C4.40829 20.3437 4.34072 20.2256 4.30717 20.0961C4.27362 19.9666 4.27531 19.8305 4.31205 19.7019L5.20011 16.5935Z" stroke="#3D3D3D" stroke-width="1.5" stroke-linecap="round" stroke-linejoin="round"/>
</svg>
