<svg width="25" height="24" viewBox="0 0 25 24" fill="none" xmlns="http://www.w3.org/2000/svg">
<path d="M18.0735 14.5936V18C18.0735 18.1989 17.9945 18.3897 17.8539 18.5303C17.7132 18.671 17.5225 18.75 17.3235 18.75H14.3235C14.1246 18.75 13.9339 18.671 13.7932 18.5303C13.6526 18.3897 13.5735 18.1989 13.5735 18V6.59391M3.823 4.75V17.75C3.823 17.8664 3.85011 17.9813 3.90218 18.0854C3.95425 18.1896 4.02985 18.2801 4.123 18.35C4.21615 18.4199 4.32428 18.4671 4.43883 18.4879C4.55339 18.5087 4.67122 18.5026 4.783 18.47L21.283 13.6575C21.4388 13.6121 21.5756 13.5173 21.673 13.3875C21.7704 13.2577 21.823 13.0998 21.823 12.9375V9.5625C21.823 9.40022 21.7704 9.24232 21.673 9.1125C21.5756 8.98268 21.4388 8.88794 21.283 8.8425L4.783 4.03C4.67122 3.9974 4.55339 3.99127 4.43883 4.0121C4.32428 4.03293 4.21615 4.08014 4.123 4.15C4.02985 4.21986 3.95425 4.31045 3.90218 4.41459C3.85011 4.51873 3.823 4.63357 3.823 4.75Z" stroke="#3D3D3D" stroke-width="1.5" stroke-linecap="round" stroke-linejoin="round"/>
</svg>
