<svg width="24" height="24" viewBox="0 0 24 24" fill="none" xmlns="http://www.w3.org/2000/svg">
<path d="M15.0001 4.5L19.5001 9M19.5001 4.5L15.0001 9M8.66977 11.7014C9.44775 13.2919 10.737 14.5753 12.331 15.346C12.4477 15.4013 12.5767 15.4253 12.7054 15.4155C12.834 15.4058 12.958 15.3627 13.065 15.2905L15.4121 13.7254C15.5159 13.6562 15.6353 13.614 15.7595 13.6026C15.8838 13.5911 16.0089 13.6109 16.1236 13.6601L20.5146 15.5419C20.6637 15.6053 20.7883 15.7154 20.8694 15.8557C20.9505 15.996 20.9839 16.1588 20.9644 16.3197C20.8256 17.4057 20.2957 18.4039 19.474 19.1274C18.6522 19.8508 17.595 20.2499 16.5001 20.25C13.1186 20.25 9.8756 18.9067 7.48451 16.5156C5.09342 14.1245 3.75012 10.8815 3.75012 7.5C3.75018 6.40516 4.1493 5.34789 4.87276 4.52613C5.59622 3.70438 6.5944 3.17451 7.6804 3.03572C7.84129 3.01625 8.00415 3.04959 8.14444 3.13073C8.28473 3.21186 8.39485 3.33639 8.45822 3.48555L10.3417 7.88035C10.3904 7.99403 10.4103 8.11799 10.3995 8.24119C10.3887 8.3644 10.3476 8.48302 10.2799 8.5865L8.72023 10.9696C8.64924 11.0768 8.60728 11.2006 8.59844 11.3289C8.58959 11.4571 8.61417 11.5855 8.66977 11.7014Z" stroke="#3D3D3D" stroke-width="1.5" stroke-linecap="round" stroke-linejoin="round"/>
</svg>
