<svg width="25" height="24" viewBox="0 0 25 24" fill="none" xmlns="http://www.w3.org/2000/svg">
<path d="M15.8236 5.25V9M15.8236 9H19.5736M15.8236 9L20.3236 4.5M9.49326 11.7014C10.2712 13.2919 11.5605 14.5753 13.1545 15.346C13.2711 15.4013 13.4001 15.4253 13.5288 15.4155C13.6575 15.4058 13.7815 15.3627 13.8885 15.2905L16.2355 13.7254C16.3394 13.6562 16.4588 13.614 16.583 13.6026C16.7073 13.5911 16.8324 13.6109 16.9471 13.6601L21.338 15.5419C21.4872 15.6053 21.6117 15.7154 21.6929 15.8557C21.774 15.996 21.8074 16.1588 21.7879 16.3197C21.6491 17.4057 21.1192 18.4039 20.2975 19.1274C19.4757 19.8508 18.4184 20.2499 17.3236 20.25C13.9421 20.25 10.6991 18.9067 8.308 16.5156C5.91691 14.1245 4.57361 10.8815 4.57361 7.5C4.57367 6.40516 4.97279 5.34789 5.69625 4.52613C6.4197 3.70438 7.41789 3.17451 8.50389 3.03572C8.66478 3.01625 8.82764 3.04959 8.96793 3.13073C9.10822 3.21186 9.21834 3.33639 9.2817 3.48555L11.1652 7.88035C11.2139 7.99403 11.2338 8.11799 11.223 8.24119C11.2122 8.3644 11.1711 8.48302 11.1034 8.5865L9.54372 10.9696C9.47273 11.0768 9.43077 11.2006 9.42192 11.3289C9.41308 11.4571 9.43766 11.5855 9.49326 11.7014Z" stroke="#3D3D3D" stroke-width="1.5" stroke-linecap="round" stroke-linejoin="round"/>
</svg>
