<svg width="25" height="24" viewBox="0 0 25 24" fill="none" xmlns="http://www.w3.org/2000/svg">
<path d="M9.31675 11.7014C10.0947 13.2919 11.384 14.5753 12.978 15.346C13.0946 15.4013 13.2236 15.4253 13.3523 15.4155C13.481 15.4058 13.605 15.3627 13.7119 15.2905L16.059 13.7254C16.1628 13.6562 16.2823 13.614 16.4065 13.6026C16.5308 13.5911 16.6559 13.6109 16.7706 13.6601L21.1615 15.5419C21.3107 15.6053 21.4352 15.7154 21.5164 15.8557C21.5975 15.996 21.6308 16.1588 21.6114 16.3197C21.4726 17.4057 20.9427 18.4039 20.121 19.1274C19.2992 19.8508 18.2419 20.2499 17.1471 20.25C13.7656 20.25 10.5226 18.9067 8.13148 16.5156C5.74039 14.1245 4.39709 10.8815 4.39709 7.5C4.39715 6.40516 4.79628 5.34789 5.51973 4.52613C6.24319 3.70438 7.24137 3.17451 8.32738 3.03572C8.48826 3.01625 8.65112 3.04959 8.79141 3.13073C8.9317 3.21186 9.04183 3.33639 9.10519 3.48555L10.9887 7.88035C11.0374 7.99403 11.0572 8.11799 11.0465 8.24119C11.0357 8.3644 10.9946 8.48302 10.9269 8.5865L9.3672 10.9696C9.29622 11.0768 9.25425 11.2006 9.24541 11.3289C9.23657 11.4571 9.26114 11.5855 9.31675 11.7014V11.7014Z" stroke="#3D3D3D" stroke-width="1.5" stroke-linecap="round" stroke-linejoin="round"/>
</svg>
