<svg width="25" height="24" viewBox="0 0 25 24" fill="none" xmlns="http://www.w3.org/2000/svg">
<path d="M8.72041 8.625C8.72041 7.36415 9.0943 6.13161 9.7948 5.08324C10.4953 4.03488 11.4909 3.21778 12.6558 2.73527C13.8207 2.25276 15.1025 2.12652 16.3391 2.3725C17.5757 2.61848 18.7117 3.22564 19.6032 4.1172C20.4948 5.00876 21.1019 6.14467 21.3479 7.3813C21.5939 8.61793 21.4677 9.89973 20.9851 11.0646C20.5026 12.2295 19.6855 13.2251 18.6372 13.9256C17.5888 14.6261 16.3563 15 15.0954 15H7.59541C6.99648 14.9995 6.40484 14.8686 5.86162 14.6163C5.31839 14.3641 4.83661 13.9966 4.44976 13.5393C4.06291 13.0821 3.78027 12.5461 3.62149 11.9686C3.4627 11.3911 3.43157 10.786 3.53028 10.1952C3.62898 9.60447 3.85514 9.04231 4.19304 8.5478C4.53094 8.05328 4.97247 7.63829 5.48695 7.33164C6.00143 7.025 6.57652 6.83407 7.17224 6.77213C7.76796 6.71018 8.37002 6.7787 8.93659 6.97293" stroke="#3D3D3D" stroke-width="1.5" stroke-linecap="round" stroke-linejoin="round"/>
<path d="M7.59546 19.3125C8.11323 19.3125 8.53296 18.8928 8.53296 18.375C8.53296 17.8572 8.11323 17.4375 7.59546 17.4375C7.07769 17.4375 6.65796 17.8572 6.65796 18.375C6.65796 18.8928 7.07769 19.3125 7.59546 19.3125Z" fill="#3D3D3D"/>
<path d="M11.3455 20.8125C11.8632 20.8125 12.283 20.3928 12.283 19.875C12.283 19.3572 11.8632 18.9375 11.3455 18.9375C10.8277 18.9375 10.408 19.3572 10.408 19.875C10.408 20.3928 10.8277 20.8125 11.3455 20.8125Z" fill="#3D3D3D"/>
<path d="M15.8455 19.3125C16.3632 19.3125 16.783 18.8928 16.783 18.375C16.783 17.8572 16.3632 17.4375 15.8455 17.4375C15.3277 17.4375 14.908 17.8572 14.908 18.375C14.908 18.8928 15.3277 19.3125 15.8455 19.3125Z" fill="#3D3D3D"/>
<path d="M6.84546 23.0625C7.36323 23.0625 7.78296 22.6428 7.78296 22.125C7.78296 21.6072 7.36323 21.1875 6.84546 21.1875C6.32769 21.1875 5.90796 21.6072 5.90796 22.125C5.90796 22.6428 6.32769 23.0625 6.84546 23.0625Z" fill="#3D3D3D"/>
<path d="M15.0955 23.0625C15.6132 23.0625 16.033 22.6428 16.033 22.125C16.033 21.6072 15.6132 21.1875 15.0955 21.1875C14.5777 21.1875 14.158 21.6072 14.158 22.125C14.158 22.6428 14.5777 23.0625 15.0955 23.0625Z" fill="#3D3D3D"/>
</svg>
