<svg width="25" height="24" viewBox="0 0 25 24" fill="none" xmlns="http://www.w3.org/2000/svg">
<path d="M11.8969 18H7.39693M17.8969 18H15.6469M15.6469 21H10.3969M8.89693 8.625C8.89693 7.36415 9.27081 6.13161 9.97131 5.08324C10.6718 4.03488 11.6674 3.21778 12.8323 2.73527C13.9972 2.25276 15.279 2.12652 16.5156 2.3725C17.7523 2.61848 18.8882 3.22564 19.7797 4.1172C20.6713 5.00876 21.2785 6.14467 21.5244 7.3813C21.7704 8.61793 21.6442 9.89973 21.1617 11.0646C20.6792 12.2295 19.8621 13.2251 18.8137 13.9256C17.7653 14.6261 16.5328 15 15.2719 15H7.77193C7.173 14.9995 6.58136 14.8686 6.03813 14.6163C5.49491 14.3641 5.01313 13.9966 4.62628 13.5393C4.23943 13.0821 3.95679 12.5461 3.798 11.9686C3.63921 11.3911 3.60809 10.786 3.70679 10.1952C3.80549 9.60447 4.03165 9.04231 4.36955 8.5478C4.70745 8.05329 5.14899 7.63829 5.66347 7.33164C6.17795 7.025 6.75303 6.83407 7.34875 6.77213C7.94447 6.71018 8.54654 6.7787 9.1131 6.97293" stroke="#3D3D3D" stroke-width="1.5" stroke-linecap="round" stroke-linejoin="round"/>
</svg>
