<svg width="25" height="24" viewBox="0 0 25 24" fill="none" xmlns="http://www.w3.org/2000/svg">
<path d="M12.4118 22.5L14.8728 18.75M9.66963 19.5L12.6228 15M8.66182 8.625C8.66182 7.36415 9.03571 6.13161 9.7362 5.08324C10.4367 4.03488 11.4323 3.21778 12.5972 2.73527C13.7621 2.25276 15.0439 2.12652 16.2805 2.3725C17.5172 2.61848 18.6531 3.22564 19.5446 4.1172C20.4362 5.00876 21.0433 6.14467 21.2893 7.3813C21.5353 8.61793 21.4091 9.89973 20.9266 11.0646C20.444 12.2295 19.6269 13.2251 18.5786 13.9256C17.5302 14.6261 16.2977 15 15.0368 15H7.53682C6.93789 14.9995 6.34625 14.8686 5.80303 14.6163C5.2598 14.3641 4.77802 13.9966 4.39117 13.5393C4.00432 13.0821 3.72168 12.5461 3.56289 11.9686C3.4041 11.3911 3.37298 10.786 3.47168 10.1952C3.57038 9.60447 3.79654 9.04231 4.13444 8.5478C4.47234 8.05329 4.91388 7.63829 5.42836 7.33164C5.94284 7.025 6.51792 6.83407 7.11364 6.77213C7.70936 6.71018 8.31143 6.7787 8.87799 6.97293" stroke="#3D3D3D" stroke-width="1.5" stroke-linecap="round" stroke-linejoin="round"/>
</svg>
