<svg width="25" height="24" viewBox="0 0 25 24" fill="none" xmlns="http://www.w3.org/2000/svg">
<path d="M15.5859 15.3289L13.4104 21.3117C13.3578 21.4564 13.2619 21.5814 13.1358 21.6697C13.0097 21.758 12.8595 21.8054 12.7055 21.8054C12.5516 21.8054 12.4013 21.758 12.2752 21.6697C12.1491 21.5814 12.0533 21.4564 12.0007 21.3117L9.82513 15.3289C9.78767 15.2259 9.72811 15.1324 9.65061 15.0549C9.57312 14.9774 9.47958 14.9179 9.37659 14.8804L3.39384 12.7049C3.24916 12.6522 3.12417 12.5564 3.03585 12.4303C2.94752 12.3042 2.90015 12.154 2.90015 12C2.90015 11.8461 2.94752 11.6958 3.03585 11.5697C3.12417 11.4436 3.24916 11.3478 3.39384 11.2952L9.37659 9.11962C9.47958 9.08217 9.57312 9.0226 9.65061 8.94511C9.72811 8.86761 9.78767 8.77408 9.82513 8.67108L12.0007 2.68833C12.0533 2.54365 12.1491 2.41866 12.2752 2.33034C12.4013 2.24202 12.5516 2.19464 12.7055 2.19464C12.8595 2.19464 13.0097 2.24202 13.1358 2.33034C13.2619 2.41866 13.3578 2.54365 13.4104 2.68833L15.5859 8.67108C15.6234 8.77408 15.6829 8.86761 15.7604 8.94511C15.8379 9.0226 15.9314 9.08217 16.0344 9.11962L22.0172 11.2952C22.1619 11.3478 22.2869 11.4436 22.3752 11.5697C22.4635 11.6958 22.5109 11.8461 22.5109 12C22.5109 12.154 22.4635 12.3042 22.3752 12.4303C22.2869 12.5564 22.1619 12.6522 22.0172 12.7049L16.0344 14.8804C15.9314 14.9179 15.8379 14.9774 15.7604 15.0549C15.6829 15.1324 15.6234 15.2259 15.5859 15.3289Z" stroke="#3D3D3D" stroke-width="1.5" stroke-linecap="round" stroke-linejoin="round"/>
</svg>
