<svg width="25" height="24" viewBox="0 0 25 24" fill="none" xmlns="http://www.w3.org/2000/svg">
<path d="M12.5291 15.75C11.4935 15.75 10.6541 16.5895 10.6541 17.625C10.6541 18.6605 11.4935 19.5 12.5291 19.5C13.5646 19.5 14.4041 18.6605 14.4041 17.625C14.4041 16.5895 13.5646 15.75 12.5291 15.75ZM12.5291 15.75V8.25M9.52905 13.7836V4.5C9.52905 3.70435 9.84512 2.94129 10.4077 2.37868C10.9703 1.81607 11.7334 1.5 12.5291 1.5C13.3247 1.5 14.0878 1.81607 14.6504 2.37868C15.213 2.94129 15.5291 3.70435 15.5291 4.5V13.7836C16.329 14.4084 16.9147 15.2664 17.2031 16.2396C17.4915 17.2128 17.469 18.2517 17.1386 19.2115C16.8082 20.1713 16.1865 21.004 15.3601 21.5934C14.5338 22.1829 13.5441 22.4997 12.5291 22.4997C11.514 22.4997 10.5243 22.1829 9.69797 21.5934C8.87164 21.004 8.24991 20.1713 7.91952 19.2115C7.58914 18.2517 7.56657 17.2128 7.85497 16.2396C8.14337 15.2664 8.7291 14.4084 9.52905 13.7836Z" stroke="#3D3D3D" stroke-width="1.5" stroke-linecap="round" stroke-linejoin="round"/>
</svg>
