<svg width="25" height="24" viewBox="0 0 25 24" fill="none" xmlns="http://www.w3.org/2000/svg">
<path d="M17.3236 18.75C17.3236 19.3467 17.0865 19.919 16.6646 20.341C16.2426 20.763 15.6703 21 15.0736 21C14.4768 21 13.9045 20.763 13.4826 20.341C13.0606 19.919 12.8236 19.3467 12.8236 18.75V12.75M12.8236 3C10.379 3 8.0236 3.91825 6.22406 5.57281C4.42452 7.22737 3.31212 9.49753 3.10727 11.9335C3.09834 12.0372 3.11102 12.1416 3.14452 12.2401C3.17801 12.3386 3.2316 12.4291 3.30187 12.5059C3.37215 12.5826 3.45759 12.6439 3.55279 12.686C3.64798 12.728 3.75087 12.7498 3.85493 12.75H21.7922C21.8963 12.7498 21.9991 12.728 22.0943 12.686C22.1895 12.6439 22.275 12.5826 22.3453 12.5059C22.4155 12.4291 22.4691 12.3386 22.5026 12.2401C22.5361 12.1416 22.5488 12.0372 22.5399 11.9335C22.335 9.49753 21.2226 7.22737 19.4231 5.57281C17.6235 3.91825 15.2681 3 12.8236 3ZM12.8236 3C12.8236 3 9.07356 6.00001 9.07356 12.75M12.8236 3C12.8236 3 16.5736 6.00001 16.5736 12.75" stroke="#3D3D3D" stroke-width="1.5" stroke-linecap="round" stroke-linejoin="round"/>
</svg>
