<svg width="25" height="24" viewBox="0 0 25 24" fill="none" xmlns="http://www.w3.org/2000/svg">
<path d="M12.6682 18.0308C12.8108 18.4165 13.0564 18.7557 13.3782 19.0116C13.7 19.2675 14.0858 19.4303 14.4936 19.4824C14.9015 19.5345 15.3158 19.4739 15.6916 19.3071C16.0674 19.1403 16.3904 18.8738 16.6253 18.5364C16.8603 18.199 16.9984 17.8036 17.0245 17.3933C17.0506 16.983 16.9638 16.5733 16.7735 16.2089C16.5833 15.8444 16.2967 15.539 15.9451 15.3259C15.5935 15.1128 15.1902 15.0001 14.7791 15H4.27905M9.66822 5.96925C9.81084 5.58361 10.0564 5.24442 10.3782 4.98851C10.7 4.7326 11.0858 4.56975 11.4936 4.51765C11.9015 4.46555 12.3158 4.52619 12.6916 4.69298C13.0674 4.85977 13.3904 5.12633 13.6253 5.46373C13.8603 5.80112 13.9984 6.19645 14.0245 6.60678C14.0506 7.01711 13.9638 7.42676 13.7735 7.79123C13.5833 8.15571 13.2967 8.46108 12.9451 8.67419C12.5935 8.8873 12.1902 9 11.7791 9.00005H2.77905M17.9182 8.96925C18.0608 8.58361 18.3064 8.24442 18.6282 7.98851C18.95 7.7326 19.3358 7.56976 19.7436 7.51765C20.1515 7.46555 20.5658 7.52619 20.9416 7.69298C21.3174 7.85977 21.6404 8.12633 21.8753 8.46373C22.1103 8.80112 22.2484 9.19645 22.2745 9.60678C22.3006 10.0171 22.2138 10.4268 22.0236 10.7912C21.8333 11.1557 21.5467 11.4611 21.1951 11.6742C20.8435 11.8873 20.4402 12 20.0291 12H3.52905" stroke="#3D3D3D" stroke-width="1.5" stroke-linecap="round" stroke-linejoin="round"/>
</svg>
