<svg width="25" height="24" viewBox="0 0 25 24" fill="none" xmlns="http://www.w3.org/2000/svg">
<path d="M6.92759 6.78423C6.53228 6.90796 6.31213 7.32872 6.43586 7.72402C6.55958 8.11932 6.98034 8.33948 7.37564 8.21575L6.92759 6.78423ZM12.1765 6.74999L12.1712 7.50005L12.1817 7.49997L12.1765 6.74999ZM16.9772 8.21572C17.3725 8.33945 17.7933 8.11929 17.917 7.72399C18.0407 7.32868 17.8206 6.90793 17.4252 6.7842L16.9772 8.21572ZM17.4252 17.2158C17.8205 17.0921 18.0407 16.6713 17.917 16.276C17.7932 15.8807 17.3725 15.6605 16.9772 15.7843L17.4252 17.2158ZM12.1765 17.25L12.1817 16.4999L12.1712 16.5L12.1765 17.25ZM7.37571 15.7843C6.98041 15.6605 6.55965 15.8807 6.43593 16.276C6.3122 16.6713 6.53236 17.0921 6.92766 17.2158L7.37571 15.7843ZM15.3826 16.7353C15.1974 16.3648 14.7469 16.2147 14.3764 16.3999C14.0059 16.5852 13.8558 17.0357 14.041 17.4061L15.3826 16.7353ZM15.8392 19.3255L16.5111 18.9922L16.51 18.9901L15.8392 19.3255ZM16.6821 19.7201L16.8565 20.4495L16.8602 20.4486L16.6821 19.7201ZM22.4102 16.9216L21.9213 16.3528L21.9182 16.3555L22.4102 16.9216ZM22.642 16.135L23.3612 15.9223L23.3604 15.9195L22.642 16.135ZM19.4569 5.51819L20.1753 5.30267L20.1752 5.30245L19.4569 5.51819ZM19.0232 5.03921L19.3089 4.34576L19.3074 4.34513L19.0232 5.03921ZM16.2422 4.17831L16.0816 4.91093L16.0845 4.91155L16.2422 4.17831ZM15.3685 4.67391L14.6573 4.4358L14.657 4.43674L15.3685 4.67391ZM13.9095 6.67921C13.7785 7.07217 13.9909 7.49691 14.3838 7.62789C14.7768 7.75888 15.2015 7.54651 15.3325 7.15355L13.9095 6.67921ZM10.3119 17.4061C10.4972 17.0356 10.347 16.5851 9.97651 16.3999C9.60603 16.2146 9.15552 16.3648 8.97028 16.7353L10.3119 17.4061ZM8.51373 19.3255L7.84291 18.9901L7.84183 18.9922L8.51373 19.3255ZM7.67081 19.7201L7.49269 20.4486L7.4964 20.4495L7.67081 19.7201ZM1.94268 16.9216L2.4347 16.3555L2.43164 16.3529L1.94268 16.9216ZM1.71094 16.135L0.99256 15.9195L0.991738 15.9223L1.71094 16.135ZM4.89598 5.51818L4.17768 5.30245L4.17761 5.30267L4.89598 5.51818ZM5.32972 5.0392L5.04554 4.34512L5.04401 4.34576L5.32972 5.0392ZM8.11075 4.17831L8.26842 4.91156L8.2713 4.91093L8.11075 4.17831ZM8.98443 4.67391L9.69595 4.43674L9.69563 4.4358L8.98443 4.67391ZM9.02041 7.15355C9.15139 7.54651 9.57613 7.75888 9.96909 7.62789C10.362 7.49691 10.5744 7.07217 10.4434 6.67921L9.02041 7.15355ZM9.17646 15.1875C10.1084 15.1875 10.864 14.432 10.864 13.5H9.36396C9.36396 13.6035 9.28001 13.6875 9.17646 13.6875V15.1875ZM10.864 13.5C10.864 12.568 10.1084 11.8125 9.17646 11.8125V13.3125C9.28001 13.3125 9.36396 13.3964 9.36396 13.5H10.864ZM9.17646 11.8125C8.24447 11.8125 7.48896 12.568 7.48896 13.5H8.98896C8.98896 13.3964 9.0729 13.3125 9.17646 13.3125V11.8125ZM7.48896 13.5C7.48896 14.432 8.24447 15.1875 9.17646 15.1875V13.6875C9.0729 13.6875 8.98896 13.6035 8.98896 13.5H7.48896ZM15.1765 15.1875C16.1084 15.1875 16.864 14.432 16.864 13.5H15.364C15.364 13.6035 15.28 13.6875 15.1765 13.6875V15.1875ZM16.864 13.5C16.864 12.568 16.1084 11.8125 15.1765 11.8125V13.3125C15.28 13.3125 15.364 13.3964 15.364 13.5H16.864ZM15.1765 11.8125C14.2445 11.8125 13.489 12.568 13.489 13.5H14.989C14.989 13.3964 15.0729 13.3125 15.1765 13.3125V11.8125ZM13.489 13.5C13.489 14.432 14.2445 15.1875 15.1765 15.1875V13.6875C15.0729 13.6875 14.989 13.6035 14.989 13.5H13.489ZM7.37564 8.21575C8.9274 7.73006 10.5452 7.48858 12.1712 7.49997L12.1817 6.00001C10.4003 5.98753 8.62773 6.2521 6.92759 6.78423L7.37564 8.21575ZM12.1817 7.49997C13.8076 7.48858 15.4255 7.73005 16.9772 8.21572L17.4252 6.7842C15.7251 6.25209 13.9526 5.98753 12.1712 6.00001L12.1817 7.49997ZM16.9772 15.7843C15.4254 16.2699 13.8076 16.5114 12.1817 16.5L12.1712 18C13.9526 18.0125 15.7251 17.7479 17.4252 17.2158L16.9772 15.7843ZM12.1712 16.5C10.5453 16.5114 8.92745 16.2699 7.37571 15.7843L6.92766 17.2158C8.62779 17.7479 10.4003 18.0125 12.1817 18L12.1712 16.5ZM14.041 17.4061L15.1684 19.6609L16.51 18.9901L15.3826 16.7353L14.041 17.4061ZM15.1673 19.6587C15.3178 19.9622 15.5669 20.2057 15.8737 20.3493L16.5097 18.9908C16.5103 18.9911 16.5108 18.9916 16.5111 18.9922L15.1673 19.6587ZM15.8737 20.3493C16.1805 20.493 16.527 20.5283 16.8565 20.4495L16.5077 18.9906C16.5084 18.9905 16.5091 18.9905 16.5097 18.9908L15.8737 20.3493ZM16.8602 20.4486C19.2538 19.8634 21.3513 18.8357 22.9023 17.4876L21.9182 16.3555C20.5803 17.5184 18.7114 18.4519 16.504 18.9915L16.8602 20.4486ZM22.8992 17.4903C23.1191 17.3012 23.2797 17.0526 23.3616 16.7745L21.9228 16.3505C21.9225 16.3514 21.922 16.3522 21.9213 16.3529L22.8992 17.4903ZM23.3616 16.7745C23.4436 16.4963 23.4434 16.2004 23.3612 15.9223L21.9228 16.3478C21.9231 16.3487 21.9231 16.3496 21.9228 16.3505L23.3616 16.7745ZM23.3604 15.9195L20.1753 5.30267L18.7386 5.7337L21.9236 16.3505L23.3604 15.9195ZM20.1752 5.30245C20.111 5.08862 19.9999 4.8918 19.8501 4.72631L18.7382 5.73316L18.7386 5.73392L20.1752 5.30245ZM19.8501 4.72631C19.7002 4.56081 19.5153 4.43081 19.3089 4.34576L18.7375 5.73266L18.7382 5.73316L19.8501 4.72631ZM19.3074 4.34513C18.3666 3.95996 17.3937 3.65876 16.3998 3.44507L16.0845 4.91155C16.9918 5.10665 17.8801 5.38163 18.739 5.73329L19.3074 4.34513ZM16.4027 3.4457C16.0409 3.36641 15.6625 3.42364 15.3403 3.60641L16.0804 4.91111C16.0808 4.9109 16.0812 4.91084 16.0816 4.91093L16.4027 3.4457ZM15.3403 3.60641C15.0181 3.78917 14.7749 4.08456 14.6573 4.4358L16.0797 4.91203C16.0798 4.91164 16.0801 4.91131 16.0804 4.91111L15.3403 3.60641ZM14.657 4.43674L13.9095 6.67921L15.3325 7.15355L16.08 4.91109L14.657 4.43674ZM8.97028 16.7353L7.84291 18.9901L9.18455 19.6609L10.3119 17.4061L8.97028 16.7353ZM7.84183 18.9922C7.84213 18.9916 7.84263 18.9911 7.84325 18.9908L8.47923 20.3493C8.78606 20.2057 9.0351 19.9622 9.18563 19.6587L7.84183 18.9922ZM7.84325 18.9908C7.84386 18.9905 7.84456 18.9905 7.84522 18.9906L7.4964 20.4495C7.8259 20.5283 8.17239 20.493 8.47923 20.3493L7.84325 18.9908ZM7.84892 18.9915C5.64155 18.4519 3.77264 17.5184 2.43469 16.3555L1.45067 17.4876C3.00159 18.8357 5.09907 19.8634 7.49269 20.4486L7.84892 18.9915ZM2.43164 16.3529C2.43092 16.3523 2.4304 16.3514 2.43013 16.3505L0.991286 16.7745C1.07324 17.0526 1.23383 17.3012 1.45372 17.4903L2.43164 16.3529ZM2.43013 16.3505C2.42986 16.3496 2.42987 16.3487 2.43013 16.3478L0.991738 15.9223C0.909484 16.2004 0.909326 16.4963 0.991286 16.7745L2.43013 16.3505ZM2.42931 16.3505L5.61435 5.73369L4.17761 5.30267L0.992566 15.9195L2.42931 16.3505ZM5.61428 5.73392L5.61471 5.73315L4.50284 4.7263C4.35298 4.8918 4.2419 5.08862 4.17768 5.30245L5.61428 5.73392ZM5.61471 5.73315L5.61543 5.73265L5.04401 4.34576C4.83758 4.43081 4.65271 4.56081 4.50284 4.7263L5.61471 5.73315ZM5.61389 5.73328C6.47277 5.38163 7.36107 5.10665 8.26842 4.91155L7.95309 3.44507C6.95927 3.65876 5.98629 3.95995 5.04554 4.34513L5.61389 5.73328ZM8.2713 4.91093C8.2717 4.91084 8.27212 4.9109 8.27248 4.91111L9.01258 3.60641C8.6904 3.42365 8.31204 3.36641 7.95021 3.4457L8.2713 4.91093ZM8.27248 4.91111C8.27283 4.91131 8.2731 4.91164 8.27324 4.91203L9.69563 4.4358C9.57803 4.08456 9.33476 3.78917 9.01258 3.60641L8.27248 4.91111ZM8.27292 4.91108L9.02041 7.15355L10.4434 6.67921L9.69595 4.43674L8.27292 4.91108Z" fill="#3D3D3D"/>
</svg>
