<svg width="25" height="24" viewBox="0 0 25 24" fill="none" xmlns="http://www.w3.org/2000/svg">
<path d="M15.5404 8.81251C13.78 8.81251 12.3529 10.2396 12.3529 12C12.3529 13.7604 13.78 15.1875 15.5404 15.1875C17.3008 15.1875 18.7279 13.7604 18.7279 12C18.7279 10.2396 17.3008 8.81251 15.5404 8.81251ZM15.5404 8.81251C16.3858 8.81251 17.1965 8.47677 17.7943 7.87899C18.3921 7.28122 18.7279 6.47047 18.7279 5.62509C18.7279 4.77971 18.3921 3.96896 17.7943 3.37119C17.1965 2.77342 16.3858 2.43759 15.5404 2.43759H12.3529M15.5404 8.81251H12.3529M12.3529 8.81251V2.43759M12.3529 8.81251L9.16541 8.81259M12.3529 8.81251V15.1874M12.3529 2.43759H9.16541C8.32003 2.43759 7.50928 2.77342 6.9115 3.37119C6.31373 3.96896 5.97791 4.77971 5.97791 5.62509C5.97791 6.47047 6.31373 7.28122 6.9115 7.87899C7.50928 8.47677 8.32003 8.81259 9.16541 8.81259M9.16541 8.81259C8.32003 8.81259 7.50928 9.14833 6.9115 9.7461C6.31373 10.3439 5.97791 11.1546 5.97791 12C5.97791 12.8454 6.31373 13.6561 6.9115 14.2539C7.50928 14.8517 8.32003 15.1875 9.16541 15.1875M12.3529 15.1874L9.16541 15.1875M12.3529 15.1874L12.3529 18.375C12.3529 19.0054 12.166 19.6217 11.8157 20.1459C11.4655 20.67 10.9677 21.0786 10.3852 21.3199C9.8028 21.5611 9.1619 21.6243 8.54358 21.5013C7.92526 21.3783 7.3573 21.0747 6.91152 20.6289C6.46573 20.1831 6.16215 19.6152 6.03916 18.9969C5.91616 18.3786 5.97928 17.7377 6.22054 17.1552C6.46179 16.5728 6.87034 16.075 7.39452 15.7247C7.91871 15.3745 8.53498 15.1875 9.16541 15.1875" stroke="#3D3D3D" stroke-width="1.5" stroke-linecap="round" stroke-linejoin="round"/>
</svg>
