<svg width="25" height="24" viewBox="0 0 25 24" fill="none" xmlns="http://www.w3.org/2000/svg">
<path d="M12.3529 12V9.75C12.3529 9.15327 12.1159 8.58097 11.6939 8.15901C11.2719 7.73706 10.6996 7.5 10.1029 7.5M12.3529 12H5.60291M12.3529 12L14.6029 12C15.1996 12 15.7719 11.763 16.1939 11.341C16.6159 10.919 16.8529 10.3467 16.8529 9.75001M12.3529 12V5.25M12.3529 12V14.25C12.3529 14.8467 12.59 15.419 13.0119 15.841C13.4339 16.2629 14.0062 16.5 14.6029 16.5M12.3529 12L19.1029 12M12.3529 12L10.1029 12C9.50617 12 8.93387 12.2371 8.51192 12.659C8.08996 13.081 7.85291 13.6533 7.85291 14.25M12.3529 12V18.75M5.60291 12C5.00617 12 4.43387 11.763 4.01192 11.341C3.58996 10.919 3.35291 10.3467 3.35291 9.75C3.35291 9.15327 3.58996 8.58097 4.01192 8.15901C4.43387 7.73706 5.00617 7.5 5.60291 7.5H10.1029M5.60291 12C5.00617 12 4.43387 12.2371 4.01192 12.659C3.58996 13.081 3.35291 13.6533 3.35291 14.25C3.35291 14.8467 3.58996 15.419 4.01192 15.841C4.43387 16.2629 5.00617 16.5 5.60291 16.5C6.19964 16.5 6.77194 16.2629 7.1939 15.841C7.61585 15.419 7.85291 14.8467 7.85291 14.25M5.60291 12L7.85291 12V14.25M10.1029 7.5L12.3529 7.5V5.25M10.1029 7.5C9.50617 7.5 8.93387 7.26295 8.51192 6.84099C8.08996 6.41903 7.85291 5.84674 7.85291 5.25C7.85291 4.65326 8.08996 4.08097 8.51192 3.65901C8.93387 3.23705 9.50617 3 10.1029 3C10.6996 3 11.2719 3.23705 11.6939 3.65901C12.1159 4.08097 12.3529 4.65326 12.3529 5.25M12.3529 5.25C12.3529 4.65326 12.59 4.08097 13.0119 3.65901C13.4339 3.23706 14.0062 3 14.6029 3C15.1996 3 15.7719 3.23706 16.1939 3.65901C16.6159 4.08097 16.8529 4.65327 16.8529 5.25V9.75001M16.8529 9.75001V12H19.1029M16.8529 9.75001C16.8529 9.15327 17.09 8.58097 17.5119 8.15901C17.9339 7.73705 18.5062 7.5 19.1029 7.5C19.6996 7.5 20.2719 7.73705 20.6939 8.15901C21.1159 8.58097 21.3529 9.15326 21.3529 9.75C21.3529 10.3467 21.1159 10.919 20.6939 11.341C20.2719 11.7629 19.6996 12 19.1029 12M19.1029 12C19.6996 12 20.2719 12.2371 20.6939 12.659C21.1159 13.081 21.3529 13.6533 21.3529 14.25C21.3529 14.8467 21.1159 15.419 20.6939 15.841C20.2719 16.263 19.6996 16.5 19.1029 16.5H14.6029M14.6029 16.5L12.3529 16.5V18.75M14.6029 16.5C15.1996 16.5 15.7719 16.7371 16.1939 17.159C16.6159 17.581 16.8529 18.1533 16.8529 18.75C16.8529 19.3467 16.6159 19.919 16.1939 20.341C15.7719 20.7629 15.1996 21 14.6029 21C14.0062 21 13.4339 20.7629 13.0119 20.341C12.59 19.919 12.3529 19.3467 12.3529 18.75M12.3529 18.75C12.3529 19.3467 12.1159 19.919 11.6939 20.341C11.2719 20.7629 10.6996 21 10.1029 21C9.50617 21 8.93387 20.7629 8.51192 20.341C8.08996 19.919 7.85291 19.3467 7.85291 18.75V14.25" stroke="#3D3D3D" stroke-width="1.5" stroke-linecap="round" stroke-linejoin="round"/>
</svg>
