<svg width="25" height="24" viewBox="0 0 25 24" fill="none" xmlns="http://www.w3.org/2000/svg">
<path d="M8.73632 14.25C8.73632 15.4926 10.2502 16.5 12.1176 16.5C13.9851 16.5 15.499 15.4926 15.499 14.25C15.499 11.25 8.92417 12.375 8.92417 9.75C8.92417 8.50736 10.2502 7.5 12.1176 7.5C13.5182 7.5 14.6143 8.06664 15.0748 8.8742M4.61765 3.75H19.6176C20.0319 3.75 20.3676 4.08579 20.3676 4.5V19.5C20.3676 19.9142 20.0319 20.25 19.6176 20.25H4.61765C4.20343 20.25 3.86765 19.9142 3.86765 19.5V4.5C3.86765 4.08579 4.20343 3.75 4.61765 3.75Z" stroke="#3D3D3D" stroke-width="1.5" stroke-linecap="round" stroke-linejoin="round"/>
</svg>
