<svg width="25" height="24" viewBox="0 0 25 24" fill="none" xmlns="http://www.w3.org/2000/svg">
<path d="M15.9852 9.9359C17.5141 11.037 19.3512 11.628 21.2353 11.625V7.875C19.8429 7.875 18.5075 7.32188 17.523 6.33731C16.5384 5.35274 15.9853 4.01739 15.9853 2.625H12.2353V14.625C12.2352 15.0947 12.109 15.5558 11.87 15.9602C11.6309 16.3645 11.2877 16.6974 10.8762 16.9239C10.4647 17.1504 9.99999 17.2624 9.53047 17.2481C9.06096 17.2338 8.60387 17.0938 8.2069 16.8427C7.80994 16.5916 7.48763 16.2385 7.2736 15.8204C7.05957 15.4022 6.96167 14.9343 6.9901 14.4654C7.01853 13.9966 7.17225 13.5439 7.43524 13.1547C7.69822 12.7655 8.06083 12.454 8.48523 12.2526L8.48529 8.34895C7.29146 8.56287 6.18343 9.11287 5.29121 9.93441C4.399 10.7559 3.75963 11.8149 3.44814 12.9871C3.13665 14.1592 3.16596 15.3959 3.53264 16.552C3.89931 17.7081 4.58814 18.7356 5.51828 19.5139C6.44841 20.2923 7.58126 20.7892 8.78388 20.9463C9.9865 21.1034 11.209 20.9142 12.3079 20.401C13.4067 19.8877 14.3364 19.0716 14.9878 18.0486C15.6392 17.0255 15.9852 15.8378 15.9853 14.625L15.9852 9.9359Z" stroke="#3D3D3D" stroke-width="1.5" stroke-linecap="round" stroke-linejoin="round"/>
</svg>
