<svg width="25" height="24" viewBox="0 0 25 24" fill="none" xmlns="http://www.w3.org/2000/svg">
<path d="M12.3529 8.25027C12.353 7.38867 12.6497 6.55337 13.1932 5.8848C13.7367 5.21624 14.4938 4.75517 15.3372 4.57913C16.1806 4.40309 17.059 4.5228 17.8245 4.91814C18.59 5.31348 19.1961 5.96034 19.5409 6.74997L22.8529 6.75L19.8283 9.77461C19.6314 12.8168 18.284 15.67 16.0599 17.7548C13.8357 19.8397 10.9015 20.9999 7.85292 21C4.85292 21 4.10292 19.875 4.10292 19.875C4.10292 19.875 7.10292 18.75 8.60292 16.5C8.60292 16.5 2.60292 13.5 4.10292 5.25C4.10292 5.25 7.85292 9 12.3516 9.75L12.3529 8.25027Z" stroke="#3D3D3D" stroke-width="1.5" stroke-linecap="round" stroke-linejoin="round"/>
</svg>
