<svg width="25" height="24" viewBox="0 0 25 24" fill="none" xmlns="http://www.w3.org/2000/svg">
<path d="M4.67075 16.5936C3.55256 14.7086 3.16096 12.4802 3.56949 10.3269C3.97801 8.17363 5.15856 6.24353 6.88944 4.89906C8.62033 3.55459 10.7825 2.88823 12.9699 3.02511C15.1573 3.16199 17.2196 4.0927 18.7693 5.64247C20.3191 7.19223 21.2498 9.25445 21.3867 11.4419C21.5236 13.6293 20.8573 15.7915 19.5128 17.5224C18.1683 19.2532 16.2382 20.4338 14.085 20.8423C11.9317 21.2509 9.7033 20.8593 7.81829 19.7411L4.70989 20.6291C4.58128 20.6659 4.44519 20.6676 4.31571 20.634C4.18624 20.6005 4.06809 20.5329 3.97351 20.4383C3.87893 20.3437 3.81137 20.2256 3.77782 20.0961C3.74427 19.9666 3.74595 19.8306 3.7827 19.7019L4.67075 16.5936Z" stroke="#3D3D3D" stroke-width="1.5" stroke-linecap="round" stroke-linejoin="round"/>
<path d="M14.6724 17.25C13.6857 17.2514 12.7084 17.0581 11.7966 16.6811C10.8847 16.3042 10.0562 15.751 9.35848 15.0533C8.66077 14.3556 8.1076 13.5271 7.73065 12.6152C7.3537 11.7033 7.16039 10.7261 7.16179 9.73935C7.16402 9.04482 7.44164 8.37954 7.93374 7.88943C8.42585 7.39933 9.09225 7.12442 9.78678 7.12501C9.9007 7.12501 10.0126 7.15512 10.1111 7.2123C10.2097 7.26948 10.2913 7.35169 10.3478 7.4506L11.4439 9.36866C11.51 9.48433 11.5441 9.61552 11.5426 9.74874C11.5412 9.88196 11.5043 10.0124 11.4358 10.1266L10.5556 11.5937C11.0084 12.5987 11.8131 13.4034 12.8181 13.8562L14.2852 12.976C14.3994 12.9074 14.5298 12.8706 14.663 12.8692C14.7963 12.8677 14.9275 12.9018 15.0431 12.9679L16.9612 14.064C17.0601 14.1205 17.1423 14.2021 17.1995 14.3007C17.2567 14.3992 17.2868 14.5111 17.2868 14.625C17.2848 15.3187 17.0091 15.9837 16.5195 16.4752C16.03 16.9668 15.3662 17.2452 14.6724 17.25Z" stroke="#3D3D3D" stroke-width="1.5" stroke-linecap="round" stroke-linejoin="round"/>
</svg>
