<svg width="24" height="24" viewBox="0 0 24 24" fill="none" xmlns="http://www.w3.org/2000/svg">
<path d="M12.375 16.875L9.46878 19.7813C9.25975 19.991 9.01136 20.1574 8.73787 20.271C8.46438 20.3846 8.17116 20.443 7.87503 20.443C7.5789 20.443 7.28568 20.3846 7.01219 20.271C6.7387 20.1574 6.49031 19.991 6.28128 19.7813L4.21878 17.7188C4.00902 17.5097 3.84259 17.2613 3.72903 16.9878C3.61546 16.7144 3.55701 16.4211 3.55701 16.125C3.55701 15.8289 3.61546 15.5357 3.72903 15.2622C3.84259 14.9887 4.00902 14.7403 4.21878 14.5313L7.12503 11.625M5.25 18.75L2.25 21.75M21.75 2.25L18.75 5.25M13.5 13.5L11.25 15.75M10.5 10.5L8.25 12.75M16.875 12.375L19.7813 9.46874C19.991 9.2597 20.1574 9.01132 20.271 8.73783C20.3846 8.46434 20.443 8.17112 20.443 7.87499C20.443 7.57885 20.3846 7.28564 20.271 7.01214C20.1574 6.73865 19.991 6.49027 19.7813 6.28124L17.7188 4.21874C17.5097 4.00898 17.2613 3.84254 16.9878 3.72898C16.7144 3.61542 16.4211 3.55696 16.125 3.55696C15.8289 3.55696 15.5357 3.61542 15.2622 3.72898C14.9887 3.84254 14.7403 4.00898 14.5313 4.21874L11.625 7.12499M10.875 6.375L17.625 13.125M6.375 10.875L13.125 17.625" stroke="#3D3D3D" stroke-width="1.5" stroke-linecap="round" stroke-linejoin="round"/>
</svg>
