<svg width="24" height="24" viewBox="0 0 24 24" fill="none" xmlns="http://www.w3.org/2000/svg">
<g clip-path="url(#clip0_38_1064)">
<path d="M8.46967 14.4697C8.17678 14.7626 8.17678 15.2374 8.46967 15.5303C8.76256 15.8232 9.23744 15.8232 9.53033 15.5303L8.46967 14.4697ZM15.5303 9.53033C15.8232 9.23744 15.8232 8.76256 15.5303 8.46967C15.2374 8.17678 14.7626 8.17678 14.4697 8.46967L15.5303 9.53033ZM9.53033 15.5303L15.5303 9.53033L14.4697 8.46967L8.46967 14.4697L9.53033 15.5303ZM9.5 10.75C10.1904 10.75 10.75 10.1904 10.75 9.5H9.25C9.25 9.36193 9.36193 9.25 9.5 9.25V10.75ZM10.75 9.5C10.75 8.80964 10.1904 8.25 9.5 8.25V9.75C9.36193 9.75 9.25 9.63807 9.25 9.5H10.75ZM9.5 8.25C8.80964 8.25 8.25 8.80964 8.25 9.5H9.75C9.75 9.63807 9.63807 9.75 9.5 9.75V8.25ZM8.25 9.5C8.25 10.1904 8.80964 10.75 9.5 10.75V9.25C9.63807 9.25 9.75 9.36193 9.75 9.5H8.25ZM14.5 15.75C15.1904 15.75 15.75 15.1904 15.75 14.5H14.25C14.25 14.3619 14.3619 14.25 14.5 14.25V15.75ZM15.75 14.5C15.75 13.8096 15.1904 13.25 14.5 13.25V14.75C14.3619 14.75 14.25 14.6381 14.25 14.5H15.75ZM14.5 13.25C13.8096 13.25 13.25 13.8096 13.25 14.5H14.75C14.75 14.6381 14.6381 14.75 14.5 14.75V13.25ZM13.25 14.5C13.25 15.1904 13.8096 15.75 14.5 15.75V14.25C14.6381 14.25 14.75 14.3619 14.75 14.5H13.25ZM20.25 12C20.25 16.5563 16.5563 20.25 12 20.25V21.75C17.3848 21.75 21.75 17.3848 21.75 12H20.25ZM12 20.25C7.44365 20.25 3.75 16.5563 3.75 12H2.25C2.25 17.3848 6.61522 21.75 12 21.75V20.25ZM3.75 12C3.75 7.44365 7.44365 3.75 12 3.75V2.25C6.61522 2.25 2.25 6.61522 2.25 12H3.75ZM12 3.75C16.5563 3.75 20.25 7.44365 20.25 12H21.75C21.75 6.61522 17.3848 2.25 12 2.25V3.75Z" fill="#3D3D3D"/>
</g>
<defs>
<clipPath id="clip0_38_1064">
<rect width="24" height="24" fill="white"/>
</clipPath>
</defs>
</svg>
