<svg width="25" height="24" viewBox="0 0 25 24" fill="none" xmlns="http://www.w3.org/2000/svg">
<path d="M8.967 11.5156C8.38884 10.0735 8.32634 8.47599 8.79004 6.99314C9.25375 5.51028 10.2152 4.23301 11.512 3.37721C12.8087 2.52142 14.3611 2.1396 15.9069 2.2963C17.4526 2.45299 18.8969 3.13859 19.9955 4.2372C21.0941 5.33582 21.7797 6.78006 21.9364 8.3258C22.0931 9.87155 21.7112 11.424 20.8554 12.7207C19.9997 14.0175 18.7224 14.9789 17.2395 15.4426C15.7567 15.9063 14.1592 15.8438 12.7171 15.2657L12.7171 15.2655L11.4827 16.5H9.23267V18.75H6.98267V21H3.23267V17.25L8.96717 11.5155L8.967 11.5156Z" stroke="#3D3D3D" stroke-width="1.5" stroke-linecap="round" stroke-linejoin="round"/>
<path d="M17.1066 8.0625C17.6239 8.0625 18.0432 7.64277 18.0432 7.125C18.0432 6.60723 17.6239 6.1875 17.1066 6.1875C16.5893 6.1875 16.1699 6.60723 16.1699 7.125C16.1699 7.64277 16.5893 8.0625 17.1066 8.0625Z" fill="#3D3D3D"/>
</svg>
