<svg width="25" height="24" viewBox="0 0 25 24" fill="none" xmlns="http://www.w3.org/2000/svg">
<path d="M9.50488 8.25V4.875C9.50488 3.97989 9.86046 3.12145 10.4934 2.48851C11.1263 1.85558 11.9848 1.5 12.8799 1.5C13.775 1.5 14.6334 1.85558 15.2664 2.48851C15.8993 3.12145 16.2549 3.97989 16.2549 4.875M5.37988 8.25H20.3799C20.7941 8.25 21.1299 8.58579 21.1299 9V19.5C21.1299 19.9142 20.7941 20.25 20.3799 20.25H5.37988C4.96567 20.25 4.62988 19.9142 4.62988 19.5V9C4.62988 8.58579 4.96567 8.25 5.37988 8.25Z" stroke="#3D3D3D" stroke-width="1.5" stroke-linecap="round" stroke-linejoin="round"/>
<path d="M12.879 15.1875C13.3963 15.1875 13.8157 14.7678 13.8157 14.25C13.8157 13.7322 13.3963 13.3125 12.879 13.3125C12.3617 13.3125 11.9424 13.7322 11.9424 14.25C11.9424 14.7678 12.3617 15.1875 12.879 15.1875Z" fill="#3D3D3D"/>
</svg>
