<svg width="24" height="24" viewBox="0 0 24 24" fill="none" xmlns="http://www.w3.org/2000/svg">
<path d="M3.375 9.75C3.375 10.1642 3.71079 10.5 4.125 10.5C4.53921 10.5 4.875 10.1642 4.875 9.75H3.375ZM4.875 4.125V4.875V4.125ZM13.5 19.125C13.0858 19.125 12.75 19.4608 12.75 19.875C12.75 20.2892 13.0858 20.625 13.5 20.625V19.125ZM5.25 15.75C4.83579 15.75 4.5 16.0858 4.5 16.5C4.5 16.9142 4.83579 17.25 5.25 17.25V15.75ZM8.25 17.25C8.66421 17.25 9 16.9142 9 16.5C9 16.0858 8.66421 15.75 8.25 15.75V17.25ZM7.5 15C7.5 14.5858 7.16421 14.25 6.75 14.25C6.33579 14.25 6 14.5858 6 15L7.5 15ZM6 18C6 18.4142 6.33579 18.75 6.75 18.75C7.16421 18.75 7.5 18.4142 7.5 18H6ZM4.875 9.75V4.875H3.375V9.75H4.875ZM4.875 4.875L4.875 4.875L3.81434 3.81434C3.53304 4.09564 3.375 4.47717 3.375 4.875H4.875ZM4.875 4.875L4.875 4.875V3.375C4.47717 3.375 4.09564 3.53304 3.81434 3.81434L4.875 4.875ZM4.875 4.875H19.125V3.375H4.875V4.875ZM19.125 4.875L19.125 4.875L20.1857 3.81434C19.9044 3.53304 19.5228 3.375 19.125 3.375V4.875ZM19.125 4.875L19.125 4.875H20.625C20.625 4.47718 20.467 4.09565 20.1857 3.81434L19.125 4.875ZM19.125 4.875V19.125H20.625V4.875H19.125ZM19.125 19.125H19.125L20.1857 20.1857C20.467 19.9044 20.625 19.5228 20.625 19.125H19.125ZM19.125 19.125H19.125V20.625C19.5228 20.625 19.9044 20.467 20.1857 20.1857L19.125 19.125ZM19.125 19.125H13.5V20.625H19.125V19.125ZM5.25 17.25H8.25V15.75H5.25V17.25ZM6 15L6 18H7.5V15L6 15ZM10.5 16.5C10.5 18.5711 8.82107 20.25 6.75 20.25V21.75C9.6495 21.75 12 19.3995 12 16.5H10.5ZM6.75 20.25C4.67893 20.25 3 18.5711 3 16.5H1.5C1.5 19.3995 3.85051 21.75 6.75 21.75V20.25ZM3 16.5C3 14.4289 4.67893 12.75 6.75 12.75V11.25C3.85051 11.25 1.5 13.6005 1.5 16.5H3ZM6.75 12.75C8.82107 12.75 10.5 14.4289 10.5 16.5H12C12 13.6005 9.6495 11.25 6.75 11.25V12.75Z" fill="#3D3D3D"/>
</svg>
