<svg width="24" height="24" viewBox="0 0 24 24" fill="none" xmlns="http://www.w3.org/2000/svg">
<path d="M3.375 9.75C3.375 10.1642 3.71079 10.5 4.125 10.5C4.53921 10.5 4.875 10.1642 4.875 9.75H3.375ZM4.875 4.125V4.875V4.125ZM13.5 19.125C13.0858 19.125 12.75 19.4608 12.75 19.875C12.75 20.2892 13.0858 20.625 13.5 20.625V19.125ZM6.21967 14.909C5.92678 14.6161 5.4519 14.6161 5.15901 14.909C4.86612 15.2019 4.86612 15.6768 5.15901 15.9697L6.21967 14.909ZM7.28033 18.091C7.57322 18.3839 8.0481 18.3839 8.34099 18.091C8.63388 17.7981 8.63388 17.3232 8.34099 17.0303L7.28033 18.091ZM8.34099 15.9697C8.63388 15.6768 8.63388 15.2019 8.34099 14.909C8.0481 14.6161 7.57322 14.6161 7.28033 14.909L8.34099 15.9697ZM5.15901 17.0303C4.86612 17.3232 4.86612 17.7981 5.15901 18.091C5.4519 18.3839 5.92678 18.3839 6.21967 18.091L5.15901 17.0303ZM4.875 9.75V4.875H3.375V9.75H4.875ZM4.875 4.875L4.875 4.875L3.81434 3.81434C3.53304 4.09564 3.375 4.47717 3.375 4.875H4.875ZM4.875 4.875L4.875 4.875V3.375C4.47717 3.375 4.09564 3.53304 3.81434 3.81434L4.875 4.875ZM4.875 4.875H19.125V3.375H4.875V4.875ZM19.125 4.875L19.125 4.875L20.1857 3.81434C19.9044 3.53304 19.5228 3.375 19.125 3.375V4.875ZM19.125 4.875L19.125 4.875H20.625C20.625 4.47718 20.467 4.09565 20.1857 3.81434L19.125 4.875ZM19.125 4.875V19.125H20.625V4.875H19.125ZM19.125 19.125H19.125L20.1857 20.1857C20.467 19.9044 20.625 19.5228 20.625 19.125H19.125ZM19.125 19.125H19.125V20.625C19.5228 20.625 19.9044 20.467 20.1857 20.1857L19.125 19.125ZM19.125 19.125H13.5V20.625H19.125V19.125ZM5.15901 15.9697L7.28033 18.091L8.34099 17.0303L6.21967 14.909L5.15901 15.9697ZM7.28033 14.909L5.15901 17.0303L6.21967 18.091L8.34099 15.9697L7.28033 14.909ZM10.5 16.5C10.5 18.5711 8.82107 20.25 6.75 20.25V21.75C9.6495 21.75 12 19.3995 12 16.5H10.5ZM6.75 20.25C4.67893 20.25 3 18.5711 3 16.5H1.5C1.5 19.3995 3.85051 21.75 6.75 21.75V20.25ZM3 16.5C3 14.4289 4.67893 12.75 6.75 12.75V11.25C3.85051 11.25 1.5 13.6005 1.5 16.5H3ZM6.75 12.75C8.82107 12.75 10.5 14.4289 10.5 16.5H12C12 13.6005 9.6495 11.25 6.75 11.25V12.75Z" fill="#3D3D3D"/>
</svg>
