<svg width="24" height="24" viewBox="0 0 24 24" fill="none" xmlns="http://www.w3.org/2000/svg">
<path d="M14.2502 3H5.24951C5.0506 3 4.85983 3.07902 4.71918 3.21967C4.57853 3.36032 4.49951 3.55109 4.49951 3.75V20.25C4.49951 20.4489 4.57853 20.6397 4.71918 20.7803C4.85983 20.921 5.0506 21 5.24951 21H18.7502C18.8487 21 18.9463 20.9806 19.0373 20.9429C19.1283 20.9052 19.2109 20.85 19.2806 20.7803C19.3502 20.7107 19.4055 20.628 19.4432 20.537C19.4808 20.446 19.5002 20.3485 19.5002 20.25V8.25M14.2502 3L19.5002 8.25M14.2502 3V8.25H19.5002M9.37524 13.875L12.0002 11.25M12.0002 11.25L14.6252 13.875M12.0002 11.25V17.25" stroke="#3D3D3D" stroke-width="1.5" stroke-linecap="round" stroke-linejoin="round"/>
</svg>
