<svg width="25" height="24" viewBox="0 0 25 24" fill="none" xmlns="http://www.w3.org/2000/svg">
<path d="M12.0588 7.5H20.3088C20.5078 7.5 20.6985 7.57902 20.8392 7.71967C20.9798 7.86032 21.0588 8.05109 21.0588 8.25V18.75C21.0588 18.9489 20.9798 19.1397 20.8392 19.2803C20.6985 19.421 20.5078 19.5 20.3088 19.5H3.80884C3.6101 19.4994 3.41968 19.4202 3.27915 19.2797C3.13862 19.1392 3.05942 18.9487 3.05884 18.75V9.75M12.0588 7.5L9.25884 5.4C9.12902 5.30263 8.97112 5.25 8.80884 5.25H3.80884C3.60993 5.25 3.41916 5.32902 3.27851 5.46967C3.13786 5.61032 3.05884 5.80109 3.05884 6V9.75M12.0588 7.5L9.25884 9.6C9.12902 9.69737 8.97112 9.75 8.80884 9.75H3.05884M9.80856 13.875H14.3086M12.0586 11.625V16.125" stroke="#3D3D3D" stroke-width="1.5" stroke-linecap="round" stroke-linejoin="round"/>
</svg>
