<svg width="24" height="24" viewBox="0 0 24 24" fill="none" xmlns="http://www.w3.org/2000/svg">
<path d="M3.94556 4.5H20.0547C20.2 4.5 20.3422 4.54221 20.464 4.62149C20.5857 4.70077 20.6818 4.81371 20.7406 4.94658C20.7994 5.07946 20.8183 5.22655 20.7951 5.36998C20.7718 5.51341 20.7074 5.64699 20.6097 5.7545L14.4452 12.5355C14.3197 12.6735 14.2501 12.8534 14.2501 13.04V18.3486C14.2501 18.4721 14.2197 18.5936 14.1614 18.7025C14.1031 18.8114 14.0189 18.9042 13.9162 18.9726L10.9162 20.9727C10.8032 21.048 10.6719 21.0912 10.5364 21.0977C10.4008 21.1043 10.2659 21.0739 10.1463 21.0099C10.0266 20.9458 9.9265 20.8505 9.85675 20.734C9.78699 20.6176 9.75014 20.4844 9.75014 20.3486V13.04C9.75014 12.8534 9.6806 12.6735 9.5551 12.5355L3.3906 5.7545C3.29286 5.64699 3.22846 5.51341 3.20522 5.36998C3.18197 5.22655 3.20089 5.07946 3.25967 4.94658C3.31845 4.81371 3.41456 4.70077 3.53633 4.62149C3.65809 4.54221 3.80026 4.5 3.94556 4.5V4.5Z" stroke="#3D3D3D" stroke-width="1.5" stroke-linecap="round" stroke-linejoin="round"/>
</svg>
