<svg width="24" height="24" viewBox="0 0 24 24" fill="none" xmlns="http://www.w3.org/2000/svg">
<path d="M20.1827 14.9993H15.0002V20.1823M14.6896 20.25H4.50024C4.30133 20.25 4.11057 20.171 3.96991 20.0303C3.82926 19.8897 3.75024 19.6989 3.75024 19.5V4.5C3.75024 4.30109 3.82926 4.11032 3.96991 3.96967C4.11057 3.82902 4.30133 3.75 4.50024 3.75H19.5002C19.6992 3.75 19.8899 3.82902 20.0306 3.96967C20.1712 4.11032 20.2502 4.30109 20.2502 4.5V14.6893C20.2502 14.7878 20.2308 14.8854 20.1932 14.9764C20.1555 15.0673 20.1002 15.15 20.0306 15.2197L15.2199 20.0303C15.1503 20.1 15.0676 20.1552 14.9766 20.1929C14.8856 20.2306 14.7881 20.25 14.6896 20.25Z" stroke="#3D3D3D" stroke-width="1.5" stroke-linecap="round" stroke-linejoin="round"/>
</svg>
