<svg width="25" height="24" viewBox="0 0 25 24" fill="none" xmlns="http://www.w3.org/2000/svg">
<path d="M20.6619 4.50055H4.16187C3.74765 4.50055 3.41187 4.83634 3.41187 5.25055V18.7505C3.41187 19.1648 3.74765 19.5005 4.16187 19.5005H20.6619C21.0761 19.5005 21.4119 19.1648 21.4119 18.7505V5.25055C21.4119 4.83634 21.0761 4.50055 20.6619 4.50055Z" stroke="#3D3D3D" stroke-width="1.5" stroke-linecap="round" stroke-linejoin="round"/>
<path d="M6.78687 8.81305C7.30463 8.81305 7.72437 8.39332 7.72437 7.87555C7.72437 7.35778 7.30463 6.93805 6.78687 6.93805C6.2691 6.93805 5.84937 7.35778 5.84937 7.87555C5.84937 8.39332 6.2691 8.81305 6.78687 8.81305Z" fill="#3D3D3D"/>
<path d="M10.5369 8.81305C11.0546 8.81305 11.4744 8.39332 11.4744 7.87555C11.4744 7.35778 11.0546 6.93805 10.5369 6.93805C10.0191 6.93805 9.59936 7.35778 9.59936 7.87555C9.59936 8.39332 10.0191 8.81305 10.5369 8.81305Z" fill="#3D3D3D"/>
</svg>
