<svg width="25" height="24" viewBox="0 0 25 24" fill="none" xmlns="http://www.w3.org/2000/svg">
<path d="M9.7649 18V18.75C9.7649 19.5457 10.081 20.3087 10.6436 20.8713C11.2062 21.4339 11.9692 21.75 12.7649 21.75C13.5605 21.75 14.3236 21.4339 14.8862 20.8713C15.4488 20.3087 15.7649 19.5457 15.7649 18.75V18M10.8899 9H14.6399L10.8899 13.5H14.6399M6.03393 9.75C6.03269 8.86051 6.20751 7.97957 6.54832 7.15796C6.88913 6.33635 7.38919 5.59031 8.01967 4.96286C8.65014 4.33541 9.39858 3.83895 10.2218 3.5021C11.0451 3.16525 11.9268 2.99467 12.8163 3.00019C16.5278 3.02778 19.4966 6.11282 19.4966 9.83474V10.5C19.4966 13.8577 20.1991 15.8062 20.8178 16.8711C20.8845 16.9849 20.9199 17.1142 20.9206 17.2461C20.9214 17.378 20.8873 17.5077 20.8218 17.6222C20.7564 17.7367 20.6619 17.8319 20.548 17.8982C20.434 17.9646 20.3045 17.9997 20.1727 18H5.35711C5.22523 17.9997 5.09576 17.9645 4.98178 17.8982C4.8678 17.8318 4.77333 17.7366 4.7079 17.6221C4.64248 17.5076 4.60841 17.3778 4.60914 17.2459C4.60987 17.1141 4.64537 16.9847 4.71205 16.8709C5.33111 15.806 6.03393 13.8575 6.03393 10.5L6.03393 9.75Z" stroke="#3D3D3D" stroke-width="1.5" stroke-linecap="round" stroke-linejoin="round"/>
</svg>
