<svg width="25" height="24" viewBox="0 0 25 24" fill="none" xmlns="http://www.w3.org/2000/svg">
<path d="M9.76492 19.4985H7.51492C6.77039 19.4978 6.03453 19.3387 5.35618 19.0319C4.67783 18.725 4.07251 18.2774 3.5804 17.7187C3.08828 17.16 2.72062 16.503 2.50183 15.7913C2.28304 15.0797 2.21811 14.3296 2.31136 13.591C2.40461 12.8523 2.65391 12.1419 3.04271 11.507C3.4315 10.872 3.9509 10.327 4.56643 9.90817C5.18195 9.48931 5.87953 9.20615 6.61286 9.07751C7.34619 8.94886 8.0985 8.97766 8.81985 9.16199M8.26492 11.9985C8.26503 10.8102 8.54752 9.63889 9.08911 8.58113C9.6307 7.52338 10.4159 6.60946 11.38 5.91468C12.344 5.21991 13.4594 4.76416 14.6342 4.585C15.8089 4.40584 17.0094 4.50839 18.1368 4.8842C19.2641 5.26001 20.2861 5.89833 21.1183 6.74656C21.9506 7.59478 22.5694 8.62863 22.9237 9.76292C23.2781 10.8972 23.3578 12.0995 23.1564 13.2706C22.9549 14.4417 22.4781 15.5483 21.7651 16.499M11.8329 15.1806L15.0149 11.9985M15.0149 11.9985L18.1969 15.1806M15.0149 11.9985V19.4985" stroke="#3D3D3D" stroke-width="1.5" stroke-linecap="round" stroke-linejoin="round"/>
</svg>
