<svg width="25" height="24" viewBox="0 0 25 24" fill="none" xmlns="http://www.w3.org/2000/svg">
<path d="M12.411 5.73749C12.9283 5.73749 13.3476 5.31775 13.3476 4.79999C13.3476 4.28222 12.9283 3.86249 12.411 3.86249C11.8937 3.86249 11.4744 4.28222 11.4744 4.79999C11.4744 5.31775 11.8937 5.73749 12.411 5.73749Z" fill="#3D3D3D"/>
<path d="M12.411 12.9375C12.9283 12.9375 13.3476 12.5178 13.3476 12C13.3476 11.4822 12.9283 11.0625 12.411 11.0625C11.8937 11.0625 11.4744 11.4822 11.4744 12C11.4744 12.5178 11.8937 12.9375 12.411 12.9375Z" fill="#3D3D3D"/>
<path d="M12.411 20.1375C12.9283 20.1375 13.3476 19.7178 13.3476 19.2C13.3476 18.6822 12.9283 18.2625 12.411 18.2625C11.8937 18.2625 11.4744 18.6822 11.4744 19.2C11.4744 19.7178 11.8937 20.1375 12.411 20.1375Z" fill="#3D3D3D"/>
<path d="M12.411 5.73749C12.9283 5.73749 13.3476 5.31775 13.3476 4.79999C13.3476 4.28222 12.9283 3.86249 12.411 3.86249C11.8937 3.86249 11.4744 4.28222 11.4744 4.79999C11.4744 5.31775 11.8937 5.73749 12.411 5.73749Z" stroke="#3D3D3D"/>
<path d="M12.411 12.9375C12.9283 12.9375 13.3476 12.5178 13.3476 12C13.3476 11.4822 12.9283 11.0625 12.411 11.0625C11.8937 11.0625 11.4744 11.4822 11.4744 12C11.4744 12.5178 11.8937 12.9375 12.411 12.9375Z" stroke="#3D3D3D"/>
<path d="M12.411 20.1375C12.9283 20.1375 13.3476 19.7178 13.3476 19.2C13.3476 18.6822 12.9283 18.2625 12.411 18.2625C11.8937 18.2625 11.4744 18.6822 11.4744 19.2C11.4744 19.7178 11.8937 20.1375 12.411 20.1375Z" stroke="#3D3D3D"/>
</svg>
