<svg width="25" height="24" viewBox="0 0 25 24" fill="none" xmlns="http://www.w3.org/2000/svg">
<path d="M9.45239 6.6875C10.0047 6.6875 10.4524 6.23978 10.4524 5.6875C10.4524 5.13522 10.0047 4.6875 9.45239 4.6875C8.90011 4.6875 8.45239 5.13522 8.45239 5.6875C8.45239 6.23978 8.90011 6.6875 9.45239 6.6875Z" fill="#3D3D3D"/>
<path d="M16.2024 6.6875C16.7547 6.6875 17.2024 6.23978 17.2024 5.6875C17.2024 5.13522 16.7547 4.6875 16.2024 4.6875C15.6501 4.6875 15.2024 5.13522 15.2024 5.6875C15.2024 6.23978 15.6501 6.6875 16.2024 6.6875Z" fill="#3D3D3D"/>
<path d="M9.45239 13.0625C10.0047 13.0625 10.4524 12.6148 10.4524 12.0625C10.4524 11.5102 10.0047 11.0625 9.45239 11.0625C8.90011 11.0625 8.45239 11.5102 8.45239 12.0625C8.45239 12.6148 8.90011 13.0625 9.45239 13.0625Z" fill="#3D3D3D"/>
<path d="M16.2024 13.0625C16.7547 13.0625 17.2024 12.6148 17.2024 12.0625C17.2024 11.5102 16.7547 11.0625 16.2024 11.0625C15.6501 11.0625 15.2024 11.5102 15.2024 12.0625C15.2024 12.6148 15.6501 13.0625 16.2024 13.0625Z" fill="#3D3D3D"/>
<path d="M9.45239 19.4375C10.0047 19.4375 10.4524 18.9898 10.4524 18.4375C10.4524 17.8852 10.0047 17.4375 9.45239 17.4375C8.90011 17.4375 8.45239 17.8852 8.45239 18.4375C8.45239 18.9898 8.90011 19.4375 9.45239 19.4375Z" fill="#3D3D3D"/>
<path d="M16.2024 19.4375C16.7547 19.4375 17.2024 18.9898 17.2024 18.4375C17.2024 17.8852 16.7547 17.4375 16.2024 17.4375C15.6501 17.4375 15.2024 17.8852 15.2024 18.4375C15.2024 18.9898 15.6501 19.4375 16.2024 19.4375Z" fill="#3D3D3D"/>
</svg>
