<svg width="25" height="24" viewBox="0 0 25 24" fill="none" xmlns="http://www.w3.org/2000/svg">
<path d="M12.529 16.3025C14.9052 16.3025 16.8315 14.3762 16.8315 12C16.8315 9.62373 14.9052 7.69742 12.529 7.69742C10.1528 7.69742 8.22647 9.62373 8.22647 12C8.22647 14.3762 10.1528 16.3025 12.529 16.3025Z" stroke="#3D3D3D" stroke-width="1.5" stroke-linecap="round" stroke-linejoin="round"/>
<path d="M17.5182 6.36063C17.7479 6.56395 17.965 6.78103 18.1683 7.01068L20.6174 7.3604C21.0145 8.05198 21.3207 8.79194 21.5284 9.56194L20.0445 11.5404C20.0445 11.5404 20.0632 12.1534 20.0446 12.4596L21.5291 14.4386C21.3209 15.2085 21.0142 15.9482 20.6165 16.6395L18.1683 16.9892C18.1683 16.9892 17.748 17.4359 17.5184 17.6392L17.1687 20.0883C16.4771 20.4855 15.7371 20.7917 14.9671 20.9994L12.9888 19.5155C12.6826 19.5341 12.3756 19.5341 12.0695 19.5155L10.0904 21C9.32058 20.7918 8.58082 20.4851 7.88951 20.0875L7.53986 17.6394C7.31021 17.436 7.09313 17.219 6.8898 16.9893L4.44073 16.6396C4.04357 15.948 3.73736 15.2081 3.5297 14.4381L5.01358 12.4596C5.01358 12.4596 4.99491 11.8466 5.01352 11.5404L3.52905 9.56139C3.73724 8.79153 4.04395 8.05178 4.44158 7.36046L6.88968 7.01081C7.09301 6.78117 7.31009 6.56408 7.53973 6.36075L7.88945 3.91168C8.58103 3.51452 9.321 3.20831 10.091 3.00064L12.0693 4.48447C12.3755 4.46586 12.6825 4.46586 12.9886 4.48447L14.9677 3C15.7375 3.20819 16.4773 3.5149 17.1686 3.91253L17.5182 6.36063Z" stroke="#3D3D3D" stroke-width="1.5" stroke-linecap="round" stroke-linejoin="round"/>
</svg>
