<svg width="25" height="24" viewBox="0 0 25 24" fill="none" xmlns="http://www.w3.org/2000/svg">
<path d="M20.2056 13.5H5.20557C4.79135 13.5 4.45557 13.8358 4.45557 14.25V18.75C4.45557 19.1642 4.79135 19.5 5.20557 19.5H20.2056C20.6198 19.5 20.9556 19.1642 20.9556 18.75V14.25C20.9556 13.8358 20.6198 13.5 20.2056 13.5Z" stroke="#3D3D3D" stroke-width="1.5" stroke-linecap="round" stroke-linejoin="round"/>
<path d="M20.2056 4.5H5.20557C4.79135 4.5 4.45557 4.83579 4.45557 5.25V9.75C4.45557 10.1642 4.79135 10.5 5.20557 10.5H20.2056C20.6198 10.5 20.9556 10.1642 20.9556 9.75V5.25C20.9556 4.83579 20.6198 4.5 20.2056 4.5Z" stroke="#3D3D3D" stroke-width="1.5" stroke-linecap="round" stroke-linejoin="round"/>
<path d="M17.5797 8.4375C18.097 8.4375 18.5163 8.01777 18.5163 7.5C18.5163 6.98223 18.097 6.5625 17.5797 6.5625C17.0624 6.5625 16.6431 6.98223 16.6431 7.5C16.6431 8.01777 17.0624 8.4375 17.5797 8.4375Z" fill="#3D3D3D"/>
<path d="M17.5797 17.4375C18.097 17.4375 18.5163 17.0178 18.5163 16.5C18.5163 15.9822 18.097 15.5625 17.5797 15.5625C17.0624 15.5625 16.6431 15.9822 16.6431 16.5C16.6431 17.0178 17.0624 17.4375 17.5797 17.4375Z" fill="#3D3D3D"/>
</svg>
