<svg width="25" height="24" viewBox="0 0 25 24" fill="none" xmlns="http://www.w3.org/2000/svg">
<path d="M7.96915 11.9993H16.9691M10.2185 16.4996H6.46851C5.27503 16.4996 4.13044 16.0255 3.28653 15.1816C2.44261 14.3377 1.96851 13.1931 1.96851 11.9996C1.96851 10.8062 2.44261 9.66157 3.28653 8.81765C4.13044 7.97374 5.27503 7.49963 6.46851 7.49963H10.2185M14.7191 16.4996H18.4691C19.6626 16.4996 20.8072 16.0255 21.6511 15.1816C22.495 14.3377 22.9691 13.1931 22.9691 11.9996C22.9691 10.8062 22.495 9.66157 21.6511 8.81765C20.8072 7.97374 19.6626 7.49963 18.4691 7.49963H14.7191" stroke="#3D3D3D" stroke-width="1.5" stroke-linecap="round" stroke-linejoin="round"/>
</svg>
