<svg width="25" height="24" viewBox="0 0 25 24" fill="none" xmlns="http://www.w3.org/2000/svg">
<path d="M12.1753 6.6967L14.0315 4.84054C14.4145 4.45721 14.8692 4.15308 15.3698 3.94555C15.8703 3.73801 16.4068 3.63112 16.9487 3.631C17.4906 3.63087 18.0272 3.73751 18.5278 3.94481C19.0284 4.15211 19.4833 4.45603 19.8665 4.83918C20.2496 5.22234 20.5536 5.67723 20.7609 6.17787C20.9682 6.67851 21.0748 7.21509 21.0747 7.75696C21.0745 8.29882 20.9677 8.83535 20.7601 9.3359C20.5526 9.83644 20.2485 10.2912 19.8651 10.6742L17.2135 13.3258C16.8304 13.7089 16.3757 14.0127 15.8752 14.22C15.3748 14.4273 14.8384 14.534 14.2967 14.534C13.755 14.534 13.2186 14.4273 12.7181 14.22C12.2176 14.0127 11.7629 13.7089 11.3798 13.3258M13.236 17.3033L11.3798 19.1595C10.9969 19.5428 10.5421 19.8469 10.0416 20.0544C9.54103 20.262 9.0045 20.3689 8.46263 20.369C7.92077 20.3691 7.38419 20.2625 6.88355 20.0552C6.3829 19.8479 5.92801 19.544 5.54485 19.1608C5.1617 18.7777 4.85779 18.3228 4.65048 17.8221C4.44318 17.3215 4.33654 16.7849 4.33667 16.243C4.3368 15.7012 4.44368 15.1646 4.65122 14.6641C4.85876 14.1636 5.16288 13.7088 5.54621 13.3258L8.19786 10.6742C8.58091 10.2911 9.03564 9.98729 9.53611 9.77998C10.0366 9.57268 10.573 9.46599 11.1147 9.46599C11.6564 9.46599 12.1928 9.57268 12.6932 9.77998C13.1937 9.98729 13.6485 10.2911 14.0315 10.6742" stroke="#3D3D3D" stroke-width="1.5" stroke-linecap="round" stroke-linejoin="round"/>
</svg>
