<svg width="25" height="24" viewBox="0 0 25 24" fill="none" xmlns="http://www.w3.org/2000/svg">
<path d="M4.96936 3.75L19.9694 20.25M10.5128 5.38789C11.1607 5.29606 11.8143 5.25008 12.4686 5.25027C16.0811 5.24235 19.55 6.66379 22.1182 9.20433M2.81909 9.20433C4.09261 7.94448 5.60123 6.94708 7.25924 6.26879M14.7306 10.0274C16.3185 10.4243 17.7714 11.2388 18.9387 12.3863M5.9986 12.3863C7.26253 11.1437 8.85921 10.2937 10.5958 9.93897M9.18059 15.5683C10.026 14.7612 11.1387 14.2931 12.3068 14.2531C13.475 14.213 14.6171 14.6038 15.5158 15.3511" stroke="#3D3D3D" stroke-width="1.5" stroke-linecap="round" stroke-linejoin="round"/>
<path d="M12.4696 19.6875C12.9869 19.6875 13.4062 19.2678 13.4062 18.75C13.4062 18.2322 12.9869 17.8125 12.4696 17.8125C11.9523 17.8125 11.533 18.2322 11.533 18.75C11.533 19.2678 11.9523 19.6875 12.4696 19.6875Z" fill="#3D3D3D"/>
</svg>
