<svg width="25" height="24" viewBox="0 0 25 24" fill="none" xmlns="http://www.w3.org/2000/svg">
<path d="M12.5291 12L6.82905 7.725C6.73591 7.65514 6.6603 7.56455 6.60823 7.46041C6.55616 7.35627 6.52905 7.24143 6.52905 7.125V3.75C6.52905 3.55109 6.60807 3.36032 6.74872 3.21967C6.88938 3.07902 7.08014 3 7.27905 3H17.7791C17.978 3 18.1687 3.07902 18.3094 3.21967C18.45 3.36032 18.5291 3.55109 18.5291 3.75V7.09136C18.5291 7.20732 18.5022 7.3217 18.4505 7.42551C18.3988 7.52932 18.3238 7.61974 18.2313 7.68966L12.5291 12ZM12.5291 12L6.82905 16.275C6.73591 16.3449 6.6603 16.4354 6.60823 16.5396C6.55616 16.6437 6.52905 16.7586 6.52905 16.875V20.25C6.52905 20.4489 6.60807 20.6397 6.74872 20.7803C6.88938 20.921 7.08014 21 7.27905 21H17.7791C17.978 21 18.1687 20.921 18.3094 20.7803C18.45 20.6397 18.5291 20.4489 18.5291 20.25V16.9086C18.5291 16.7927 18.5022 16.6783 18.4505 16.5745C18.3988 16.4707 18.3238 16.3803 18.2313 16.3103L12.5291 12Z" stroke="#3D3D3D" stroke-width="1.5" stroke-linecap="round" stroke-linejoin="round"/>
</svg>
