<svg width="25" height="24" viewBox="0 0 25 24" fill="none" xmlns="http://www.w3.org/2000/svg">
<path d="M12.4703 12L19.44 5.03033C19.5449 4.92544 19.6163 4.7918 19.6453 4.64632C19.6742 4.50083 19.6594 4.35003 19.6026 4.21299C19.5458 4.07594 19.4497 3.95881 19.3264 3.8764C19.203 3.79399 19.058 3.75 18.9097 3.75H6.03101C5.88267 3.75 5.73767 3.79399 5.61433 3.8764C5.49099 3.95881 5.39486 4.07594 5.3381 4.21299C5.28133 4.35003 5.26648 4.50083 5.29542 4.64632C5.32436 4.7918 5.39579 4.92544 5.50068 5.03033L12.4703 12ZM12.4703 12L19.44 18.9697C19.5449 19.0746 19.6163 19.2082 19.6453 19.3537C19.6742 19.4992 19.6594 19.65 19.6026 19.787C19.5458 19.9241 19.4497 20.0412 19.3264 20.1236C19.203 20.206 19.058 20.25 18.9097 20.25H6.03101C5.88267 20.25 5.73767 20.206 5.61433 20.1236C5.49099 20.0412 5.39486 19.9241 5.3381 19.787C5.28133 19.65 5.26648 19.4992 5.29542 19.3537C5.32436 19.2082 5.39579 19.0746 5.50068 18.9697L12.4703 12ZM12.4703 12V15.75M16.9703 7.5H7.97035" stroke="#3D3D3D" stroke-width="1.5" stroke-linecap="round" stroke-linejoin="round"/>
</svg>
