<svg width="24" height="24" viewBox="0 0 24 24" fill="none" xmlns="http://www.w3.org/2000/svg">
<path d="M7.93324 10.9814L4.81691 16.7688M13.4091 13.409L10.5911 10.591M19.1833 7.23117L16.0669 13.0188M6.00012 18.75C6.00012 19.9926 4.99276 21 3.75012 21C2.50748 21 1.50012 19.9926 1.50012 18.75C1.50012 17.5074 2.50748 16.5 3.75012 16.5C4.99276 16.5 6.00012 17.5074 6.00012 18.75ZM11.2501 9C11.2501 10.2426 10.2428 11.25 9.00012 11.25C7.75748 11.25 6.75012 10.2426 6.75012 9C6.75012 7.75736 7.75748 6.75 9.00012 6.75C10.2428 6.75 11.2501 7.75736 11.2501 9ZM17.2501 15C17.2501 16.2426 16.2428 17.25 15.0001 17.25C13.7575 17.25 12.7501 16.2426 12.7501 15C12.7501 13.7574 13.7575 12.75 15.0001 12.75C16.2428 12.75 17.2501 13.7574 17.2501 15ZM22.5001 5.25C22.5001 6.49264 21.4928 7.5 20.2501 7.5C19.0075 7.5 18.0001 6.49264 18.0001 5.25C18.0001 4.00736 19.0075 3 20.2501 3C21.4928 3 22.5001 4.00736 22.5001 5.25Z" stroke="#3D3D3D" stroke-width="1.5" stroke-linecap="round" stroke-linejoin="round"/>
</svg>
