<svg width="25" height="24" viewBox="0 0 25 24" fill="none" xmlns="http://www.w3.org/2000/svg">
<path d="M4.63232 10.5H21.1323M18.1323 3V7.5M10.5176 14.25H6.13232C5.7345 14.25 5.35297 14.092 5.07166 13.8107C4.79036 13.5294 4.63232 13.1478 4.63232 12.75V6C4.63232 5.20435 4.94839 4.44129 5.511 3.87868C6.07361 3.31607 6.83667 3 7.63232 3H21.1323V12.75C21.1323 13.1478 20.9743 13.5294 20.693 13.8107C20.4117 14.092 20.0301 14.25 19.6323 14.25H15.2471C15.1396 14.25 15.0334 14.2731 14.9357 14.3177C14.8379 14.3623 14.7509 14.4274 14.6805 14.5086C14.6101 14.5898 14.558 14.6851 14.5276 14.7882C14.4973 14.8913 14.4894 14.9997 14.5046 15.1061L15.1323 19.5C15.1323 20.0967 14.8953 20.669 14.4733 21.091C14.0514 21.5129 13.4791 21.75 12.8823 21.75C12.2856 21.75 11.7133 21.5129 11.2913 21.091C10.8694 20.669 10.6323 20.0967 10.6323 19.5L11.26 15.1061C11.2752 14.9997 11.2674 14.8913 11.237 14.7882C11.2067 14.6851 11.1546 14.5898 11.0842 14.5086C11.0138 14.4274 10.9267 14.3623 10.829 14.3177C10.7312 14.2731 10.625 14.25 10.5176 14.25Z" stroke="#3D3D3D" stroke-width="1.5" stroke-linecap="round" stroke-linejoin="round"/>
</svg>
