<svg width="25" height="24" viewBox="0 0 25 24" fill="none" xmlns="http://www.w3.org/2000/svg">
<path d="M7.57361 9.75L15.0736 17.25M10.3632 17.1913L7.43906 20.1154M7.73821 14.5663L4.81406 17.4904M13.5855 8.64404L18.7326 2.90901C18.9415 2.69988 19.1896 2.53396 19.4626 2.42073C19.7356 2.3075 20.0283 2.24918 20.3239 2.24909C20.6195 2.24901 20.9122 2.30717 21.1853 2.42024C21.4584 2.53332 21.7065 2.69909 21.9155 2.9081C22.1245 3.11711 22.2903 3.36525 22.4034 3.63835C22.5164 3.91145 22.5746 4.20415 22.5745 4.49973C22.5744 4.79531 22.5161 5.08798 22.4029 5.36102C22.2896 5.63405 22.1237 5.8821 21.9146 6.09099L16.1796 11.2381C16.1037 11.3061 16.0426 11.3889 15.9998 11.4814C15.957 11.5739 15.9335 11.6741 15.9308 11.776C15.928 11.8779 15.9461 11.9792 15.9838 12.0739C16.0215 12.1685 16.0781 12.2545 16.1502 12.3266L17.0129 13.1893C17.1522 13.3286 17.2627 13.494 17.3381 13.676C17.4135 13.858 17.4523 14.053 17.4523 14.25C17.4523 14.447 17.4135 14.642 17.3381 14.824C17.2627 15.006 17.1522 15.1714 17.0129 15.3107L9.82361 22.5L2.32361 15L9.51295 7.81066C9.65224 7.67137 9.81759 7.56088 9.99958 7.4855C10.1816 7.41012 10.3766 7.37132 10.5736 7.37132C10.7706 7.37132 10.9656 7.41012 11.1476 7.4855C11.3296 7.56088 11.495 7.67137 11.6343 7.81066L12.497 8.67342C12.5691 8.74547 12.6551 8.80209 12.7497 8.83981C12.8444 8.87753 12.9457 8.89557 13.0476 8.89282C13.1495 8.89007 13.2497 8.86659 13.3422 8.82382C13.4347 8.78104 13.5175 8.71987 13.5855 8.64404Z" stroke="#3D3D3D" stroke-width="1.5" stroke-linecap="round" stroke-linejoin="round"/>
</svg>
