<svg width="25" height="24" viewBox="0 0 25 24" fill="none" xmlns="http://www.w3.org/2000/svg">
<path d="M21.4201 14.3909C21.5851 13.6476 21.6651 12.8871 21.6583 12.1248C21.614 6.72688 17.2428 2.34613 11.96 2.4005C9.70366 2.4246 7.5277 3.25991 5.814 4.75983C4.1003 6.25975 2.95836 8.32845 2.58857 10.6029C2.21878 12.8773 2.64478 15.2122 3.79181 17.1977C4.93883 19.1832 6.73359 20.6925 8.86112 21.4607C9.22311 21.591 9.6104 21.6307 9.99049 21.5764C10.3706 21.5222 10.7324 21.3756 11.0456 21.149C11.3588 20.9224 11.6143 20.6223 11.7906 20.274C11.9668 19.9256 12.0588 19.5392 12.0587 19.1471V18.7483C12.0587 18.0979 12.3116 17.4742 12.7617 17.0143C13.2117 16.5544 13.8222 16.2961 14.4587 16.2961H19.0796C19.6233 16.2964 20.1509 16.1081 20.5762 15.762C21.0014 15.4159 21.2989 14.9325 21.4201 14.3909V14.3909Z" stroke="#3D3D3D" stroke-width="1.5" stroke-linecap="round" stroke-linejoin="round"/>
<path d="M12.1578 7.87838C12.6544 7.87838 13.057 7.47544 13.057 6.97838C13.057 6.48133 12.6544 6.07838 12.1578 6.07838C11.6612 6.07838 11.2587 6.48133 11.2587 6.97838C11.2587 7.47544 11.6612 7.87838 12.1578 7.87838Z" fill="#3D3D3D"/>
<path d="M7.65467 10.5351C8.15127 10.5351 8.55384 10.1322 8.55384 9.63511C8.55384 9.13805 8.15127 8.73511 7.65467 8.73511C7.15807 8.73511 6.75549 9.13805 6.75549 9.63511C6.75549 10.1322 7.15807 10.5351 7.65467 10.5351Z" fill="#3D3D3D"/>
<path d="M7.65467 15.8482C8.15127 15.8482 8.55384 15.4453 8.55384 14.9482C8.55384 14.4512 8.15127 14.0482 7.65467 14.0482C7.15807 14.0482 6.75549 14.4512 6.75549 14.9482C6.75549 15.4453 7.15807 15.8482 7.65467 15.8482Z" fill="#3D3D3D"/>
<path d="M16.6613 10.5351C17.1579 10.5351 17.5604 10.1322 17.5604 9.63511C17.5604 9.13805 17.1579 8.73511 16.6613 8.73511C16.1647 8.73511 15.7621 9.13805 15.7621 9.63511C15.7621 10.1322 16.1647 10.5351 16.6613 10.5351Z" fill="#3D3D3D"/>
</svg>
