<svg width="24" height="24" viewBox="0 0 24 24" fill="none" xmlns="http://www.w3.org/2000/svg">
<path d="M5.25 20.25H4.5C4.30109 20.25 4.11032 20.171 3.96967 20.0303C3.82902 19.8897 3.75 19.6989 3.75 19.5V18.75M10.5 8.25H8.25L8.24991 4.49945C8.24991 4.30054 8.32892 4.10977 8.46958 3.96912C8.61023 3.82847 8.80099 3.74945 8.99991 3.74945H19.4999C19.6988 3.74945 19.8896 3.82847 20.0302 3.96912C20.1709 4.10977 20.2499 4.30054 20.2499 4.49945V14.9995C20.2499 15.1984 20.1709 15.3891 20.0302 15.5298C19.8896 15.6704 19.6988 15.7495 19.4999 15.7495L15.75 15.75V13.5M10.5 20.25H9M3.75 15V13.5M14.25 20.25H15C15.1989 20.25 15.3897 20.171 15.5303 20.0303C15.671 19.8897 15.75 19.6989 15.75 19.5V18.75M14.25 8.25H15C15.1989 8.25 15.3897 8.32902 15.5303 8.46967C15.671 8.61032 15.75 8.80109 15.75 9V9.74997M5.25 8.25H4.5C4.30109 8.25 4.11032 8.32902 3.96967 8.46967C3.82902 8.61032 3.75 8.80109 3.75 9V9.74997" stroke="#3D3D3D" stroke-width="1.5" stroke-linecap="round" stroke-linejoin="round"/>
</svg>
