<svg width="25" height="24" viewBox="0 0 25 24" fill="none" xmlns="http://www.w3.org/2000/svg">
<path d="M14.9772 8.8125C15.4945 8.8125 15.9138 8.39277 15.9138 7.875C15.9138 7.35723 15.4945 6.9375 14.9772 6.9375C14.4599 6.9375 14.0405 7.35723 14.0405 7.875C14.0405 8.39277 14.4599 8.8125 14.9772 8.8125Z" fill="#3D3D3D"/>
<path d="M9.72717 8.8125C10.2445 8.8125 10.6638 8.39277 10.6638 7.875C10.6638 7.35723 10.2445 6.9375 9.72717 6.9375C9.20987 6.9375 8.79053 7.35723 8.79053 7.875C8.79053 8.39277 9.20987 8.8125 9.72717 8.8125Z" fill="#3D3D3D"/>
<path d="M19.8464 12H4.84644M5.59644 2.625L7.50089 4.40025M19.0964 2.625L17.1919 4.40031M19.8464 13.875C19.8464 15.8641 19.0563 17.7718 17.6497 19.1783C16.2432 20.5848 14.3356 21.375 12.3464 21.375C10.3573 21.375 8.44966 20.5848 7.04313 19.1783C5.63661 17.7718 4.84644 15.8641 4.84644 13.875V10.125C4.84644 8.13588 5.63661 6.22822 7.04313 4.8217C8.44966 3.41518 10.3573 2.625 12.3464 2.625C14.3356 2.625 16.2432 3.41518 17.6497 4.8217C19.0563 6.22822 19.8464 8.13588 19.8464 10.125V13.875Z" stroke="#3D3D3D" stroke-width="1.5" stroke-linecap="round" stroke-linejoin="round"/>
</svg>
