<svg width="25" height="24" viewBox="0 0 25 24" fill="none" xmlns="http://www.w3.org/2000/svg">
<path d="M20.3676 7.5C20.3676 9.98528 16.6739 12 12.1176 12C7.5612 12 3.86755 9.98528 3.86755 7.5M20.3676 7.5C20.3676 5.01472 16.6739 3 12.1176 3C7.5612 3 3.86755 5.01472 3.86755 7.5M20.3676 7.5V12M3.86755 7.5V12M3.86755 12C3.86755 14.4853 7.5612 16.5 12.1176 16.5C16.6739 16.5 20.3676 14.4853 20.3676 12M3.86755 12V16.5C3.86755 18.9853 7.5612 21 12.1176 21C16.6739 21 20.3676 18.9853 20.3676 16.5V12" stroke="#3D3D3D" stroke-width="1.5" stroke-linecap="round" stroke-linejoin="round"/>
</svg>
