<svg width="25" height="24" viewBox="0 0 25 24" fill="none" xmlns="http://www.w3.org/2000/svg">
<path d="M4.61755 9H9.86755M14.3676 9H19.6176M9.86755 13.5C9.86755 14.0967 10.1046 14.669 10.5266 15.091C10.9485 15.5129 11.5208 15.75 12.1176 15.75C12.7143 15.75 13.2866 15.5129 13.7085 15.091C14.1305 14.669 14.3676 14.0967 14.3676 13.5V5.25C14.3676 5.05109 14.4466 4.86032 14.5872 4.71967C14.7279 4.57902 14.9186 4.5 15.1176 4.5H18.8676C19.0665 4.5 19.2572 4.57902 19.3979 4.71967C19.5385 4.86032 19.6176 5.05109 19.6176 5.25V13.4058C19.6176 17.5413 16.3098 20.9691 12.1744 20.9998C11.1847 21.0073 10.2034 20.8188 9.28688 20.4453C8.37038 20.0718 7.53687 19.5205 6.8344 18.8234C6.13193 18.1262 5.57439 17.2969 5.19391 16.3833C4.81344 15.4696 4.61755 14.4897 4.61755 13.5V5.25C4.61755 5.05109 4.69657 4.86032 4.83722 4.71967C4.97788 4.57902 5.16864 4.5 5.36755 4.5H9.11755C9.31647 4.5 9.50723 4.57902 9.64788 4.71967C9.78854 4.86032 9.86755 5.05109 9.86755 5.25V13.5Z" stroke="#3D3D3D" stroke-width="1.5" stroke-linecap="round" stroke-linejoin="round"/>
</svg>
