<svg width="25" height="24" viewBox="0 0 25 24" fill="none" xmlns="http://www.w3.org/2000/svg">
<path d="M12.4707 16.5V7.5M8.72071 13.5C9.46239 13.5 10.1874 13.7199 10.8041 14.132C11.4208 14.544 11.9014 15.1297 12.1853 15.8149C12.4691 16.5002 12.5433 17.2542 12.3987 17.9816C12.254 18.709 11.8968 19.3772 11.3724 19.9016C10.8479 20.4261 10.1797 20.7833 9.4523 20.9279C8.72487 21.0726 7.97087 20.9984 7.28565 20.7145C6.60043 20.4307 6.01476 19.9501 5.6027 19.3334C5.19064 18.7167 4.97071 17.9917 4.97071 17.25V16.6188M16.2207 13.5C15.479 13.5 14.754 13.7199 14.1373 14.132C13.5206 14.544 13.04 15.1297 12.7562 15.8149C12.4723 16.5002 12.3981 17.2542 12.5428 17.9816C12.6875 18.709 13.0446 19.3772 13.5691 19.9016C14.0935 20.4261 14.7617 20.7833 15.4891 20.9279C16.2165 21.0726 16.9705 20.9984 17.6558 20.7145C18.341 20.4307 18.9267 19.9501 19.3387 19.3334C19.7508 18.7167 19.9707 17.9917 19.9707 17.25V16.6189M7.22071 16.875H6.47071C5.40912 16.8748 4.38176 16.4994 3.57017 15.8151C2.75859 15.1307 2.21502 14.1816 2.03552 13.1353C1.85602 12.0889 2.05214 11.0129 2.58923 10.0972C3.12632 9.18146 3.96981 8.48508 4.97064 8.13108L4.97071 6.75C4.97071 5.75544 5.3658 4.80161 6.06906 4.09835C6.77232 3.39509 7.72615 3 8.72071 3C9.71527 3 10.6691 3.39509 11.3724 4.09835C12.0756 4.80161 12.4707 5.75544 12.4707 6.75M12.4707 6.75V17.25M12.4707 6.75C12.4707 5.75544 12.8658 4.80161 13.5691 4.09835C14.2723 3.39509 15.2261 3 16.2207 3C17.2153 3 18.1691 3.39509 18.8724 4.09835C19.5756 4.80161 19.9707 5.75544 19.9707 6.75L19.9708 8.13108C20.9716 8.48508 21.8151 9.18146 22.3522 10.0972C22.8893 11.0129 23.0854 12.0889 22.9059 13.1353C22.7264 14.1816 22.1828 15.1307 21.3712 15.8151C20.5597 16.4994 19.5323 16.8748 18.4707 16.875H17.7207M8.72071 7.875V8.625C8.72071 9.32119 8.44415 9.98887 7.95187 10.4812C7.45958 10.9734 6.7919 11.25 6.09571 11.25M16.2207 7.875V8.625C16.2207 9.32119 16.4973 9.98887 16.9896 10.4812C17.4818 10.9734 18.1495 11.25 18.8457 11.25" stroke="#3D3D3D" stroke-width="1.5" stroke-linecap="round" stroke-linejoin="round"/>
</svg>
