<svg width="25" height="24" viewBox="0 0 25 24" fill="none" xmlns="http://www.w3.org/2000/svg">
<path d="M12.6472 12C13.0614 12 13.3972 11.6642 13.3972 11.25C13.3972 10.8358 13.0614 10.5 12.6472 10.5V12ZM15.6472 10.5C15.233 10.5 14.8972 10.8358 14.8972 11.25C14.8972 11.6642 15.233 12 15.6472 12V10.5ZM17.1472 12C17.5614 12 17.8972 11.6642 17.8972 11.25C17.8972 10.8358 17.5614 10.5 17.1472 10.5V12ZM20.1472 10.5C19.733 10.5 19.3972 10.8358 19.3972 11.25C19.3972 11.6642 19.733 12 20.1472 12V10.5ZM6.64722 12.9375C7.5792 12.9375 8.33472 12.182 8.33472 11.25H6.83472C6.83472 11.3536 6.75077 11.4375 6.64722 11.4375V12.9375ZM8.33472 11.25C8.33472 10.318 7.5792 9.5625 6.64722 9.5625V11.0625C6.75077 11.0625 6.83472 11.1464 6.83472 11.25H8.33472ZM6.64722 9.5625C5.71524 9.5625 4.95972 10.318 4.95972 11.25H6.45972C6.45972 11.1464 6.54366 11.0625 6.64722 11.0625V9.5625ZM4.95972 11.25C4.95972 12.182 5.71524 12.9375 6.64722 12.9375V11.4375C6.54366 11.4375 6.45972 11.3536 6.45972 11.25H4.95972ZM9.64722 11.25C9.64722 13.2299 9.24437 14.9852 8.62805 16.2179C7.9893 17.4954 7.24563 18 6.64722 18V19.5C8.11987 19.5 9.25121 18.3257 9.96969 16.8887C10.7106 15.4069 11.1472 13.4123 11.1472 11.25H9.64722ZM6.64722 18C6.0488 18 5.30514 17.4954 4.66639 16.2179C4.05006 14.9852 3.64722 13.2299 3.64722 11.25H2.14722C2.14722 13.4123 2.58383 15.4069 3.32475 16.8887C4.04323 18.3257 5.17456 19.5 6.64722 19.5V18ZM3.64722 11.25C3.64722 9.27012 4.05006 7.51475 4.66639 6.28211C5.30514 5.0046 6.0488 4.5 6.64722 4.5V3C5.17456 3 4.04323 4.17433 3.32475 5.61129C2.58383 7.09311 2.14722 9.08775 2.14722 11.25H3.64722ZM6.64722 4.5C7.24563 4.5 7.9893 5.0046 8.62805 6.28211C9.24437 7.51475 9.64722 9.27012 9.64722 11.25H11.1472C11.1472 9.08775 10.7106 7.09311 9.96969 5.61129C9.25121 4.17433 8.11987 3 6.64722 3V4.5ZM9.64722 11.25V19.5H11.1472V11.25H9.64722ZM9.64722 19.5C9.64722 19.8978 9.80525 20.2794 10.0866 20.5607L11.1472 19.5H9.64722ZM10.0866 20.5607C10.3679 20.842 10.7494 21 11.1472 21V19.5L10.0866 20.5607ZM11.1472 21H21.6472V19.5H11.1472V21ZM21.6472 21C22.045 21 22.4266 20.842 22.7079 20.5607L21.6472 19.5H21.6472V21ZM22.7079 20.5607C22.9892 20.2794 23.1472 19.8978 23.1472 19.5H21.6472H21.6472L22.7079 20.5607ZM23.1472 19.5V11.25H21.6472V19.5H23.1472ZM23.1472 11.25C23.1472 9.08775 22.7106 7.09311 21.9697 5.61129C21.2512 4.17433 20.1199 3 18.6472 3V4.5C19.2456 4.5 19.9893 5.0046 20.628 6.28211C21.2444 7.51475 21.6472 9.27012 21.6472 11.25H23.1472ZM18.6472 3H6.64722V4.5H18.6472V3ZM10.3972 12H12.6472V10.5H10.3972V12ZM15.6472 12H17.1472V10.5H15.6472V12ZM20.1472 12H22.3972V10.5H20.1472V12Z" fill="#3D3D3D"/>
</svg>
