<svg width="25" height="24" viewBox="0 0 25 24" fill="none" xmlns="http://www.w3.org/2000/svg">
<path d="M14.7207 7.875H10.9552L10.2207 12.394C10.5878 12.0269 11.0555 11.7769 11.5647 11.6756C12.0739 11.5743 12.6017 11.6263 13.0813 11.8249C13.561 12.0236 13.9709 12.3601 14.2594 12.7917C14.5478 13.2234 14.7018 13.7309 14.7018 14.2501C14.7018 14.7692 14.5478 15.2767 14.2594 15.7084C13.9709 16.1401 13.561 16.4765 13.0813 16.6752C12.6017 16.8739 12.0739 16.9259 11.5647 16.8246C11.0555 16.7233 10.5878 16.4733 10.2207 16.1062M21.4707 12C21.4707 16.9706 17.4413 21 12.4707 21C7.50014 21 3.4707 16.9706 3.4707 12C3.4707 7.02944 7.50014 3 12.4707 3C17.4413 3 21.4707 7.02944 21.4707 12Z" stroke="#3D3D3D" stroke-width="1.5" stroke-linecap="round" stroke-linejoin="round"/>
</svg>
