<svg width="25" height="24" viewBox="0 0 25 24" fill="none" xmlns="http://www.w3.org/2000/svg">
<path d="M10.2207 7.875H14.7201L12.096 11.6254C12.5277 11.6254 12.9527 11.7319 13.3334 11.9353C13.7141 12.1388 14.0387 12.433 14.2785 12.7919C14.5184 13.1508 14.666 13.5633 14.7083 13.9929C14.7506 14.4225 14.6863 14.8558 14.5211 15.2546C14.356 15.6534 14.095 16.0053 13.7613 16.2792C13.4276 16.553 13.0316 16.7403 12.6082 16.8246C12.1849 16.9088 11.7473 16.8873 11.3342 16.762C10.9211 16.6367 10.5454 16.4114 10.2401 16.1062M4.9707 3.75H19.9707C20.3849 3.75 20.7207 4.08579 20.7207 4.5V19.5C20.7207 19.9142 20.3849 20.25 19.9707 20.25H4.9707C4.55649 20.25 4.2207 19.9142 4.2207 19.5V4.5C4.2207 4.08579 4.55649 3.75 4.9707 3.75Z" stroke="#3D3D3D" stroke-width="1.5" stroke-linecap="round" stroke-linejoin="round"/>
</svg>
