<svg width="25" height="24" viewBox="0 0 25 24" fill="none" xmlns="http://www.w3.org/2000/svg">
<path d="M14.3567 9.5625C14.3567 10.0397 14.1912 10.5021 13.8885 10.8709C13.5858 11.2398 13.1646 11.4923 12.6966 11.5854C12.2286 11.6785 11.7428 11.6064 11.3219 11.3815C10.9011 11.1565 10.5713 10.7926 10.3887 10.3518C10.2061 9.91094 10.182 9.42041 10.3205 8.96379C10.459 8.50716 10.7516 8.1127 11.1483 7.84759C11.5451 7.58249 12.0215 7.46316 12.4963 7.50993C12.9712 7.5567 13.4152 7.76668 13.7526 8.10409C13.9444 8.2954 14.0965 8.52273 14.2002 8.77301C14.3039 9.02329 14.357 9.2916 14.3567 9.5625Z" stroke="#3D3D3D" stroke-width="1.5" stroke-linecap="round" stroke-linejoin="round"/>
<path d="M14.7317 14.0625C14.7317 14.6264 14.5362 15.1729 14.1784 15.6088C13.8206 16.0448 13.3228 16.3431 12.7697 16.4532C12.2166 16.5632 11.6425 16.478 11.1452 16.2122C10.6478 15.9463 10.258 15.5163 10.0422 14.9953C9.82643 14.4743 9.79795 13.8946 9.96165 13.3549C10.1253 12.8153 10.4711 12.3491 10.94 12.0358C11.4089 11.7225 11.9719 11.5815 12.5331 11.6367C13.0943 11.692 13.619 11.9402 14.0178 12.3389C14.2444 12.565 14.4242 12.8337 14.5467 13.1295C14.6692 13.4253 14.7321 13.7423 14.7317 14.0625Z" stroke="#3D3D3D" stroke-width="1.5" stroke-linecap="round" stroke-linejoin="round"/>
<path d="M19.7942 3.75H4.79419C4.37998 3.75 4.04419 4.08579 4.04419 4.5V19.5C4.04419 19.9142 4.37998 20.25 4.79419 20.25H19.7942C20.2084 20.25 20.5442 19.9142 20.5442 19.5V4.5C20.5442 4.08579 20.2084 3.75 19.7942 3.75Z" stroke="#3D3D3D" stroke-width="1.5" stroke-linecap="round" stroke-linejoin="round"/>
</svg>
