<svg width="25" height="24" viewBox="0 0 25 24" fill="none" xmlns="http://www.w3.org/2000/svg">
<path d="M18.1765 3.75H6.17651C4.93387 3.75 3.92651 4.75736 3.92651 6V18C3.92651 19.2426 4.93387 20.25 6.17651 20.25H18.1765C19.4192 20.25 20.4265 19.2426 20.4265 18V6C20.4265 4.75736 19.4192 3.75 18.1765 3.75Z" stroke="#3D3D3D" stroke-width="1.5" stroke-linecap="round" stroke-linejoin="round"/>
<path d="M8.80151 8.8125C9.31928 8.8125 9.73901 8.39277 9.73901 7.875C9.73901 7.35723 9.31928 6.9375 8.80151 6.9375C8.28375 6.9375 7.86401 7.35723 7.86401 7.875C7.86401 8.39277 8.28375 8.8125 8.80151 8.8125Z" fill="#3D3D3D"/>
<path d="M15.5515 8.8125C16.0693 8.8125 16.489 8.39277 16.489 7.875C16.489 7.35723 16.0693 6.9375 15.5515 6.9375C15.0337 6.9375 14.614 7.35723 14.614 7.875C14.614 8.39277 15.0337 8.8125 15.5515 8.8125Z" fill="#3D3D3D"/>
<path d="M8.80151 12.9375C9.31928 12.9375 9.73901 12.5178 9.73901 12C9.73901 11.4822 9.31928 11.0625 8.80151 11.0625C8.28375 11.0625 7.86401 11.4822 7.86401 12C7.86401 12.5178 8.28375 12.9375 8.80151 12.9375Z" fill="#3D3D3D"/>
<path d="M15.5515 12.9375C16.0693 12.9375 16.489 12.5178 16.489 12C16.489 11.4822 16.0693 11.0625 15.5515 11.0625C15.0337 11.0625 14.614 11.4822 14.614 12C14.614 12.5178 15.0337 12.9375 15.5515 12.9375Z" fill="#3D3D3D"/>
<path d="M8.80151 17.0625C9.31928 17.0625 9.73901 16.6428 9.73901 16.125C9.73901 15.6072 9.31928 15.1875 8.80151 15.1875C8.28375 15.1875 7.86401 15.6072 7.86401 16.125C7.86401 16.6428 8.28375 17.0625 8.80151 17.0625Z" fill="#3D3D3D"/>
<path d="M15.5515 17.0625C16.0693 17.0625 16.489 16.6428 16.489 16.125C16.489 15.6072 16.0693 15.1875 15.5515 15.1875C15.0337 15.1875 14.614 15.6072 14.614 16.125C14.614 16.6428 15.0337 17.0625 15.5515 17.0625Z" fill="#3D3D3D"/>
</svg>
