<svg width="25" height="24" viewBox="0 0 25 24" fill="none" xmlns="http://www.w3.org/2000/svg">
<path d="M18.0588 3.75H6.05878C4.81614 3.75 3.80878 4.75736 3.80878 6V18C3.80878 19.2426 4.81614 20.25 6.05878 20.25H18.0588C19.3014 20.25 20.3088 19.2426 20.3088 18V6C20.3088 4.75736 19.3014 3.75 18.0588 3.75Z" stroke="#3D3D3D" stroke-width="1.5" stroke-linecap="round" stroke-linejoin="round"/>
<path d="M9.43378 10.3125C9.95154 10.3125 10.3713 9.89277 10.3713 9.375C10.3713 8.85723 9.95154 8.4375 9.43378 8.4375C8.91601 8.4375 8.49628 8.85723 8.49628 9.375C8.49628 9.89277 8.91601 10.3125 9.43378 10.3125Z" fill="#3D3D3D"/>
<path d="M14.6838 10.3125C15.2015 10.3125 15.6213 9.89277 15.6213 9.375C15.6213 8.85723 15.2015 8.4375 14.6838 8.4375C14.166 8.4375 13.7463 8.85723 13.7463 9.375C13.7463 9.89277 14.166 10.3125 14.6838 10.3125Z" fill="#3D3D3D"/>
<path d="M9.43378 15.5625C9.95154 15.5625 10.3713 15.1428 10.3713 14.625C10.3713 14.1072 9.95154 13.6875 9.43378 13.6875C8.91601 13.6875 8.49628 14.1072 8.49628 14.625C8.49628 15.1428 8.91601 15.5625 9.43378 15.5625Z" fill="#3D3D3D"/>
<path d="M14.6838 15.5625C15.2015 15.5625 15.6213 15.1428 15.6213 14.625C15.6213 14.1072 15.2015 13.6875 14.6838 13.6875C14.166 13.6875 13.7463 14.1072 13.7463 14.625C13.7463 15.1428 14.166 15.5625 14.6838 15.5625Z" fill="#3D3D3D"/>
</svg>
