<svg width="25" height="24" viewBox="0 0 25 24" fill="none" xmlns="http://www.w3.org/2000/svg">
<path d="M15.9852 9.75H8.48523C6.82838 9.75 5.48523 11.0931 5.48523 12.75V13.5C5.48523 15.1569 6.82838 16.5 8.48523 16.5H15.9852C17.6421 16.5 18.9852 15.1569 18.9852 13.5V12.75C18.9852 11.0931 17.6421 9.75 15.9852 9.75Z" stroke="#3D3D3D" stroke-width="1.5" stroke-linecap="round" stroke-linejoin="round"/>
<path d="M2.48523 6C2.48523 5.40326 2.72228 4.83097 3.14424 4.40901C3.5662 3.98705 4.13849 3.75 4.73523 3.75C5.33197 3.75 5.90426 3.98705 6.32622 4.40901C6.74818 4.83097 6.98523 5.40326 6.98523 6H17.4852C17.4852 5.40326 17.7223 4.83097 18.1442 4.40901C18.5662 3.98705 19.1385 3.75 19.7352 3.75C20.332 3.75 20.9043 3.98705 21.3262 4.40901C21.7482 4.83097 21.9852 5.40326 21.9852 6V13.5C21.9852 15.0913 21.3531 16.6174 20.2279 17.7426C19.1027 18.8679 17.5765 19.5 15.9852 19.5H8.48523C6.89393 19.5 5.36781 18.8679 4.24259 17.7426C3.11737 16.6174 2.48523 15.0913 2.48523 13.5V6Z" stroke="#3D3D3D" stroke-width="1.5" stroke-linecap="round" stroke-linejoin="round"/>
<path d="M8.86023 14.0625C9.378 14.0625 9.79773 13.6428 9.79773 13.125C9.79773 12.6072 9.378 12.1875 8.86023 12.1875C8.34246 12.1875 7.92273 12.6072 7.92273 13.125C7.92273 13.6428 8.34246 14.0625 8.86023 14.0625Z" fill="#3D3D3D"/>
<path d="M15.6102 14.0625C16.128 14.0625 16.5477 13.6428 16.5477 13.125C16.5477 12.6072 16.128 12.1875 15.6102 12.1875C15.0925 12.1875 14.6727 12.6072 14.6727 13.125C14.6727 13.6428 15.0925 14.0625 15.6102 14.0625Z" fill="#3D3D3D"/>
</svg>
