<svg width="25" height="24" viewBox="0 0 25 24" fill="none" xmlns="http://www.w3.org/2000/svg">
<path d="M6.2941 20.25C6.19561 20.25 6.09808 20.2306 6.00708 20.1929C5.91609 20.1552 5.83341 20.1 5.76377 20.0303C5.69412 19.9607 5.63888 19.878 5.60119 19.787C5.5635 19.696 5.5441 19.5985 5.5441 19.5L5.54415 15.4974C5.14405 15.6869 4.70252 15.7721 4.26063 15.7451C3.81874 15.7182 3.39085 15.5799 3.01676 15.3431C2.64267 15.1064 2.33454 14.7789 2.12102 14.3911C1.9075 14.0032 1.79553 13.5677 1.79553 13.125C1.79553 12.6823 1.9075 12.2468 2.12102 11.859C2.33454 11.4712 2.64267 11.1436 3.01676 10.9069C3.39085 10.6702 3.81874 10.5319 4.26063 10.5049C4.70252 10.4779 5.14405 10.5632 5.54415 10.7527L5.5441 6.75003C5.5441 6.65154 5.5635 6.55401 5.60119 6.46301C5.63888 6.37202 5.69413 6.28934 5.76377 6.21969C5.83342 6.15005 5.9161 6.0948 6.00709 6.05711C6.09809 6.01942 6.19562 6.00002 6.29411 6.00002L10.6717 6.00007C10.4822 5.59997 10.397 5.15844 10.424 4.71656C10.4509 4.27467 10.5892 3.84678 10.826 3.47269C11.0627 3.09861 11.3902 2.79047 11.778 2.57695C12.1659 2.36343 12.6014 2.25146 13.0441 2.25146C13.4868 2.25146 13.9223 2.36343 14.3101 2.57695C14.6979 2.79047 15.0255 3.09861 15.2622 3.47269C15.4989 3.84678 15.6372 4.27467 15.6642 4.71656C15.6912 5.15844 15.6059 5.59997 15.4164 6.00007L19.7941 6.00002C19.993 6.00002 20.1837 6.07904 20.3244 6.21969C20.465 6.36034 20.5441 6.5511 20.5441 6.75001L20.5441 10.7527C20.144 10.5632 19.7025 10.4779 19.2606 10.5049C18.8187 10.5319 18.3908 10.6702 18.0167 10.9069C17.6426 11.1436 17.3345 11.4712 17.121 11.859C16.9075 12.2468 16.7955 12.6823 16.7955 13.125C16.7955 13.5677 16.9075 14.0032 17.121 14.3911C17.3345 14.7789 17.6426 15.1064 18.0167 15.3431C18.3908 15.5799 18.8187 15.7182 19.2606 15.7451C19.7025 15.7721 20.144 15.6869 20.5441 15.4974L20.5441 19.5C20.5441 19.6989 20.465 19.8897 20.3244 20.0304C20.1837 20.171 19.993 20.25 19.7941 20.25L6.2941 20.25Z" stroke="#3D3D3D" stroke-width="1.5" stroke-linecap="round" stroke-linejoin="round"/>
</svg>
