<svg width="25" height="24" viewBox="0 0 25 24" fill="none" xmlns="http://www.w3.org/2000/svg">
<path d="M12.1176 12L21.1176 3M18.4815 5.63604C16.8873 4.04493 14.7539 3.11014 12.5035 3.01662C10.253 2.9231 8.04941 3.67766 6.32864 5.13101C4.60787 6.58436 3.49526 8.63064 3.21093 10.865C2.9266 13.0994 3.49126 15.3591 4.7932 17.1971C6.09514 19.0351 8.03953 20.3175 10.2417 20.7906C12.4438 21.2637 14.7433 20.893 16.6853 19.7518C18.6272 18.6107 20.0701 16.7823 20.7285 14.6283C21.387 12.4743 21.2129 10.1516 20.2409 8.11973M15.2996 8.81802C14.5556 8.07409 13.5745 7.61436 12.5267 7.51873C11.479 7.42311 10.4308 7.69764 9.56449 8.2946C8.69814 8.89157 8.06836 9.77323 7.7846 10.7863C7.50084 11.7995 7.58104 12.88 8.01127 13.8401C8.4415 14.8002 9.19455 15.5792 10.1395 16.0418C11.0845 16.5043 12.1617 16.621 13.1839 16.3718C14.206 16.1225 15.1085 15.523 15.7345 14.6773C16.3605 13.8317 16.6704 12.7935 16.6103 11.7431" stroke="#3D3D3D" stroke-width="1.5" stroke-linecap="round" stroke-linejoin="round"/>
</svg>
