<svg width="25" height="24" viewBox="0 0 25 24" fill="none" xmlns="http://www.w3.org/2000/svg">
<path d="M19.4064 19.5H5.08826C4.69043 19.5 4.3089 19.342 4.0276 19.0607C3.74629 18.7794 3.58826 18.3978 3.58826 18V7.5C3.58826 7.10218 3.74629 6.72064 4.0276 6.43934C4.3089 6.15804 4.69043 6 5.08826 6H7.1337M3.72462 2.25L21.4519 21.75M9.3994 4.03246L9.58771 3.75H15.5877L17.0877 6H20.0883C20.4861 6 20.8676 6.15804 21.1489 6.43934C21.4302 6.72064 21.5883 7.10218 21.5883 7.5V17.4402M15.0388 14.6956C14.7195 15.0329 14.3339 15.3005 13.9063 15.4819C13.4788 15.6633 13.0183 15.7545 12.5539 15.7497C12.0895 15.745 11.631 15.6444 11.2072 15.4544C10.7834 15.2643 10.4034 14.9888 10.091 14.6452C9.77854 14.3015 9.54041 13.897 9.39148 13.4571C9.24255 13.0171 9.18602 12.5512 9.22544 12.0884C9.26485 11.6256 9.39937 11.176 9.62056 10.7675C9.84174 10.3591 10.1449 10.0008 10.5109 9.71488" stroke="#3D3D3D" stroke-width="1.5" stroke-linecap="round" stroke-linejoin="round"/>
</svg>
