<svg width="25" height="24" viewBox="0 0 25 24" fill="none" xmlns="http://www.w3.org/2000/svg">
<path d="M21.4117 12C21.4117 16.9706 17.3823 21 12.4117 21C7.44118 21 3.41174 16.9706 3.41174 12C3.41174 7.02944 7.44118 3 12.4117 3C17.3823 3 21.4117 7.02944 21.4117 12ZM21.4117 12H15.4117M15.4117 12C15.4117 13.6569 14.0686 15 12.4117 15C10.7549 15 9.41174 13.6569 9.41174 12C9.41174 10.3431 10.7549 9 12.4117 9C14.0686 9 15.4117 10.3431 15.4117 12ZM18.7757 5.63604L14.5331 9.87868" stroke="#3D3D3D" stroke-width="1.5" stroke-linecap="round" stroke-linejoin="round"/>
</svg>
