<svg width="25" height="24" viewBox="0 0 25 24" fill="none" xmlns="http://www.w3.org/2000/svg">
<path d="M17.3457 14.25C17.3457 14.7473 17.1482 15.2242 16.7965 15.5758C16.4449 15.9275 15.968 16.125 15.4707 16.125C14.9734 16.125 14.4965 15.9275 14.1449 15.5758C13.7932 15.2242 13.5957 14.7473 13.5957 14.25C13.5957 12 16.2207 12 16.2207 9.75C16.2207 8.75544 15.8256 7.80161 15.1224 7.09835C14.4191 6.39509 13.4653 6 12.4707 6C11.4761 6 10.5223 6.39509 9.81905 7.09835C9.11579 7.80161 8.7207 8.75544 8.7207 9.75M15.6525 20.2504C15.1119 20.9055 14.3822 21.3779 13.5631 21.6028C12.7439 21.8277 11.8754 21.7942 11.0759 21.507C10.2765 21.2198 9.5853 20.6928 9.09664 19.998C8.60798 19.3032 8.34572 18.4744 8.3457 17.625C8.3457 13.7353 4.9707 15 4.9707 9.75C4.9707 7.76088 5.76088 5.85322 7.1674 4.4467C8.57392 3.04018 10.4816 2.25 12.4707 2.25C14.4598 2.25 16.3675 3.04018 17.774 4.4467C19.1805 5.85322 19.9707 7.76088 19.9707 9.75" stroke="#3D3D3D" stroke-width="1.5" stroke-linecap="round" stroke-linejoin="round"/>
</svg>
