<svg width="25" height="24" viewBox="0 0 25 24" fill="none" xmlns="http://www.w3.org/2000/svg">
<path d="M5.02931 3.75001L20.0293 20.25M9.10076 8.22862C8.88812 8.7076 8.77859 9.22595 8.77931 9.75001M8.68348 3.30976C9.82203 2.63036 11.1203 2.26485 12.4461 2.25044C13.7718 2.23604 15.0777 2.57326 16.2308 3.22776C17.3838 3.88226 18.3428 4.83066 19.0101 5.97637C19.6773 7.12208 20.029 8.42416 20.0293 9.75001M15.7111 20.2504C15.1705 20.9056 14.4408 21.3779 13.6217 21.6028C12.8025 21.8277 11.934 21.7943 11.1345 21.507C10.3351 21.2198 9.6439 20.6928 9.15524 19.998C8.66658 19.3032 8.40433 18.4744 8.40431 17.625C8.40431 13.7353 5.02931 15 5.02931 9.75001C5.02678 8.16195 5.53068 6.61445 6.46778 5.33235M15.8176 11.1571C16.1265 10.754 16.2893 10.2578 16.2793 9.75001C16.2789 9.15319 16.1361 8.56509 15.8629 8.03451C15.5896 7.50393 15.1937 7.04617 14.7081 6.69923C14.2225 6.35229 13.6612 6.12618 13.0707 6.03965C12.4802 5.95313 11.8775 6.00869 11.3128 6.20173M16.1754 16.0107C15.892 16.1144 15.5877 16.1483 15.2884 16.1093C14.9892 16.0704 14.7037 15.9598 14.4563 15.787C14.2088 15.6142 14.0067 15.3842 13.8671 15.1167C13.7275 14.8491 13.6545 14.5518 13.6543 14.25C13.6509 13.9603 13.7014 13.6725 13.8032 13.4013" stroke="#3D3D3D" stroke-width="1.5" stroke-linecap="round" stroke-linejoin="round"/>
</svg>
