<svg width="24" height="24" viewBox="0 0 24 24" fill="none" xmlns="http://www.w3.org/2000/svg">
<path d="M5.57143 15.5L8.94261 11.095C8.99236 11.03 9.05141 10.9784 9.11641 10.9432C9.18141 10.9081 9.25107 10.8899 9.32142 10.8899C9.39177 10.8899 9.46143 10.9081 9.52643 10.9432C9.59143 10.9784 9.65048 11.03 9.70023 11.095L12.6926 15.005C12.7424 15.07 12.8014 15.1216 12.8664 15.1568C12.9314 15.1919 13.0011 15.21 13.0714 15.21C13.1418 15.21 13.2114 15.1919 13.2764 15.1568C13.3414 15.1216 13.4005 15.07 13.4502 15.005L14.8355 13.195C14.8852 13.13 14.9443 13.0784 15.0093 13.0432C15.0743 13.0081 15.1439 12.9899 15.2143 12.9899C15.2846 12.9899 15.3543 13.0081 15.4193 13.0432C15.4843 13.0784 15.5433 13.13 15.5931 13.195L18.4286 16.9M22 7.22727V16.7727C22 17.0363 21.7716 17.25 21.4898 17.25H18.9388C18.657 17.25 18.4286 17.0363 18.4286 16.7727V7.22727C18.4286 6.96368 18.657 6.75 18.9388 6.75H21.4898C21.7716 6.75 22 6.96368 22 7.22727ZM5.57143 7.22727V16.7727C5.57143 17.0363 5.343 17.25 5.06122 17.25H2.5102C2.22843 17.25 2 17.0363 2 16.7727V7.22727C2 6.96368 2.22843 6.75 2.5102 6.75H5.06122C5.343 6.75 5.57143 6.96368 5.57143 7.22727ZM6.10714 5H17.8929C18.1887 5 18.4286 5.3134 18.4286 5.7V18.3C18.4286 18.6866 18.1887 19 17.8929 19H6.10714C5.81128 19 5.57143 18.6866 5.57143 18.3V5.7C5.57143 5.3134 5.81128 5 6.10714 5Z" stroke="#3D3D3D" stroke-width="1.5" stroke-linecap="round" stroke-linejoin="round"/>
<path d="M14.9366 9.875C15.4539 9.875 15.8733 9.45527 15.8733 8.9375C15.8733 8.41973 15.4539 8 14.9366 8C14.4193 8 14 8.41973 14 8.9375C14 9.45527 14.4193 9.875 14.9366 9.875Z" fill="#3D3D3D"/>
</svg>
