<svg width="25" height="24" viewBox="0 0 25 24" fill="none" xmlns="http://www.w3.org/2000/svg">
<path d="M21.9182 11.36L8.42039 3.11108C8.3067 3.0416 8.17656 3.00366 8.04334 3.00117C7.91012 2.99867 7.77865 3.03171 7.66243 3.09689C7.54622 3.16206 7.44947 3.25702 7.38213 3.37199C7.31479 3.48696 7.2793 3.6178 7.2793 3.75104V20.2489C7.2793 20.3821 7.31479 20.513 7.38213 20.628C7.44947 20.7429 7.54622 20.8379 7.66243 20.9031C7.77865 20.9682 7.91012 21.0013 8.04334 20.9988C8.17656 20.9963 8.3067 20.9583 8.42039 20.8889L21.9182 12.6399C22.0278 12.5729 22.1184 12.4789 22.1813 12.3668C22.2441 12.2548 22.2771 12.1285 22.2771 12C22.2771 11.8715 22.2441 11.7452 22.1813 11.6331C22.1184 11.5211 22.0278 11.427 21.9182 11.36Z" stroke="#3D3D3D" stroke-width="1.5" stroke-linecap="round" stroke-linejoin="round"/>
</svg>
