<svg width="25" height="24" viewBox="0 0 25 24" fill="none" xmlns="http://www.w3.org/2000/svg">
<path d="M1.8271 11.3691L10.1902 5.9929C10.3035 5.92006 10.4343 5.87908 10.5689 5.87426C10.7035 5.86944 10.8369 5.90095 10.9551 5.9655C11.0733 6.03004 11.172 6.12522 11.2407 6.24105C11.3095 6.35689 11.3457 6.48909 11.3457 6.62378V17.3763C11.3457 17.511 11.3095 17.6432 11.2407 17.759C11.172 17.8748 11.0733 17.97 10.9551 18.0346C10.8369 18.0991 10.7035 18.1306 10.5689 18.1258C10.4343 18.121 10.3035 18.08 10.1902 18.0072L1.8271 12.6309C1.72146 12.563 1.63456 12.4697 1.57438 12.3594C1.5142 12.2492 1.48267 12.1256 1.48267 12C1.48267 11.8744 1.5142 11.7509 1.57438 11.6406C1.63456 11.5304 1.72146 11.4371 1.8271 11.3691Z" stroke="#3D3D3D" stroke-width="1.5" stroke-linecap="round" stroke-linejoin="round"/>
<path d="M12.3271 11.3691L20.6902 5.9929C20.8035 5.92006 20.9343 5.87908 21.0689 5.87426C21.2035 5.86944 21.3369 5.90095 21.4551 5.9655C21.5733 6.03004 21.672 6.12522 21.7407 6.24105C21.8095 6.35689 21.8457 6.48909 21.8457 6.62378V17.3763C21.8457 17.511 21.8095 17.6432 21.7407 17.759C21.672 17.8748 21.5733 17.97 21.4551 18.0346C21.3369 18.0991 21.2035 18.1306 21.0689 18.1258C20.9343 18.121 20.8035 18.08 20.6902 18.0072L12.3271 12.6309C12.2215 12.563 12.1346 12.4697 12.0744 12.3594C12.0142 12.2492 11.9827 12.1256 11.9827 12C11.9827 11.8744 12.0142 11.7509 12.0744 11.6406C12.1346 11.5304 12.2215 11.4371 12.3271 11.3691Z" stroke="#3D3D3D" stroke-width="1.5" stroke-linecap="round" stroke-linejoin="round"/>
</svg>
