<svg width="25" height="24" viewBox="0 0 25 24" fill="none" xmlns="http://www.w3.org/2000/svg">
<path d="M14.5222 16.1244L4.39722 16.1244M14.5222 16.1244C14.5222 17.1599 15.3617 17.9994 16.3972 17.9994C17.4328 17.9994 18.2722 17.1599 18.2722 16.1244M14.5222 16.1244C14.5222 15.0889 15.3617 14.2494 16.3972 14.2494C17.4328 14.2494 18.2722 15.0889 18.2722 16.1244M20.8972 16.1244L18.2722 16.1244M8.52222 7.87442L4.39722 7.87433M8.52222 7.87442C8.52222 8.90996 9.36168 9.74939 10.3972 9.74939C11.4328 9.74939 12.2722 8.90996 12.2722 7.87442M8.52222 7.87442C8.52222 6.83889 9.36168 5.99939 10.3972 5.99939C11.4328 5.99939 12.2722 6.83889 12.2722 7.87442M20.8972 7.87433L12.2722 7.87442" stroke="#3D3D3D" stroke-width="1.5" stroke-linecap="round" stroke-linejoin="round"/>
</svg>
