<svg width="25" height="24" viewBox="0 0 25 24" fill="none" xmlns="http://www.w3.org/2000/svg">
<path d="M20.7565 7.22703C21.3833 7.85382 21.8805 8.59794 22.2198 9.41689C22.559 10.2358 22.7336 11.1136 22.7336 12C22.7336 12.8864 22.559 13.7642 22.2198 14.5831C21.8805 15.4021 21.3833 16.1462 20.7565 16.773M7.73523 15.75H3.23523C3.03632 15.75 2.84555 15.671 2.7049 15.5303C2.56425 15.3897 2.48523 15.1989 2.48523 15V9C2.48523 8.80109 2.56425 8.61032 2.7049 8.46967C2.84555 8.32902 3.03632 8.25 3.23523 8.25H7.73523M7.73523 15.75L14.4852 21V3L7.73523 8.25M7.73523 15.75V8.25M18.1049 9.87868C18.3835 10.1573 18.6044 10.488 18.7552 10.8519C18.906 11.2159 18.9836 11.606 18.9836 12C18.9836 12.394 18.906 12.7841 18.7552 13.148C18.6044 13.512 18.3835 13.8427 18.1049 14.1213" stroke="#3D3D3D" stroke-width="1.5" stroke-linecap="round" stroke-linejoin="round"/>
</svg>
